<svg width="70" height="37" viewBox="0 0 70 37" fill="none" xmlns="http://www.w3.org/2000/svg">
<g clip-path="url(#clip0_15_2)">
<path d="M28.3548 35.3521L28.3513 35.385C28.3042 35.7457 27.999 36.0203 27.6318 36.0258C27.2563 36.0314 26.9375 35.7538 26.8902 35.3824C26.8905 35.3842 26.8908 35.3859 26.891 35.3872C26.8914 35.389 26.8917 35.3905 26.8919 35.3916C26.8921 35.3927 26.8923 35.3937 26.8924 35.3944C26.8925 35.3948 26.8926 35.3951 26.8927 35.3954C26.8923 35.3938 26.8916 35.3906 26.8909 35.3866C26.8904 35.3835 26.8899 35.38 26.8893 35.376C26.8896 35.3781 26.8899 35.3802 26.8902 35.3824C26.8901 35.3819 26.89 35.3814 26.89 35.3809C26.8898 35.3796 26.8896 35.3782 26.8894 35.3767C26.8892 35.3758 26.8891 35.3749 26.889 35.3739C26.8889 35.3732 26.8888 35.3725 26.8887 35.3718V35.3715L26.8886 35.3712C26.8886 35.371 26.8886 35.3708 26.8886 35.3705C26.8885 35.37 26.8885 35.3691 26.8883 35.3682C26.8881 35.3657 26.8876 35.3616 26.8869 35.3557C26.8856 35.3444 26.8835 35.3272 26.8808 35.3044C26.8753 35.2587 26.867 35.1908 26.8559 35.1031C26.8335 34.9277 26.7996 34.6735 26.7539 34.3611C26.6623 33.7357 26.5236 32.8804 26.3357 31.9589C26.1473 31.0354 25.9116 30.0566 25.6276 29.1807C25.3391 28.291 25.0189 27.5655 24.684 27.108C23.7727 25.8629 21.9938 24.8052 20.3325 24.0413C19.5198 23.6676 18.7679 23.3787 18.2191 23.1832C17.9452 23.0856 17.7229 23.0116 17.5702 22.9624C17.494 22.9379 17.4351 22.9195 17.3958 22.9075C17.3864 22.9046 17.3782 22.9021 17.3711 22.8999H17.3606L17.3251 22.8858C16.9433 22.7645 16.7276 22.3592 16.8423 21.9738L16.848 21.9556C16.9493 21.6443 17.24 21.4449 17.5537 21.4472L17.5594 21.4369L17.6379 21.4526C17.6737 21.457 17.7096 21.4641 17.7454 21.474L17.747 21.4744L17.7549 21.4767C17.7556 21.4769 17.7562 21.4771 17.7569 21.4773L17.8321 21.4994C17.8646 21.509 17.9079 21.5216 17.9612 21.5369C18.0935 21.575 18.287 21.6297 18.5293 21.6956C19.0141 21.8275 19.6929 22.0038 20.467 22.1816C22.0298 22.5404 23.928 22.8919 25.4045 22.9147C26.7928 22.9362 27.5391 22.9891 28.7043 22.751C28.9887 21.5005 29.3097 20.3249 29.6693 19.3309C29.7523 19.1013 29.8416 18.8655 29.9359 18.6253L24.3298 21.5638C24.0208 21.7258 23.6423 21.6484 23.4213 21.3823L23.4004 21.356C23.1831 21.0689 23.2052 20.6667 23.4527 20.4051L25.9963 16.4705C26.4874 15.9165 27.132 16.3155 27.132 16.868C27.3129 17.0392 25.2008 19.603 25.1676 19.8321L30.7032 16.5596C30.7038 16.5593 30.7044 16.559 30.7049 16.5587C30.7227 16.5476 30.7475 16.5325 30.7785 16.514C30.8001 16.5011 30.8249 16.4865 30.8526 16.4705C31.3214 15.435 31.8218 14.405 32.2763 13.4991C32.72 12.6149 33.1229 11.8435 33.4148 11.2931C33.4541 11.2191 33.4915 11.1491 33.5266 11.0833C33.5112 11.0837 33.4959 11.0841 33.4805 11.0843L33.4085 11.0848C30.4588 11.0847 28.0676 8.69353 28.0676 5.74381C28.0676 2.79409 30.4588 0.402873 33.4085 0.402863C36.3583 0.402873 38.7495 2.79409 38.7495 5.74381C38.7495 8.00333 37.3464 9.93441 35.3649 10.7149C35.3416 10.7692 35.3202 10.8182 35.301 10.8615L35.3058 10.8638L35.2017 11.0788L35.2013 11.0797C35.201 11.0803 35.2004 11.0816 35.1996 11.0831L35.199 11.0843C35.1986 11.0852 35.1982 11.086 35.1979 11.0867L35.1973 11.0879L35.197 11.0884L35.1942 11.0943L35.1937 11.0951L35.193 11.0967L35.1905 11.102L35.1877 11.1071L35.1645 11.1496L35.1643 11.1497C35.1601 11.1574 35.1552 11.1664 35.1495 11.1768C35.1285 11.2153 35.0973 11.2726 35.0572 11.3468C34.9769 11.4953 34.8604 11.712 34.7164 11.9834C34.4284 12.5265 34.0308 13.2878 33.5931 14.16C33.3475 14.6494 33.0902 15.1722 32.8329 15.7098C32.904 15.6986 32.9759 15.6896 33.048 15.6831C33.4554 15.6464 33.9434 15.6854 34.3771 15.9587C35.8352 16.8778 35.949 18.4798 35.5646 19.8341C35.4271 20.3182 35.1242 20.7484 34.8126 21.0978C34.4937 21.4554 34.1199 21.7786 33.7748 22.0457C33.4276 22.3144 33.0951 22.5373 32.8503 22.6927C32.7728 22.7418 32.7036 22.7845 32.6449 22.8201L32.6481 22.8256L32.5925 22.8564L32.5957 22.8644L32.418 22.9533L32.4133 22.9559L32.4073 22.9588L32.3496 22.9869L32.2138 23.0548L32.213 23.0534L32.1711 23.0739L32.1692 23.0699C32.1434 23.0817 32.1158 23.0944 32.0863 23.1078C31.8985 23.193 31.6354 23.3094 31.3335 23.4347C30.9267 23.6036 30.433 23.7955 29.9512 23.9483C29.5733 25.7591 29.2629 27.7042 29.0191 29.4763C28.7949 31.1062 28.6287 32.5761 28.5185 33.6385C28.4635 34.1695 28.4226 34.5983 28.3954 34.894C28.3818 35.0418 28.3716 35.1564 28.3649 35.2335C28.3615 35.2721 28.3591 35.3014 28.3574 35.321L28.3573 35.3225C28.3567 35.3297 28.3562 35.3353 28.3558 35.3399L28.355 35.3498C28.3549 35.3508 28.3549 35.3515 28.3548 35.3519V35.3521L28.3548 35.3522V35.3521ZM23.7571 24.2708C24.5748 24.8368 25.328 25.4932 25.873 26.2378C26.3486 26.8876 26.7264 27.7928 27.0291 28.7263C27.1802 29.1922 27.3169 29.6799 27.4401 30.1686C27.4779 29.8775 27.5178 29.5793 27.5596 29.2755C27.7757 27.7046 28.0468 25.9731 28.3759 24.3033C27.3341 24.4527 26.5052 24.4053 25.3817 24.388C24.8684 24.38 24.3184 24.3369 23.7571 24.2708ZM17.3125 22.8807C17.3128 22.8809 17.3132 22.881 17.3137 22.8812C17.3127 22.8808 17.3119 22.8804 17.3115 22.8802L17.3113 22.8802C17.3115 22.8803 17.312 22.8805 17.3125 22.8807ZM33.5915 17.2052C33.533 17.1683 33.4107 17.1296 33.1801 17.1504C32.9537 17.1708 32.6904 17.243 32.422 17.3458C32.2682 17.4046 32.1218 17.4701 31.9909 17.5336C31.6371 18.3334 31.3128 19.1186 31.0547 19.8321C30.7981 20.5412 30.5594 21.3606 30.3385 22.2469C30.4861 22.1894 30.6307 22.1312 30.7685 22.074C31.0527 21.956 31.301 21.8461 31.4779 21.7659C31.5663 21.7258 31.6366 21.6933 31.6843 21.671C31.7047 21.6614 31.7209 21.6538 31.7326 21.6483C31.7328 21.6482 31.7329 21.6481 31.7331 21.6481C31.7334 21.6479 31.7335 21.6478 31.7335 21.6478C31.7486 21.6392 31.7719 21.6256 31.8023 21.6076C31.8632 21.5715 31.9522 21.5177 32.0608 21.4488C32.279 21.3103 32.5717 21.1138 32.8731 20.8805C33.1767 20.6456 33.475 20.384 33.713 20.1172C33.9582 19.8422 34.097 19.6083 34.1471 19.4316C34.2965 18.9056 34.3216 18.451 34.23 18.0808C34.14 17.7173 33.9347 17.4215 33.5915 17.2052ZM35.1819 11.1174L35.182 11.1174C35.1834 11.1148 35.1845 11.1125 35.1853 11.1111C35.186 11.1096 35.1866 11.1085 35.1869 11.1078L35.1871 11.1073C35.1864 11.1088 35.1845 11.1125 35.1819 11.1174ZM32.1009 2.10296C30.6081 2.63917 29.541 4.06711 29.541 5.74381C29.541 7.87981 31.2725 9.61138 33.4085 9.61139C33.7012 9.61139 33.986 9.57885 34.2597 9.51739C34.3803 9.19823 34.5122 8.81724 34.6306 8.40415C34.7966 7.82526 34.9318 7.19953 34.9782 6.60219C35.0251 5.99863 34.9774 5.47144 34.8199 5.06078L34.7934 4.99262C34.2442 3.6009 33.4284 2.72849 32.1009 2.10296ZM34.6434 2.0776C35.3103 2.7359 35.8151 3.54198 36.1954 4.53279C36.4608 5.22433 36.5032 5.99422 36.4471 6.71622C36.3999 7.32373 36.28 7.93136 36.1355 8.48622C36.8402 7.78554 37.2761 6.81559 37.2761 5.74381C37.2761 4.03966 36.1738 2.59286 34.6434 2.0776Z" fill="#F1EFE7"/>
<path d="M2.08183 6.80713V14.0467C2.08183 15.6011 2.35136 16.7294 2.8904 17.4314C3.41691 18.1209 4.27563 18.4656 5.46655 18.4656C6.65746 18.4656 7.52245 18.1209 8.06149 17.4314C8.588 16.7294 8.85126 15.6011 8.85126 14.0467V6.80713H10.7317V14.0467C10.7317 16.1151 10.2992 17.6508 9.43418 18.6536C8.5692 19.6565 7.24665 20.1579 5.46655 20.1579C1.95647 20.1579 0.201435 18.1209 0.201435 14.0467V6.80713H2.08183ZM12.6363 10.5679H14.8176L17.1869 13.6706L19.575 10.5679H21.7562L18.2775 15.0809L22.0195 19.9699H19.857L17.1869 16.51L14.5355 19.9699H12.373L16.115 15.0809L12.6363 10.5679Z" fill="#F1EFE7"/>
<path d="M43.4568 10.3799C44.1338 10.3799 44.7606 10.5052 45.3372 10.756C45.9264 10.9942 46.4278 11.3326 46.8415 11.7714C47.2678 12.1976 47.5937 12.7116 47.8193 13.3133C48.0575 13.9025 48.1766 14.5544 48.1766 15.2689V15.9459H42.291V14.4415H46.3338C46.1834 13.7019 45.8575 13.1065 45.356 12.6552C44.842 12.2039 44.209 11.9782 43.4568 11.9782C43.0055 11.9782 42.5981 12.0597 42.2346 12.2227C41.8836 12.3856 41.5827 12.6113 41.332 12.8996C41.0687 13.1879 40.8681 13.5264 40.7302 13.915C40.5924 14.3036 40.5234 14.7299 40.5234 15.1937C40.5234 15.6826 40.6049 16.1276 40.7679 16.5288C40.9183 16.9425 41.1377 17.2997 41.426 17.6006C41.7143 17.8889 42.0528 18.1209 42.4414 18.2964C42.83 18.4593 43.2562 18.5408 43.7201 18.5408C44.1087 18.5408 44.4534 18.4907 44.7543 18.3904C45.0552 18.2776 45.3121 18.1522 45.5253 18.0143C45.7509 17.8764 45.9327 17.7322 46.0706 17.5818C46.221 17.4314 46.3338 17.3123 46.409 17.2245L47.7253 18.1835C47.4119 18.5721 47.0985 18.8918 46.7851 19.1425C46.4717 19.3933 46.1521 19.5938 45.8261 19.7443C45.5002 19.8947 45.1617 20.0012 44.8107 20.0639C44.4472 20.1266 44.0585 20.1579 43.6449 20.1579C42.9428 20.1579 42.291 20.0389 41.6892 19.8007C41.0875 19.55 40.5673 19.2052 40.1285 18.7665C39.6898 18.3277 39.345 17.8075 39.0943 17.2057C38.8436 16.604 38.7182 15.9459 38.7182 15.2313C38.7182 14.5293 38.8373 13.8837 39.0755 13.2945C39.3137 12.7053 39.6396 12.1913 40.0533 11.7526C40.4795 11.3264 40.981 10.9879 41.5576 10.7372C42.1343 10.499 42.7673 10.3799 43.4568 10.3799ZM54.438 10.3799C55.115 10.3799 55.7418 10.5052 56.3184 10.756C56.9076 10.9942 57.4091 11.3326 57.8228 11.7714C58.249 12.1976 58.5749 12.7116 58.8006 13.3133C59.0387 13.9025 59.1578 14.5544 59.1578 15.2689V15.9459H53.2722V14.4415H57.3151C57.1646 13.7019 56.8387 13.1065 56.3372 12.6552C55.8233 12.2039 55.1902 11.9782 54.438 11.9782C53.9867 11.9782 53.5793 12.0597 53.2158 12.2227C52.8648 12.3856 52.5639 12.6113 52.3132 12.8996C52.0499 13.1879 51.8494 13.5264 51.7115 13.915C51.5736 14.3036 51.5046 14.7299 51.5046 15.1937C51.5046 15.6826 51.5861 16.1276 51.7491 16.5288C51.8995 16.9425 52.1189 17.2997 52.4072 17.6006C52.6955 17.8889 53.034 18.1209 53.4226 18.2964C53.8112 18.4593 54.2375 18.5408 54.7013 18.5408C55.0899 18.5408 55.4347 18.4907 55.7355 18.3904C56.0364 18.2776 56.2934 18.1522 56.5065 18.0143C56.7321 17.8764 56.9139 17.7322 57.0518 17.5818C57.2022 17.4314 57.3151 17.3123 57.3903 17.2245L58.7065 18.1835C58.3931 18.5721 58.0797 18.8918 57.7663 19.1425C57.4529 19.3933 57.1333 19.5938 56.8073 19.7443C56.4814 19.8947 56.1429 20.0012 55.7919 20.0639C55.4284 20.1266 55.0398 20.1579 54.6261 20.1579C53.9241 20.1579 53.2722 20.0389 52.6705 19.8007C52.0687 19.55 51.5485 19.2052 51.1097 18.7665C50.671 18.3277 50.3262 17.8075 50.0755 17.2057C49.8248 16.604 49.6994 15.9459 49.6994 15.2313C49.6994 14.5293 49.8185 13.8837 50.0567 13.2945C50.2949 12.7053 50.6208 12.1913 51.0345 11.7526C51.4607 11.3264 51.9622 10.9879 52.5388 10.7372C53.1155 10.499 53.7486 10.3799 54.438 10.3799ZM62.9183 6.05498V15.1185L67.1304 10.5679H69.3117L65.7953 14.3475L69.763 19.9699H67.5629L64.5543 15.7014L62.9183 17.4502V19.9699H61.1508V6.05498H62.9183Z" fill="#F1EFE7"/>
</g>
<defs>
<clipPath id="clip0_15_2">
<rect width="70" height="36.3208" fill="white"/>
</clipPath>
</defs>
</svg>
