<svg width="67" height="37" viewBox="0 0 67 37" fill="none" xmlns="http://www.w3.org/2000/svg">
<path d="M32.4686 34.7666L32.466 34.7916C32.4304 35.0647 32.1993 35.2726 31.9213 35.2768C31.637 35.281 31.3956 35.0708 31.3598 34.7896C31.36 34.791 31.3602 34.7922 31.3604 34.7933C31.3606 34.7946 31.3609 34.7957 31.361 34.7966C31.3612 34.7974 31.3613 34.7981 31.3614 34.7987C31.3615 34.7989 31.3616 34.7992 31.3616 34.7994C31.3614 34.7982 31.3608 34.7958 31.3603 34.7928C31.3599 34.7905 31.3595 34.7878 31.3591 34.7847C31.3593 34.7863 31.3596 34.788 31.3598 34.7896C31.3597 34.7892 31.3596 34.7888 31.3596 34.7884C31.3594 34.7875 31.3593 34.7864 31.3591 34.7853C31.359 34.7846 31.3589 34.7839 31.3589 34.7831C31.3588 34.7826 31.3587 34.7821 31.3586 34.7815V34.7814L31.3586 34.7811C31.3586 34.781 31.3586 34.7808 31.3585 34.7806C31.3585 34.7802 31.3584 34.7796 31.3584 34.7789C31.3581 34.7769 31.3578 34.7738 31.3573 34.7694C31.3563 34.7608 31.3547 34.7478 31.3526 34.7305C31.3485 34.6959 31.3422 34.6445 31.3338 34.5781C31.3168 34.4453 31.2912 34.2528 31.2565 34.0163C31.1872 33.5428 31.0822 32.8952 30.9399 32.1975C30.7972 31.4983 30.6188 30.7572 30.4038 30.094C30.1854 29.4204 29.9429 28.8711 29.6893 28.5247C28.9994 27.5819 27.6525 26.7812 26.3947 26.2028C25.7793 25.9198 25.21 25.701 24.7945 25.553C24.5871 25.4791 24.4188 25.4231 24.3032 25.3859C24.2455 25.3673 24.2009 25.3534 24.1712 25.3443C24.164 25.3421 24.1578 25.3402 24.1525 25.3386H24.1445L24.1176 25.3279C23.8285 25.236 23.6652 24.9292 23.7521 24.6374L23.7564 24.6236C23.8331 24.3879 24.0532 24.2369 24.2907 24.2387L24.295 24.2308L24.3544 24.2427C24.3815 24.2461 24.4087 24.2514 24.4358 24.259L24.437 24.2592L24.4431 24.261C24.4435 24.2611 24.444 24.2613 24.4445 24.2614L24.5015 24.2782C24.5261 24.2854 24.5589 24.295 24.5992 24.3066C24.6994 24.3354 24.8459 24.3768 25.0293 24.4267C25.3964 24.5266 25.9103 24.6601 26.4965 24.7947C27.6797 25.0664 29.1169 25.3325 30.2349 25.3498C31.286 25.366 31.8511 25.4061 32.7333 25.2258C32.9486 24.279 33.1916 23.3889 33.4639 22.6363C33.5268 22.4625 33.5944 22.2839 33.6658 22.1021L29.4212 24.327C29.1872 24.4496 28.9006 24.391 28.7333 24.1895L28.7175 24.1696C28.5529 23.9522 28.5697 23.6477 28.757 23.4496L30.683 20.4706C31.0548 20.0511 31.5429 20.3532 31.5429 20.7716C31.6798 20.9012 30.0806 22.8423 30.0555 23.0158L34.2468 20.5381C34.2472 20.5378 34.2476 20.5376 34.248 20.5373C34.2615 20.5289 34.2803 20.5175 34.3037 20.5035C34.3201 20.4938 34.3389 20.4827 34.3598 20.4706C34.7148 19.6866 35.0937 18.9067 35.4378 18.2208C35.7737 17.5513 36.0788 16.9673 36.2998 16.5505C36.3296 16.4945 36.3579 16.4415 36.3844 16.3917C36.3728 16.392 36.3612 16.3923 36.3496 16.3924L36.2951 16.3928C34.0617 16.3928 32.2512 14.5823 32.2512 12.3489C32.2512 10.1156 34.0617 8.30509 36.2951 8.30508C38.5284 8.30509 40.3389 10.1156 40.3389 12.3489C40.3389 14.0597 39.2766 15.5218 37.7763 16.1127C37.7586 16.1538 37.7425 16.191 37.728 16.2238L37.7316 16.2255L37.6527 16.3883L37.6524 16.3889C37.6522 16.3894 37.6517 16.3904 37.6512 16.3915L37.6507 16.3924C37.6504 16.3932 37.6501 16.3938 37.6499 16.3943L37.6494 16.3952L37.6492 16.3956L37.6471 16.4L37.6467 16.4006L37.6462 16.4018L37.6442 16.4058L37.6421 16.4097L37.6246 16.4419L37.6244 16.442C37.6212 16.4478 37.6175 16.4546 37.6132 16.4625C37.5973 16.4917 37.5737 16.535 37.5433 16.5912C37.4825 16.7037 37.3943 16.8677 37.2853 17.0732C37.0672 17.4844 36.7662 18.0608 36.4348 18.7212C36.2489 19.0917 36.054 19.4876 35.8592 19.8946C35.9131 19.8862 35.9675 19.8793 36.0221 19.8744C36.3305 19.8466 36.7 19.8761 37.0284 20.0831C38.1324 20.7789 38.2186 21.9919 37.9275 23.0173C37.8234 23.3839 37.5941 23.7096 37.3581 23.9741C37.1167 24.2449 36.8337 24.4896 36.5724 24.6918C36.3095 24.8953 36.0577 25.064 35.8724 25.1816C35.8137 25.2189 35.7613 25.2512 35.7169 25.2781L35.7193 25.2823L35.6772 25.3056L35.6796 25.3117L35.5451 25.379L35.5415 25.381L35.537 25.3831L35.4933 25.4044L35.3905 25.4558L35.3899 25.4548L35.3581 25.4703L35.3567 25.4672C35.3372 25.4762 35.3163 25.4859 35.294 25.496C35.1518 25.5604 34.9526 25.6486 34.724 25.7435C34.416 25.8714 34.0422 26.0166 33.6774 26.1324C33.3912 27.5034 33.1563 28.9761 32.9717 30.3178C32.8019 31.5519 32.676 32.6648 32.5926 33.4692C32.551 33.8713 32.52 34.1959 32.4994 34.4198C32.4891 34.5317 32.4814 34.6184 32.4763 34.6769C32.4738 34.706 32.4719 34.7282 32.4706 34.7431L32.4705 34.7442C32.4701 34.7497 32.4697 34.7539 32.4695 34.7574L32.4688 34.7649C32.4688 34.7657 32.4687 34.7662 32.4687 34.7665V34.7667L32.4686 34.7667V34.7666ZM28.9875 26.3765C29.6066 26.8051 30.1769 27.302 30.5896 27.8658C30.9497 28.3578 31.2358 29.0431 31.4649 29.75C31.5793 30.1027 31.6828 30.472 31.7761 30.842C31.8047 30.6216 31.8349 30.3958 31.8666 30.1658C32.0302 28.9764 32.2355 27.6654 32.4847 26.4011C31.6959 26.5143 31.0683 26.4784 30.2176 26.4652C29.829 26.4592 29.4125 26.4266 28.9875 26.3765ZM24.1081 25.324C24.1083 25.3241 24.1086 25.3243 24.109 25.3244C24.1082 25.3241 24.1076 25.3238 24.1073 25.3237L24.1072 25.3236C24.1073 25.3237 24.1077 25.3239 24.1081 25.324ZM36.4336 21.0268C36.3893 20.9989 36.2967 20.9696 36.1221 20.9854C35.9507 21.0008 35.7514 21.0555 35.5481 21.1333C35.4317 21.1778 35.3208 21.2274 35.2217 21.2755C34.9539 21.881 34.7083 22.4756 34.5129 23.0158C34.3186 23.5527 34.1378 24.1731 33.9706 24.8441C34.0824 24.8006 34.1919 24.7565 34.2962 24.7132C34.5114 24.6239 34.6993 24.5407 34.8333 24.4799C34.9002 24.4496 34.9535 24.425 34.9896 24.4081C35.005 24.4009 35.0173 24.3951 35.0261 24.3909C35.0263 24.3908 35.0264 24.3908 35.0265 24.3907C35.0267 24.3906 35.0268 24.3906 35.0268 24.3906C35.0382 24.384 35.0559 24.3737 35.0789 24.3601C35.125 24.3328 35.1924 24.292 35.2746 24.2399C35.4398 24.135 35.6615 23.9862 35.8897 23.8096C36.1195 23.6317 36.3454 23.4336 36.5256 23.2317C36.7113 23.0235 36.8163 22.8463 36.8543 22.7126C36.9674 22.3143 36.9864 21.9701 36.917 21.6898C36.8489 21.4146 36.6934 21.1906 36.4336 21.0268ZM37.6378 16.4175L37.6378 16.4175C37.6389 16.4155 37.6397 16.4138 37.6403 16.4127C37.6409 16.4116 37.6413 16.4107 37.6415 16.4103L37.6417 16.4099C37.6412 16.411 37.6397 16.4138 37.6378 16.4175ZM35.305 9.5923C34.1748 9.99829 33.3668 11.0794 33.3668 12.3489C33.3668 13.9662 34.6778 15.2772 36.2951 15.2773C36.5167 15.2773 36.7323 15.2526 36.9395 15.2061C37.0308 14.9644 37.1307 14.676 37.2204 14.3632C37.3461 13.9249 37.4484 13.4511 37.4835 12.9989C37.519 12.5419 37.4829 12.1427 37.3636 11.8318L37.3436 11.7802C36.9278 10.7265 36.3101 10.0659 35.305 9.5923ZM37.23 9.5731C37.735 10.0715 38.1172 10.6818 38.4051 11.432C38.606 11.9556 38.6382 12.5385 38.5957 13.0852C38.56 13.5452 38.4692 14.0052 38.3598 14.4253C38.8933 13.8948 39.2234 13.1604 39.2234 12.3489C39.2234 11.0587 38.3888 9.96323 37.23 9.5731Z" fill="#181717"/>
<path d="M12.5762 13.5254V19.0068C12.5762 20.1837 12.7803 21.038 13.1884 21.5695C13.5871 22.0915 14.2373 22.3525 15.139 22.3525C16.0406 22.3525 16.6956 22.0915 17.1037 21.5695C17.5023 21.038 17.7017 20.1837 17.7017 19.0068V13.5254H19.1254V19.0068C19.1254 20.5729 18.7979 21.7356 18.143 22.4949C17.4881 23.2542 16.4868 23.6339 15.139 23.6339C12.4813 23.6339 11.1525 22.0915 11.1525 19.0068V13.5254H12.5762ZM20.5675 16.3729H22.219L24.0129 18.722L25.821 16.3729H27.4726L24.8387 19.7898L27.6719 23.4915H26.0346L24.0129 20.8719L22.0054 23.4915H20.3682L23.2014 19.7898L20.5675 16.3729Z" fill="#181717"/>
<path d="M43.903 16.2305C44.4156 16.2305 44.8901 16.3254 45.3267 16.5152C45.7728 16.6956 46.1525 16.9519 46.4657 17.2841C46.7884 17.6068 47.0352 17.9959 47.2061 18.4515C47.3864 18.8976 47.4766 19.3912 47.4766 19.9322V20.4447H43.0203V19.3058H46.0813C45.9674 18.7458 45.7206 18.2949 45.341 17.9532C44.9518 17.6115 44.4725 17.4407 43.903 17.4407C43.5613 17.4407 43.2528 17.5024 42.9776 17.6258C42.7118 17.7491 42.484 17.92 42.2942 18.1383C42.0949 18.3566 41.943 18.6129 41.8386 18.9071C41.7342 19.2013 41.682 19.5241 41.682 19.8752C41.682 20.2454 41.7437 20.5824 41.8671 20.8861C41.981 21.1993 42.1471 21.4698 42.3654 21.6976C42.5837 21.9159 42.84 22.0915 43.1342 22.2244C43.4284 22.3478 43.7512 22.4095 44.1023 22.4095C44.3966 22.4095 44.6576 22.3715 44.8854 22.2956C45.1132 22.2102 45.3078 22.1152 45.4691 22.0108C45.64 21.9064 45.7776 21.7973 45.882 21.6834C45.9959 21.5695 46.0813 21.4793 46.1383 21.4129L47.1349 22.139C46.8976 22.4332 46.6603 22.6752 46.423 22.8651C46.1857 23.0549 45.9437 23.2068 45.6969 23.3207C45.4501 23.4346 45.1939 23.5152 44.9281 23.5627C44.6528 23.6102 44.3586 23.6339 44.0454 23.6339C43.5139 23.6339 43.0203 23.5437 42.5647 23.3634C42.1091 23.1735 41.7152 22.9125 41.383 22.5803C41.0508 22.2481 40.7898 21.8542 40.6 21.3986C40.4101 20.943 40.3152 20.4447 40.3152 19.9037C40.3152 19.3722 40.4054 18.8834 40.5857 18.4373C40.7661 17.9912 41.0128 17.602 41.3261 17.2698C41.6488 16.9471 42.0284 16.6908 42.465 16.501C42.9017 16.3207 43.381 16.2305 43.903 16.2305ZM52.2174 16.2305C52.7299 16.2305 53.2045 16.3254 53.6411 16.5152C54.0872 16.6956 54.4669 16.9519 54.7801 17.2841C55.1028 17.6068 55.3496 17.9959 55.5204 18.4515C55.7008 18.8976 55.7909 19.3912 55.7909 19.9322V20.4447H51.3347V19.3058H54.3957C54.2818 18.7458 54.035 18.2949 53.6553 17.9532C53.2662 17.6115 52.7869 17.4407 52.2174 17.4407C51.8757 17.4407 51.5672 17.5024 51.2919 17.6258C51.0262 17.7491 50.7984 17.92 50.6086 18.1383C50.4092 18.3566 50.2574 18.6129 50.153 18.9071C50.0486 19.2013 49.9964 19.5241 49.9964 19.8752C49.9964 20.2454 50.058 20.5824 50.1814 20.8861C50.2953 21.1993 50.4614 21.4698 50.6797 21.6976C50.898 21.9159 51.1543 22.0915 51.4486 22.2244C51.7428 22.3478 52.0655 22.4095 52.4167 22.4095C52.7109 22.4095 52.9719 22.3715 53.1997 22.2956C53.4275 22.2102 53.6221 22.1152 53.7835 22.0108C53.9543 21.9064 54.0919 21.7973 54.1964 21.6834C54.3103 21.5695 54.3957 21.4793 54.4526 21.4129L55.4492 22.139C55.2119 22.4332 54.9747 22.6752 54.7374 22.8651C54.5001 23.0549 54.258 23.2068 54.0113 23.3207C53.7645 23.4346 53.5082 23.5152 53.2425 23.5627C52.9672 23.6102 52.673 23.6339 52.3597 23.6339C51.8282 23.6339 51.3347 23.5437 50.8791 23.3634C50.4235 23.1735 50.0296 22.9125 49.6974 22.5803C49.3652 22.2481 49.1041 21.8542 48.9143 21.3986C48.7245 20.943 48.6296 20.4447 48.6296 19.9037C48.6296 19.3722 48.7197 18.8834 48.9001 18.4373C49.0804 17.9912 49.3272 17.602 49.6404 17.2698C49.9631 16.9471 50.3428 16.6908 50.7794 16.501C51.216 16.3207 51.6953 16.2305 52.2174 16.2305ZM58.6382 12.9559V19.8183L61.8273 16.3729H63.4788L60.8165 19.2346L63.8205 23.4915H62.1548L59.8768 20.2597L58.6382 21.5837V23.4915H57.2999V12.9559H58.6382Z" fill="#181717"/>
</svg>
