<svg width="150" height="131" viewBox="0 0 150 131" fill="none" xmlns="http://www.w3.org/2000/svg">
<path d="M30.2464 27.4622C27.3961 31.2779 22.4368 33.549 16.9555 33.549C8.57172 33.549 1.56608 27.6668 -4.8446e-06 19.9023L-8.34443e-07 111.644C1.56609 103.869 8.58217 97.9974 16.9868 97.9974C22.416 97.9974 27.4483 100.371 30.4552 104.35C43.4642 121.618 64.2827 131.459 86.1453 130.692C120.777 129.475 149.426 100.841 150 66.878C150 66.5097 150 66.1312 150 65.7629C150 48.6074 143.266 32.4748 130.967 20.2297C118.407 7.71849 101.618 0.813304 83.7022 0.813305C62.6749 0.813306 42.6916 10.7772 30.236 27.4622L30.2464 27.4622Z" fill="#051229"/>
</svg>
