<svg width="435" height="428" viewBox="0 0 435 428" fill="none" xmlns="http://www.w3.org/2000/svg">
<path fill-rule="evenodd" clip-rule="evenodd" d="M373.387 61.5254C291.694 -20.1674 159.244 -20.1674 77.5508 61.5254C2.67865 136.398 -3.57253 253.905 58.7973 335.897C59.0565 338.921 58.0105 342.062 55.6695 344.403C53.3068 346.766 50.0832 347.922 47.0418 347.498C33.8609 345.64 20.5154 350.415 11.3351 360.263C-3.20611 375.864 -3.20523 400.801 11.3344 415.84L11.82 416.326C19.2905 423.796 29.2462 427.891 39.9309 427.871C50.845 427.853 61.1581 423.553 68.955 415.757C78.106 406.606 82.4636 393.57 80.6187 380.884L80.6141 380.889C80.1929 377.987 81.3622 374.839 83.7477 372.454C85.6501 370.551 88.0859 369.509 90.5575 369.329C172.747 438.838 295.9 434.848 373.387 357.361C455.079 275.668 455.079 143.218 373.387 61.5254Z" fill="black"/>
</svg>
