<svg width="180" height="180" viewBox="0 0 180 180" fill="none" xmlns="http://www.w3.org/2000/svg">
<mask id="mask0_4001_179" style="mask-type:alpha" maskUnits="userSpaceOnUse" x="0" y="0" width="180" height="180">
<path d="M90 0C139.706 0 180 40.2944 180 90C180 139.706 139.706 180 90 180C40.2944 180 0 139.706 0 90C0 40.2944 40.2944 0 90 0ZM90 50C67.9086 50 50 67.9086 50 90C50 112.091 67.9086 130 90 130C112.091 130 130 112.091 130 90C130 67.9086 112.091 50 90 50Z" fill="#D9D9D9"/>
</mask>
<g mask="url(#mask0_4001_179)">
<g opacity="0.7">
<path d="M9.10425 1.35193C9.10425 2.09858 8.49897 2.70386 7.75232 2.70386C7.00567 2.70386 6.40039 2.09858 6.40039 1.35193C6.40039 0.60528 7.00567 0 7.75232 0C8.49897 0 9.10425 0.60528 9.10425 1.35193Z" fill="#0075FF"/>
<path d="M40.3918 1.35193C40.3918 2.09858 39.7865 2.70386 39.0399 2.70386C38.2932 2.70386 37.6879 2.09858 37.6879 1.35193C37.6879 0.60528 38.2932 0 39.0399 0C39.7865 0 40.3918 0.60528 40.3918 1.35193Z" fill="#0075FF"/>
<path d="M40.3918 11.7811C40.3918 12.5278 39.7865 13.133 39.0399 13.133C38.2932 13.133 37.6879 12.5278 37.6879 11.7811C37.6879 11.0345 38.2932 10.4292 39.0399 10.4292C39.7865 10.4292 40.3918 11.0345 40.3918 11.7811Z" fill="#0075FF"/>
<path d="M40.3918 22.2103C40.3918 22.957 39.7865 23.5622 39.0399 23.5622C38.2932 23.5622 37.6879 22.957 37.6879 22.2103C37.6879 21.4636 38.2932 20.8584 39.0399 20.8584C39.7865 20.8584 40.3918 21.4636 40.3918 22.2103Z" fill="#0075FF"/>
<path d="M40.3918 32.6395C40.3918 33.3861 39.7865 33.9914 39.0399 33.9914C38.2932 33.9914 37.6879 33.3861 37.6879 32.6395C37.6879 31.8928 38.2932 31.2876 39.0399 31.2876C39.7865 31.2876 40.3918 31.8928 40.3918 32.6395Z" fill="#0075FF"/>
<path d="M71.6794 1.35193C71.6794 2.09858 71.0741 2.70386 70.3274 2.70386C69.5808 2.70386 68.9755 2.09858 68.9755 1.35193C68.9755 0.60528 69.5808 0 70.3274 0C71.0741 0 71.6794 0.60528 71.6794 1.35193Z" fill="#0075FF"/>
<path d="M71.6794 11.7811C71.6794 12.5278 71.0741 13.133 70.3274 13.133C69.5808 13.133 68.9755 12.5278 68.9755 11.7811C68.9755 11.0345 69.5808 10.4292 70.3274 10.4292C71.0741 10.4292 71.6794 11.0345 71.6794 11.7811Z" fill="#0075FF"/>
<path d="M71.6794 22.2103C71.6794 22.957 71.0741 23.5622 70.3274 23.5622C69.5808 23.5622 68.9755 22.957 68.9755 22.2103C68.9755 21.4636 69.5808 20.8584 70.3274 20.8584C71.0741 20.8584 71.6794 21.4636 71.6794 22.2103Z" fill="#0075FF"/>
<path d="M71.6794 32.6395C71.6794 33.3861 71.0741 33.9914 70.3274 33.9914C69.5808 33.9914 68.9755 33.3861 68.9755 32.6395C68.9755 31.8928 69.5808 31.2876 70.3274 31.2876C71.0741 31.2876 71.6794 31.8928 71.6794 32.6395Z" fill="#0075FF"/>
<path d="M71.6794 43.0687C71.6794 43.8153 71.0741 44.4206 70.3274 44.4206C69.5808 44.4206 68.9755 43.8153 68.9755 43.0687C68.9755 42.322 69.5808 41.7167 70.3274 41.7167C71.0741 41.7167 71.6794 42.322 71.6794 43.0687Z" fill="#0075FF"/>
<path d="M71.6794 53.4979C71.6794 54.2445 71.0741 54.8498 70.3274 54.8498C69.5808 54.8498 68.9755 54.2445 68.9755 53.4979C68.9755 52.7512 69.5808 52.1459 70.3274 52.1459C71.0741 52.1459 71.6794 52.7512 71.6794 53.4979Z" fill="#0075FF"/>
<path d="M71.6794 63.927C71.6794 64.6737 71.0741 65.279 70.3274 65.279C69.5808 65.279 68.9755 64.6737 68.9755 63.927C68.9755 63.1804 69.5808 62.5751 70.3274 62.5751C71.0741 62.5751 71.6794 63.1804 71.6794 63.927Z" fill="#0075FF"/>
<path d="M19.5334 1.35193C19.5334 2.09858 18.9282 2.70386 18.1815 2.70386C17.4349 2.70386 16.8296 2.09858 16.8296 1.35193C16.8296 0.60528 17.4349 0 18.1815 0C18.9282 0 19.5334 0.60528 19.5334 1.35193Z" fill="#0075FF"/>
<path d="M19.5334 11.7811C19.5334 12.5278 18.9282 13.133 18.1815 13.133C17.4349 13.133 16.8296 12.5278 16.8296 11.7811C16.8296 11.0345 17.4349 10.4292 18.1815 10.4292C18.9282 10.4292 19.5334 11.0345 19.5334 11.7811Z" fill="#0075FF"/>
<path d="M50.821 1.35193C50.821 2.09858 50.2157 2.70386 49.4691 2.70386C48.7224 2.70386 48.1171 2.09858 48.1171 1.35193C48.1171 0.60528 48.7224 0 49.4691 0C50.2157 0 50.821 0.60528 50.821 1.35193Z" fill="#0075FF"/>
<path d="M50.821 11.7811C50.821 12.5278 50.2157 13.133 49.4691 13.133C48.7224 13.133 48.1171 12.5278 48.1171 11.7811C48.1171 11.0345 48.7224 10.4292 49.4691 10.4292C50.2157 10.4292 50.821 11.0345 50.821 11.7811Z" fill="#0075FF"/>
<path d="M50.821 22.2103C50.821 22.957 50.2157 23.5622 49.4691 23.5622C48.7224 23.5622 48.1171 22.957 48.1171 22.2103C48.1171 21.4636 48.7224 20.8584 49.4691 20.8584C50.2157 20.8584 50.821 21.4636 50.821 22.2103Z" fill="#0075FF"/>
<path d="M50.821 32.6395C50.821 33.3861 50.2157 33.9914 49.4691 33.9914C48.7224 33.9914 48.1171 33.3861 48.1171 32.6395C48.1171 31.8928 48.7224 31.2876 49.4691 31.2876C50.2157 31.2876 50.821 31.8928 50.821 32.6395Z" fill="#0075FF"/>
<path d="M50.821 43.0687C50.821 43.8153 50.2157 44.4206 49.4691 44.4206C48.7224 44.4206 48.1171 43.8153 48.1171 43.0687C48.1171 42.322 48.7224 41.7167 49.4691 41.7167C50.2157 41.7167 50.821 42.322 50.821 43.0687Z" fill="#0075FF"/>
<path d="M82.1085 1.35193C82.1085 2.09858 81.5033 2.70386 80.7566 2.70386C80.01 2.70386 79.4047 2.09858 79.4047 1.35193C79.4047 0.60528 80.01 0 80.7566 0C81.5033 0 82.1085 0.60528 82.1085 1.35193Z" fill="#0075FF"/>
<path d="M82.1085 11.7811C82.1085 12.5278 81.5033 13.133 80.7566 13.133C80.01 13.133 79.4047 12.5278 79.4047 11.7811C79.4047 11.0345 80.01 10.4292 80.7566 10.4292C81.5033 10.4292 82.1085 11.0345 82.1085 11.7811Z" fill="#0075FF"/>
<path d="M82.1085 22.2103C82.1085 22.957 81.5033 23.5622 80.7566 23.5622C80.01 23.5622 79.4047 22.957 79.4047 22.2103C79.4047 21.4636 80.01 20.8584 80.7566 20.8584C81.5033 20.8584 82.1085 21.4636 82.1085 22.2103Z" fill="#0075FF"/>
<path d="M82.1085 32.6395C82.1085 33.3861 81.5033 33.9914 80.7566 33.9914C80.01 33.9914 79.4047 33.3861 79.4047 32.6395C79.4047 31.8928 80.01 31.2876 80.7566 31.2876C81.5033 31.2876 82.1085 31.8928 82.1085 32.6395Z" fill="#0075FF"/>
<path d="M82.1085 43.0687C82.1085 43.8153 81.5033 44.4206 80.7566 44.4206C80.01 44.4206 79.4047 43.8153 79.4047 43.0687C79.4047 42.322 80.01 41.7167 80.7566 41.7167C81.5033 41.7167 82.1085 42.322 82.1085 43.0687Z" fill="#0075FF"/>
<path d="M82.1085 53.4979C82.1085 54.2445 81.5033 54.8498 80.7566 54.8498C80.01 54.8498 79.4047 54.2445 79.4047 53.4979C79.4047 52.7512 80.01 52.1459 80.7566 52.1459C81.5033 52.1459 82.1085 52.7512 82.1085 53.4979Z" fill="#0075FF"/>
<path d="M82.1085 63.927C82.1085 64.6737 81.5033 65.279 80.7566 65.279C80.01 65.279 79.4047 64.6737 79.4047 63.927C79.4047 63.1804 80.01 62.5751 80.7566 62.5751C81.5033 62.5751 82.1085 63.1804 82.1085 63.927Z" fill="#0075FF"/>
<path d="M82.1085 74.3562C82.1085 75.1029 81.5033 75.7082 80.7566 75.7082C80.01 75.7082 79.4047 75.1029 79.4047 74.3562C79.4047 73.6096 80.01 73.0043 80.7566 73.0043C81.5033 73.0043 82.1085 73.6096 82.1085 74.3562Z" fill="#0075FF"/>
<path d="M29.9626 1.35193C29.9626 2.09858 29.3573 2.70386 28.6107 2.70386C27.864 2.70386 27.2588 2.09858 27.2588 1.35193C27.2588 0.60528 27.864 0 28.6107 0C29.3573 0 29.9626 0.60528 29.9626 1.35193Z" fill="#0075FF"/>
<path d="M29.9626 11.7811C29.9626 12.5278 29.3573 13.133 28.6107 13.133C27.864 13.133 27.2588 12.5278 27.2588 11.7811C27.2588 11.0345 27.864 10.4292 28.6107 10.4292C29.3573 10.4292 29.9626 11.0345 29.9626 11.7811Z" fill="#0075FF"/>
<path d="M29.9626 22.2103C29.9626 22.957 29.3573 23.5622 28.6107 23.5622C27.864 23.5622 27.2588 22.957 27.2588 22.2103C27.2588 21.4636 27.864 20.8584 28.6107 20.8584C29.3573 20.8584 29.9626 21.4636 29.9626 22.2103Z" fill="#0075FF"/>
<path d="M61.2502 1.35193C61.2502 2.09858 60.6449 2.70386 59.8982 2.70386C59.1516 2.70386 58.5463 2.09858 58.5463 1.35193C58.5463 0.60528 59.1516 0 59.8982 0C60.6449 0 61.2502 0.60528 61.2502 1.35193Z" fill="#0075FF"/>
<path d="M61.2502 11.7811C61.2502 12.5278 60.6449 13.133 59.8982 13.133C59.1516 13.133 58.5463 12.5278 58.5463 11.7811C58.5463 11.0345 59.1516 10.4292 59.8982 10.4292C60.6449 10.4292 61.2502 11.0345 61.2502 11.7811Z" fill="#0075FF"/>
<path d="M61.2502 22.2103C61.2502 22.957 60.6449 23.5622 59.8982 23.5622C59.1516 23.5622 58.5463 22.957 58.5463 22.2103C58.5463 21.4636 59.1516 20.8584 59.8982 20.8584C60.6449 20.8584 61.2502 21.4636 61.2502 22.2103Z" fill="#0075FF"/>
<path d="M61.2502 32.6395C61.2502 33.3861 60.6449 33.9914 59.8982 33.9914C59.1516 33.9914 58.5463 33.3861 58.5463 32.6395C58.5463 31.8928 59.1516 31.2876 59.8982 31.2876C60.6449 31.2876 61.2502 31.8928 61.2502 32.6395Z" fill="#0075FF"/>
<path d="M61.2502 43.0687C61.2502 43.8153 60.6449 44.4206 59.8982 44.4206C59.1516 44.4206 58.5463 43.8153 58.5463 43.0687C58.5463 42.322 59.1516 41.7167 59.8982 41.7167C60.6449 41.7167 61.2502 42.322 61.2502 43.0687Z" fill="#0075FF"/>
<path d="M61.2502 53.4979C61.2502 54.2445 60.6449 54.8498 59.8982 54.8498C59.1516 54.8498 58.5463 54.2445 58.5463 53.4979C58.5463 52.7512 59.1516 52.1459 59.8982 52.1459C60.6449 52.1459 61.2502 52.7512 61.2502 53.4979Z" fill="#0075FF"/>
<path d="M92.5377 1.35193C92.5377 2.09858 91.9325 2.70386 91.1858 2.70386C90.4392 2.70386 89.8339 2.09858 89.8339 1.35193C89.8339 0.60528 90.4392 0 91.1858 0C91.9325 0 92.5377 0.60528 92.5377 1.35193Z" fill="#0075FF"/>
<path d="M92.5377 11.7811C92.5377 12.5278 91.9325 13.133 91.1858 13.133C90.4392 13.133 89.8339 12.5278 89.8339 11.7811C89.8339 11.0345 90.4392 10.4292 91.1858 10.4292C91.9325 10.4292 92.5377 11.0345 92.5377 11.7811Z" fill="#0075FF"/>
<path d="M92.5377 22.2103C92.5377 22.957 91.9325 23.5622 91.1858 23.5622C90.4392 23.5622 89.8339 22.957 89.8339 22.2103C89.8339 21.4636 90.4392 20.8584 91.1858 20.8584C91.9325 20.8584 92.5377 21.4636 92.5377 22.2103Z" fill="#0075FF"/>
<path d="M92.5377 32.6395C92.5377 33.3861 91.9325 33.9914 91.1858 33.9914C90.4392 33.9914 89.8339 33.3861 89.8339 32.6395C89.8339 31.8928 90.4392 31.2876 91.1858 31.2876C91.9325 31.2876 92.5377 31.8928 92.5377 32.6395Z" fill="#0075FF"/>
<path d="M92.5377 43.0687C92.5377 43.8153 91.9325 44.4206 91.1858 44.4206C90.4392 44.4206 89.8339 43.8153 89.8339 43.0687C89.8339 42.322 90.4392 41.7167 91.1858 41.7167C91.9325 41.7167 92.5377 42.322 92.5377 43.0687Z" fill="#0075FF"/>
<path d="M92.5377 53.4979C92.5377 54.2445 91.9325 54.8498 91.1858 54.8498C90.4392 54.8498 89.8339 54.2445 89.8339 53.4979C89.8339 52.7512 90.4392 52.1459 91.1858 52.1459C91.9325 52.1459 92.5377 52.7512 92.5377 53.4979Z" fill="#0075FF"/>
<path d="M92.5377 63.927C92.5377 64.6737 91.9325 65.279 91.1858 65.279C90.4392 65.279 89.8339 64.6737 89.8339 63.927C89.8339 63.1804 90.4392 62.5751 91.1858 62.5751C91.9325 62.5751 92.5377 63.1804 92.5377 63.927Z" fill="#0075FF"/>
<path d="M92.5377 84.7854C92.5377 85.5321 91.9325 86.1373 91.1858 86.1373C90.4392 86.1373 89.8339 85.5321 89.8339 84.7854C89.8339 84.0387 90.4392 83.4335 91.1858 83.4335C91.9325 83.4335 92.5377 84.0387 92.5377 84.7854Z" fill="#0075FF"/>
<path d="M92.5377 74.3562C92.5377 75.1029 91.9325 75.7082 91.1858 75.7082C90.4392 75.7082 89.8339 75.1029 89.8339 74.3562C89.8339 73.6096 90.4392 73.0043 91.1858 73.0043C91.9325 73.0043 92.5377 73.6096 92.5377 74.3562Z" fill="#0075FF"/>
<path d="M101.615 2.70386C102.362 2.70386 102.967 2.09858 102.967 1.35193C102.967 0.60528 102.362 0 101.615 0C100.868 0 100.263 0.60528 100.263 1.35193C100.263 2.09858 100.868 2.70386 101.615 2.70386Z" fill="#0075FF"/>
<path d="M101.615 13.133C102.362 13.133 102.967 12.5278 102.967 11.7811C102.967 11.0345 102.362 10.4292 101.615 10.4292C100.868 10.4292 100.263 11.0345 100.263 11.7811C100.263 12.5278 100.868 13.133 101.615 13.133Z" fill="#0075FF"/>
<path d="M101.615 23.5622C102.362 23.5622 102.967 22.957 102.967 22.2103C102.967 21.4636 102.362 20.8584 101.615 20.8584C100.868 20.8584 100.263 21.4636 100.263 22.2103C100.263 22.957 100.868 23.5622 101.615 23.5622Z" fill="#0075FF"/>
<path d="M101.615 33.9914C102.362 33.9914 102.967 33.3861 102.967 32.6395C102.967 31.8928 102.362 31.2876 101.615 31.2876C100.868 31.2876 100.263 31.8928 100.263 32.6395C100.263 33.3861 100.868 33.9914 101.615 33.9914Z" fill="#0075FF"/>
<path d="M101.615 44.4206C102.362 44.4206 102.967 43.8153 102.967 43.0687C102.967 42.322 102.362 41.7167 101.615 41.7167C100.868 41.7167 100.263 42.322 100.263 43.0687C100.263 43.8153 100.868 44.4206 101.615 44.4206Z" fill="#0075FF"/>
<path d="M101.615 54.8498C102.362 54.8498 102.967 54.2445 102.967 53.4979C102.967 52.7512 102.362 52.1459 101.615 52.1459C100.868 52.1459 100.263 52.7512 100.263 53.4979C100.263 54.2445 100.868 54.8498 101.615 54.8498Z" fill="#0075FF"/>
<path d="M101.615 65.279C102.362 65.279 102.967 64.6737 102.967 63.927C102.967 63.1804 102.362 62.5751 101.615 62.5751C100.868 62.5751 100.263 63.1804 100.263 63.927C100.263 64.6737 100.868 65.279 101.615 65.279Z" fill="#0075FF"/>
<path d="M101.615 86.1373C102.362 86.1373 102.967 85.5321 102.967 84.7854C102.967 84.0387 102.362 83.4335 101.615 83.4335C100.868 83.4335 100.263 84.0387 100.263 84.7854C100.263 85.5321 100.868 86.1373 101.615 86.1373Z" fill="#0075FF"/>
<path d="M101.615 75.7082C102.362 75.7082 102.967 75.1029 102.967 74.3562C102.967 73.6096 102.362 73.0043 101.615 73.0043C100.868 73.0043 100.263 73.6096 100.263 74.3562C100.263 75.1029 100.868 75.7082 101.615 75.7082Z" fill="#0075FF"/>
<path d="M101.615 96.5665C102.362 96.5665 102.967 95.9612 102.967 95.2146C102.967 94.4679 102.362 93.8627 101.615 93.8627C100.868 93.8627 100.263 94.4679 100.263 95.2146C100.263 95.9612 100.868 96.5665 101.615 96.5665Z" fill="#0075FF"/>
<path d="M132.903 2.70386C133.649 2.70386 134.254 2.09858 134.254 1.35193C134.254 0.60528 133.649 0 132.903 0C132.156 0 131.551 0.60528 131.551 1.35193C131.551 2.09858 132.156 2.70386 132.903 2.70386Z" fill="#0075FF"/>
<path d="M132.903 13.133C133.649 13.133 134.254 12.5278 134.254 11.7811C134.254 11.0345 133.649 10.4292 132.903 10.4292C132.156 10.4292 131.551 11.0345 131.551 11.7811C131.551 12.5278 132.156 13.133 132.903 13.133Z" fill="#0075FF"/>
<path d="M132.903 23.5622C133.649 23.5622 134.254 22.957 134.254 22.2103C134.254 21.4636 133.649 20.8584 132.903 20.8584C132.156 20.8584 131.551 21.4636 131.551 22.2103C131.551 22.957 132.156 23.5622 132.903 23.5622Z" fill="#0075FF"/>
<path d="M132.903 33.9914C133.649 33.9914 134.254 33.3861 134.254 32.6395C134.254 31.8928 133.649 31.2876 132.903 31.2876C132.156 31.2876 131.551 31.8928 131.551 32.6395C131.551 33.3861 132.156 33.9914 132.903 33.9914Z" fill="#0075FF"/>
<path d="M132.903 44.4206C133.649 44.4206 134.254 43.8153 134.254 43.0687C134.254 42.322 133.649 41.7167 132.903 41.7167C132.156 41.7167 131.551 42.322 131.551 43.0687C131.551 43.8153 132.156 44.4206 132.903 44.4206Z" fill="#0075FF"/>
<path d="M132.903 54.8498C133.649 54.8498 134.254 54.2445 134.254 53.4979C134.254 52.7512 133.649 52.1459 132.903 52.1459C132.156 52.1459 131.551 52.7512 131.551 53.4979C131.551 54.2445 132.156 54.8498 132.903 54.8498Z" fill="#0075FF"/>
<path d="M132.903 65.279C133.649 65.279 134.254 64.6737 134.254 63.927C134.254 63.1804 133.649 62.5751 132.903 62.5751C132.156 62.5751 131.551 63.1804 131.551 63.927C131.551 64.6737 132.156 65.279 132.903 65.279Z" fill="#0075FF"/>
<path d="M132.903 86.1373C133.649 86.1373 134.254 85.5321 134.254 84.7854C134.254 84.0387 133.649 83.4335 132.903 83.4335C132.156 83.4335 131.551 84.0387 131.551 84.7854C131.551 85.5321 132.156 86.1373 132.903 86.1373Z" fill="#0075FF"/>
<path d="M132.903 75.7082C133.649 75.7082 134.254 75.1029 134.254 74.3562C134.254 73.6096 133.649 73.0043 132.903 73.0043C132.156 73.0043 131.551 73.6096 131.551 74.3562C131.551 75.1029 132.156 75.7082 132.903 75.7082Z" fill="#0075FF"/>
<path d="M132.903 96.5665C133.649 96.5665 134.254 95.9612 134.254 95.2146C134.254 94.4679 133.649 93.8627 132.903 93.8627C132.156 93.8627 131.551 94.4679 131.551 95.2146C131.551 95.9612 132.156 96.5665 132.903 96.5665Z" fill="#0075FF"/>
<path d="M164.19 2.70386C164.937 2.70386 165.542 2.09858 165.542 1.35193C165.542 0.60528 164.937 0 164.19 0C163.443 0 162.838 0.60528 162.838 1.35193C162.838 2.09858 163.443 2.70386 164.19 2.70386Z" fill="#0075FF"/>
<path d="M164.19 13.133C164.937 13.133 165.542 12.5278 165.542 11.7811C165.542 11.0345 164.937 10.4292 164.19 10.4292C163.443 10.4292 162.838 11.0345 162.838 11.7811C162.838 12.5278 163.443 13.133 164.19 13.133Z" fill="#0075FF"/>
<path d="M164.19 23.5622C164.937 23.5622 165.542 22.957 165.542 22.2103C165.542 21.4636 164.937 20.8584 164.19 20.8584C163.443 20.8584 162.838 21.4636 162.838 22.2103C162.838 22.957 163.443 23.5622 164.19 23.5622Z" fill="#0075FF"/>
<path d="M164.19 33.9914C164.937 33.9914 165.542 33.3861 165.542 32.6395C165.542 31.8928 164.937 31.2876 164.19 31.2876C163.443 31.2876 162.838 31.8928 162.838 32.6395C162.838 33.3861 163.443 33.9914 164.19 33.9914Z" fill="#0075FF"/>
<path d="M164.19 44.4206C164.937 44.4206 165.542 43.8153 165.542 43.0687C165.542 42.322 164.937 41.7167 164.19 41.7167C163.443 41.7167 162.838 42.322 162.838 43.0687C162.838 43.8153 163.443 44.4206 164.19 44.4206Z" fill="#0075FF"/>
<path d="M164.19 54.8498C164.937 54.8498 165.542 54.2445 165.542 53.4979C165.542 52.7512 164.937 52.1459 164.19 52.1459C163.443 52.1459 162.838 52.7512 162.838 53.4979C162.838 54.2445 163.443 54.8498 164.19 54.8498Z" fill="#0075FF"/>
<path d="M164.19 65.279C164.937 65.279 165.542 64.6737 165.542 63.927C165.542 63.1804 164.937 62.5751 164.19 62.5751C163.443 62.5751 162.838 63.1804 162.838 63.927C162.838 64.6737 163.443 65.279 164.19 65.279Z" fill="#0075FF"/>
<path d="M164.19 86.1373C164.937 86.1373 165.542 85.5321 165.542 84.7854C165.542 84.0387 164.937 83.4335 164.19 83.4335C163.443 83.4335 162.838 84.0387 162.838 84.7854C162.838 85.5321 163.443 86.1373 164.19 86.1373Z" fill="#0075FF"/>
<path d="M164.19 75.7082C164.937 75.7082 165.542 75.1029 165.542 74.3562C165.542 73.6096 164.937 73.0043 164.19 73.0043C163.443 73.0043 162.838 73.6096 162.838 74.3562C162.838 75.1029 163.443 75.7082 164.19 75.7082Z" fill="#0075FF"/>
<path d="M164.19 96.5665C164.937 96.5665 165.542 95.9612 165.542 95.2146C165.542 94.4679 164.937 93.8627 164.19 93.8627C163.443 93.8627 162.838 94.4679 162.838 95.2146C162.838 95.9612 163.443 96.5665 164.19 96.5665Z" fill="#0075FF"/>
<path d="M112.044 2.70386C112.791 2.70386 113.396 2.09858 113.396 1.35193C113.396 0.60528 112.791 0 112.044 0C111.298 0 110.692 0.60528 110.692 1.35193C110.692 2.09858 111.298 2.70386 112.044 2.70386Z" fill="#0075FF"/>
<path d="M112.044 13.133C112.791 13.133 113.396 12.5278 113.396 11.7811C113.396 11.0345 112.791 10.4292 112.044 10.4292C111.298 10.4292 110.692 11.0345 110.692 11.7811C110.692 12.5278 111.298 13.133 112.044 13.133Z" fill="#0075FF"/>
<path d="M112.044 23.5622C112.791 23.5622 113.396 22.957 113.396 22.2103C113.396 21.4636 112.791 20.8584 112.044 20.8584C111.298 20.8584 110.692 21.4636 110.692 22.2103C110.692 22.957 111.298 23.5622 112.044 23.5622Z" fill="#0075FF"/>
<path d="M112.044 33.9914C112.791 33.9914 113.396 33.3861 113.396 32.6395C113.396 31.8928 112.791 31.2876 112.044 31.2876C111.298 31.2876 110.692 31.8928 110.692 32.6395C110.692 33.3861 111.298 33.9914 112.044 33.9914Z" fill="#0075FF"/>
<path d="M112.044 44.4206C112.791 44.4206 113.396 43.8153 113.396 43.0687C113.396 42.322 112.791 41.7167 112.044 41.7167C111.298 41.7167 110.692 42.322 110.692 43.0687C110.692 43.8153 111.298 44.4206 112.044 44.4206Z" fill="#0075FF"/>
<path d="M112.044 54.8498C112.791 54.8498 113.396 54.2445 113.396 53.4979C113.396 52.7512 112.791 52.1459 112.044 52.1459C111.298 52.1459 110.692 52.7512 110.692 53.4979C110.692 54.2445 111.298 54.8498 112.044 54.8498Z" fill="#0075FF"/>
<path d="M112.044 65.279C112.791 65.279 113.396 64.6737 113.396 63.927C113.396 63.1804 112.791 62.5751 112.044 62.5751C111.298 62.5751 110.692 63.1804 110.692 63.927C110.692 64.6737 111.298 65.279 112.044 65.279Z" fill="#0075FF"/>
<path d="M112.044 86.1373C112.791 86.1373 113.396 85.5321 113.396 84.7854C113.396 84.0387 112.791 83.4335 112.044 83.4335C111.298 83.4335 110.692 84.0387 110.692 84.7854C110.692 85.5321 111.298 86.1373 112.044 86.1373Z" fill="#0075FF"/>
<path d="M112.044 75.7082C112.791 75.7082 113.396 75.1029 113.396 74.3562C113.396 73.6096 112.791 73.0043 112.044 73.0043C111.298 73.0043 110.692 73.6096 110.692 74.3562C110.692 75.1029 111.298 75.7082 112.044 75.7082Z" fill="#0075FF"/>
<path d="M112.044 96.5665C112.791 96.5665 113.396 95.9612 113.396 95.2146C113.396 94.4679 112.791 93.8627 112.044 93.8627C111.298 93.8627 110.692 94.4679 110.692 95.2146C110.692 95.9612 111.298 96.5665 112.044 96.5665Z" fill="#0075FF"/>
<path d="M143.332 2.70386C144.078 2.70386 144.684 2.09858 144.684 1.35193C144.684 0.60528 144.078 0 143.332 0C142.585 0 141.98 0.60528 141.98 1.35193C141.98 2.09858 142.585 2.70386 143.332 2.70386Z" fill="#0075FF"/>
<path d="M143.332 13.133C144.078 13.133 144.684 12.5278 144.684 11.7811C144.684 11.0345 144.078 10.4292 143.332 10.4292C142.585 10.4292 141.98 11.0345 141.98 11.7811C141.98 12.5278 142.585 13.133 143.332 13.133Z" fill="#0075FF"/>
<path d="M143.332 23.5622C144.078 23.5622 144.684 22.957 144.684 22.2103C144.684 21.4636 144.078 20.8584 143.332 20.8584C142.585 20.8584 141.98 21.4636 141.98 22.2103C141.98 22.957 142.585 23.5622 143.332 23.5622Z" fill="#0075FF"/>
<path d="M143.332 33.9914C144.078 33.9914 144.684 33.3861 144.684 32.6395C144.684 31.8928 144.078 31.2876 143.332 31.2876C142.585 31.2876 141.98 31.8928 141.98 32.6395C141.98 33.3861 142.585 33.9914 143.332 33.9914Z" fill="#0075FF"/>
<path d="M143.332 44.4206C144.078 44.4206 144.684 43.8153 144.684 43.0687C144.684 42.322 144.078 41.7167 143.332 41.7167C142.585 41.7167 141.98 42.322 141.98 43.0687C141.98 43.8153 142.585 44.4206 143.332 44.4206Z" fill="#0075FF"/>
<path d="M143.332 54.8498C144.078 54.8498 144.684 54.2445 144.684 53.4979C144.684 52.7512 144.078 52.1459 143.332 52.1459C142.585 52.1459 141.98 52.7512 141.98 53.4979C141.98 54.2445 142.585 54.8498 143.332 54.8498Z" fill="#0075FF"/>
<path d="M143.332 65.279C144.078 65.279 144.684 64.6737 144.684 63.927C144.684 63.1804 144.078 62.5751 143.332 62.5751C142.585 62.5751 141.98 63.1804 141.98 63.927C141.98 64.6737 142.585 65.279 143.332 65.279Z" fill="#0075FF"/>
<path d="M143.332 86.1373C144.078 86.1373 144.684 85.5321 144.684 84.7854C144.684 84.0387 144.078 83.4335 143.332 83.4335C142.585 83.4335 141.98 84.0387 141.98 84.7854C141.98 85.5321 142.585 86.1373 143.332 86.1373Z" fill="#0075FF"/>
<path d="M143.332 75.7082C144.078 75.7082 144.684 75.1029 144.684 74.3562C144.684 73.6096 144.078 73.0043 143.332 73.0043C142.585 73.0043 141.98 73.6096 141.98 74.3562C141.98 75.1029 142.585 75.7082 143.332 75.7082Z" fill="#0075FF"/>
<path d="M143.332 96.5665C144.078 96.5665 144.684 95.9612 144.684 95.2146C144.684 94.4679 144.078 93.8627 143.332 93.8627C142.585 93.8627 141.98 94.4679 141.98 95.2146C141.98 95.9612 142.585 96.5665 143.332 96.5665Z" fill="#0075FF"/>
<path d="M174.619 2.70386C175.366 2.70386 175.971 2.09858 175.971 1.35193C175.971 0.60528 175.366 0 174.619 0C173.873 0 173.267 0.60528 173.267 1.35193C173.267 2.09858 173.873 2.70386 174.619 2.70386Z" fill="#0075FF"/>
<path d="M174.619 13.133C175.366 13.133 175.971 12.5278 175.971 11.7811C175.971 11.0345 175.366 10.4292 174.619 10.4292C173.873 10.4292 173.267 11.0345 173.267 11.7811C173.267 12.5278 173.873 13.133 174.619 13.133Z" fill="#0075FF"/>
<path d="M174.619 23.5622C175.366 23.5622 175.971 22.957 175.971 22.2103C175.971 21.4636 175.366 20.8584 174.619 20.8584C173.873 20.8584 173.267 21.4636 173.267 22.2103C173.267 22.957 173.873 23.5622 174.619 23.5622Z" fill="#0075FF"/>
<path d="M174.619 33.9914C175.366 33.9914 175.971 33.3861 175.971 32.6395C175.971 31.8928 175.366 31.2876 174.619 31.2876C173.873 31.2876 173.267 31.8928 173.267 32.6395C173.267 33.3861 173.873 33.9914 174.619 33.9914Z" fill="#0075FF"/>
<path d="M174.619 44.4206C175.366 44.4206 175.971 43.8153 175.971 43.0687C175.971 42.322 175.366 41.7167 174.619 41.7167C173.873 41.7167 173.267 42.322 173.267 43.0687C173.267 43.8153 173.873 44.4206 174.619 44.4206Z" fill="#0075FF"/>
<path d="M174.619 54.8498C175.366 54.8498 175.971 54.2445 175.971 53.4979C175.971 52.7512 175.366 52.1459 174.619 52.1459C173.873 52.1459 173.267 52.7512 173.267 53.4979C173.267 54.2445 173.873 54.8498 174.619 54.8498Z" fill="#0075FF"/>
<path d="M174.619 65.279C175.366 65.279 175.971 64.6737 175.971 63.927C175.971 63.1804 175.366 62.5751 174.619 62.5751C173.873 62.5751 173.267 63.1804 173.267 63.927C173.267 64.6737 173.873 65.279 174.619 65.279Z" fill="#0075FF"/>
<path d="M174.619 86.1373C175.366 86.1373 175.971 85.5321 175.971 84.7854C175.971 84.0387 175.366 83.4335 174.619 83.4335C173.873 83.4335 173.267 84.0387 173.267 84.7854C173.267 85.5321 173.873 86.1373 174.619 86.1373Z" fill="#0075FF"/>
<path d="M174.619 75.7082C175.366 75.7082 175.971 75.1029 175.971 74.3562C175.971 73.6096 175.366 73.0043 174.619 73.0043C173.873 73.0043 173.267 73.6096 173.267 74.3562C173.267 75.1029 173.873 75.7082 174.619 75.7082Z" fill="#0075FF"/>
<path d="M174.619 96.5665C175.366 96.5665 175.971 95.9612 175.971 95.2146C175.971 94.4679 175.366 93.8627 174.619 93.8627C173.873 93.8627 173.267 94.4679 173.267 95.2146C173.267 95.9612 173.873 96.5665 174.619 96.5665Z" fill="#0075FF"/>
<path d="M122.473 2.70386C123.22 2.70386 123.825 2.09858 123.825 1.35193C123.825 0.60528 123.22 0 122.473 0C121.727 0 121.121 0.60528 121.121 1.35193C121.121 2.09858 121.727 2.70386 122.473 2.70386Z" fill="#0075FF"/>
<path d="M122.473 13.133C123.22 13.133 123.825 12.5278 123.825 11.7811C123.825 11.0345 123.22 10.4292 122.473 10.4292C121.727 10.4292 121.121 11.0345 121.121 11.7811C121.121 12.5278 121.727 13.133 122.473 13.133Z" fill="#0075FF"/>
<path d="M122.473 23.5622C123.22 23.5622 123.825 22.957 123.825 22.2103C123.825 21.4636 123.22 20.8584 122.473 20.8584C121.727 20.8584 121.121 21.4636 121.121 22.2103C121.121 22.957 121.727 23.5622 122.473 23.5622Z" fill="#0075FF"/>
<path d="M122.473 33.9914C123.22 33.9914 123.825 33.3861 123.825 32.6395C123.825 31.8928 123.22 31.2876 122.473 31.2876C121.727 31.2876 121.121 31.8928 121.121 32.6395C121.121 33.3861 121.727 33.9914 122.473 33.9914Z" fill="#0075FF"/>
<path d="M122.473 44.4206C123.22 44.4206 123.825 43.8153 123.825 43.0687C123.825 42.322 123.22 41.7167 122.473 41.7167C121.727 41.7167 121.121 42.322 121.121 43.0687C121.121 43.8153 121.727 44.4206 122.473 44.4206Z" fill="#0075FF"/>
<path d="M122.473 54.8498C123.22 54.8498 123.825 54.2445 123.825 53.4979C123.825 52.7512 123.22 52.1459 122.473 52.1459C121.727 52.1459 121.121 52.7512 121.121 53.4979C121.121 54.2445 121.727 54.8498 122.473 54.8498Z" fill="#0075FF"/>
<path d="M122.473 65.279C123.22 65.279 123.825 64.6737 123.825 63.927C123.825 63.1804 123.22 62.5751 122.473 62.5751C121.727 62.5751 121.121 63.1804 121.121 63.927C121.121 64.6737 121.727 65.279 122.473 65.279Z" fill="#0075FF"/>
<path d="M122.473 86.1373C123.22 86.1373 123.825 85.5321 123.825 84.7854C123.825 84.0387 123.22 83.4335 122.473 83.4335C121.727 83.4335 121.121 84.0387 121.121 84.7854C121.121 85.5321 121.727 86.1373 122.473 86.1373Z" fill="#0075FF"/>
<path d="M122.473 75.7082C123.22 75.7082 123.825 75.1029 123.825 74.3562C123.825 73.6096 123.22 73.0043 122.473 73.0043C121.727 73.0043 121.121 73.6096 121.121 74.3562C121.121 75.1029 121.727 75.7082 122.473 75.7082Z" fill="#0075FF"/>
<path d="M122.473 96.5665C123.22 96.5665 123.825 95.9612 123.825 95.2146C123.825 94.4679 123.22 93.8627 122.473 93.8627C121.727 93.8627 121.121 94.4679 121.121 95.2146C121.121 95.9612 121.727 96.5665 122.473 96.5665Z" fill="#0075FF"/>
<path d="M153.761 2.70386C154.508 2.70386 155.113 2.09858 155.113 1.35193C155.113 0.60528 154.508 0 153.761 0C153.014 0 152.409 0.60528 152.409 1.35193C152.409 2.09858 153.014 2.70386 153.761 2.70386Z" fill="#0075FF"/>
<path d="M153.761 13.133C154.508 13.133 155.113 12.5278 155.113 11.7811C155.113 11.0345 154.508 10.4292 153.761 10.4292C153.014 10.4292 152.409 11.0345 152.409 11.7811C152.409 12.5278 153.014 13.133 153.761 13.133Z" fill="#0075FF"/>
<path d="M153.761 23.5622C154.508 23.5622 155.113 22.957 155.113 22.2103C155.113 21.4636 154.508 20.8584 153.761 20.8584C153.014 20.8584 152.409 21.4636 152.409 22.2103C152.409 22.957 153.014 23.5622 153.761 23.5622Z" fill="#0075FF"/>
<path d="M153.761 33.9914C154.508 33.9914 155.113 33.3861 155.113 32.6395C155.113 31.8928 154.508 31.2876 153.761 31.2876C153.014 31.2876 152.409 31.8928 152.409 32.6395C152.409 33.3861 153.014 33.9914 153.761 33.9914Z" fill="#0075FF"/>
<path d="M153.761 44.4206C154.508 44.4206 155.113 43.8153 155.113 43.0687C155.113 42.322 154.508 41.7167 153.761 41.7167C153.014 41.7167 152.409 42.322 152.409 43.0687C152.409 43.8153 153.014 44.4206 153.761 44.4206Z" fill="#0075FF"/>
<path d="M153.761 54.8498C154.508 54.8498 155.113 54.2445 155.113 53.4979C155.113 52.7512 154.508 52.1459 153.761 52.1459C153.014 52.1459 152.409 52.7512 152.409 53.4979C152.409 54.2445 153.014 54.8498 153.761 54.8498Z" fill="#0075FF"/>
<path d="M153.761 65.279C154.508 65.279 155.113 64.6737 155.113 63.927C155.113 63.1804 154.508 62.5751 153.761 62.5751C153.014 62.5751 152.409 63.1804 152.409 63.927C152.409 64.6737 153.014 65.279 153.761 65.279Z" fill="#0075FF"/>
<path d="M153.761 86.1373C154.508 86.1373 155.113 85.5321 155.113 84.7854C155.113 84.0387 154.508 83.4335 153.761 83.4335C153.014 83.4335 152.409 84.0387 152.409 84.7854C152.409 85.5321 153.014 86.1373 153.761 86.1373Z" fill="#0075FF"/>
<path d="M153.761 75.7082C154.508 75.7082 155.113 75.1029 155.113 74.3562C155.113 73.6096 154.508 73.0043 153.761 73.0043C153.014 73.0043 152.409 73.6096 152.409 74.3562C152.409 75.1029 153.014 75.7082 153.761 75.7082Z" fill="#0075FF"/>
<path d="M153.761 96.5665C154.508 96.5665 155.113 95.9612 155.113 95.2146C155.113 94.4679 154.508 93.8627 153.761 93.8627C153.014 93.8627 152.409 94.4679 152.409 95.2146C152.409 95.9612 153.014 96.5665 153.761 96.5665Z" fill="#0075FF"/>
<path d="M185.048 2.70386C185.795 2.70386 186.4 2.09858 186.4 1.35193C186.4 0.60528 185.795 0 185.048 0C184.302 0 183.697 0.60528 183.697 1.35193C183.697 2.09858 184.302 2.70386 185.048 2.70386Z" fill="#0075FF"/>
<path d="M185.048 13.133C185.795 13.133 186.4 12.5278 186.4 11.7811C186.4 11.0345 185.795 10.4292 185.048 10.4292C184.302 10.4292 183.697 11.0345 183.697 11.7811C183.697 12.5278 184.302 13.133 185.048 13.133Z" fill="#0075FF"/>
<path d="M185.048 23.5622C185.795 23.5622 186.4 22.957 186.4 22.2103C186.4 21.4636 185.795 20.8584 185.048 20.8584C184.302 20.8584 183.697 21.4636 183.697 22.2103C183.697 22.957 184.302 23.5622 185.048 23.5622Z" fill="#0075FF"/>
<path d="M185.048 33.9914C185.795 33.9914 186.4 33.3861 186.4 32.6395C186.4 31.8928 185.795 31.2876 185.048 31.2876C184.302 31.2876 183.697 31.8928 183.697 32.6395C183.697 33.3861 184.302 33.9914 185.048 33.9914Z" fill="#0075FF"/>
<path d="M185.048 44.4206C185.795 44.4206 186.4 43.8153 186.4 43.0687C186.4 42.322 185.795 41.7167 185.048 41.7167C184.302 41.7167 183.697 42.322 183.697 43.0687C183.697 43.8153 184.302 44.4206 185.048 44.4206Z" fill="#0075FF"/>
<path d="M185.048 54.8498C185.795 54.8498 186.4 54.2445 186.4 53.4979C186.4 52.7512 185.795 52.1459 185.048 52.1459C184.302 52.1459 183.697 52.7512 183.697 53.4979C183.697 54.2445 184.302 54.8498 185.048 54.8498Z" fill="#0075FF"/>
<path d="M185.048 65.279C185.795 65.279 186.4 64.6737 186.4 63.927C186.4 63.1804 185.795 62.5751 185.048 62.5751C184.302 62.5751 183.697 63.1804 183.697 63.927C183.697 64.6737 184.302 65.279 185.048 65.279Z" fill="#0075FF"/>
<path d="M185.048 86.1373C185.795 86.1373 186.4 85.5321 186.4 84.7854C186.4 84.0387 185.795 83.4335 185.048 83.4335C184.302 83.4335 183.697 84.0387 183.697 84.7854C183.697 85.5321 184.302 86.1373 185.048 86.1373Z" fill="#0075FF"/>
<path d="M185.048 75.7082C185.795 75.7082 186.4 75.1029 186.4 74.3562C186.4 73.6096 185.795 73.0043 185.048 73.0043C184.302 73.0043 183.697 73.6096 183.697 74.3562C183.697 75.1029 184.302 75.7082 185.048 75.7082Z" fill="#0075FF"/>
<path d="M185.048 96.5665C185.795 96.5665 186.4 95.9612 186.4 95.2146C186.4 94.4679 185.795 93.8627 185.048 93.8627C184.302 93.8627 183.697 94.4679 183.697 95.2146C183.697 95.9612 184.302 96.5665 185.048 96.5665Z" fill="#0075FF"/>
<path d="M134.254 105.644C134.254 106.39 133.649 106.996 132.903 106.996C132.156 106.996 131.551 106.39 131.551 105.644C131.551 104.897 132.156 104.292 132.903 104.292C133.649 104.292 134.254 104.897 134.254 105.644Z" fill="#0075FF"/>
<path d="M134.254 116.073C134.254 116.82 133.649 117.425 132.903 117.425C132.156 117.425 131.551 116.82 131.551 116.073C131.551 115.326 132.156 114.721 132.903 114.721C133.649 114.721 134.254 115.326 134.254 116.073Z" fill="#0075FF"/>
<path d="M134.254 126.502C134.254 127.249 133.649 127.854 132.903 127.854C132.156 127.854 131.551 127.249 131.551 126.502C131.551 125.755 132.156 125.15 132.903 125.15C133.649 125.15 134.254 125.755 134.254 126.502Z" fill="#0075FF"/>
<path d="M165.542 105.644C165.542 106.39 164.937 106.996 164.19 106.996C163.443 106.996 162.838 106.39 162.838 105.644C162.838 104.897 163.443 104.292 164.19 104.292C164.937 104.292 165.542 104.897 165.542 105.644Z" fill="#0075FF"/>
<path d="M165.542 116.073C165.542 116.82 164.937 117.425 164.19 117.425C163.443 117.425 162.838 116.82 162.838 116.073C162.838 115.326 163.443 114.721 164.19 114.721C164.937 114.721 165.542 115.326 165.542 116.073Z" fill="#0075FF"/>
<path d="M165.542 126.502C165.542 127.249 164.937 127.854 164.19 127.854C163.443 127.854 162.838 127.249 162.838 126.502C162.838 125.755 163.443 125.15 164.19 125.15C164.937 125.15 165.542 125.755 165.542 126.502Z" fill="#0075FF"/>
<path d="M165.542 136.931C165.542 137.678 164.937 138.283 164.19 138.283C163.443 138.283 162.838 137.678 162.838 136.931C162.838 136.185 163.443 135.579 164.19 135.579C164.937 135.579 165.542 136.185 165.542 136.931Z" fill="#0075FF"/>
<path d="M165.542 147.361C165.542 148.107 164.937 148.712 164.19 148.712C163.443 148.712 162.838 148.107 162.838 147.361C162.838 146.614 163.443 146.009 164.19 146.009C164.937 146.009 165.542 146.614 165.542 147.361Z" fill="#0075FF"/>
<path d="M165.542 157.79C165.542 158.536 164.937 159.142 164.19 159.142C163.443 159.142 162.838 158.536 162.838 157.79C162.838 157.043 163.443 156.438 164.19 156.438C164.937 156.438 165.542 157.043 165.542 157.79Z" fill="#0075FF"/>
<path d="M113.396 105.644C113.396 106.39 112.791 106.996 112.044 106.996C111.298 106.996 110.692 106.39 110.692 105.644C110.692 104.897 111.298 104.292 112.044 104.292C112.791 104.292 113.396 104.897 113.396 105.644Z" fill="#0075FF"/>
<path d="M144.684 105.644C144.684 106.39 144.078 106.996 143.332 106.996C142.585 106.996 141.98 106.39 141.98 105.644C141.98 104.897 142.585 104.292 143.332 104.292C144.078 104.292 144.684 104.897 144.684 105.644Z" fill="#0075FF"/>
<path d="M144.684 116.073C144.684 116.82 144.078 117.425 143.332 117.425C142.585 117.425 141.98 116.82 141.98 116.073C141.98 115.326 142.585 114.721 143.332 114.721C144.078 114.721 144.684 115.326 144.684 116.073Z" fill="#0075FF"/>
<path d="M144.684 126.502C144.684 127.249 144.078 127.854 143.332 127.854C142.585 127.854 141.98 127.249 141.98 126.502C141.98 125.755 142.585 125.15 143.332 125.15C144.078 125.15 144.684 125.755 144.684 126.502Z" fill="#0075FF"/>
<path d="M144.684 136.931C144.684 137.678 144.078 138.283 143.332 138.283C142.585 138.283 141.98 137.678 141.98 136.931C141.98 136.185 142.585 135.579 143.332 135.579C144.078 135.579 144.684 136.185 144.684 136.931Z" fill="#0075FF"/>
<path d="M175.971 105.644C175.971 106.39 175.366 106.996 174.619 106.996C173.873 106.996 173.267 106.39 173.267 105.644C173.267 104.897 173.873 104.292 174.619 104.292C175.366 104.292 175.971 104.897 175.971 105.644Z" fill="#0075FF"/>
<path d="M175.971 116.073C175.971 116.82 175.366 117.425 174.619 117.425C173.873 117.425 173.267 116.82 173.267 116.073C173.267 115.326 173.873 114.721 174.619 114.721C175.366 114.721 175.971 115.326 175.971 116.073Z" fill="#0075FF"/>
<path d="M175.971 126.502C175.971 127.249 175.366 127.854 174.619 127.854C173.873 127.854 173.267 127.249 173.267 126.502C173.267 125.755 173.873 125.15 174.619 125.15C175.366 125.15 175.971 125.755 175.971 126.502Z" fill="#0075FF"/>
<path d="M175.971 136.931C175.971 137.678 175.366 138.283 174.619 138.283C173.873 138.283 173.267 137.678 173.267 136.931C173.267 136.185 173.873 135.579 174.619 135.579C175.366 135.579 175.971 136.185 175.971 136.931Z" fill="#0075FF"/>
<path d="M175.971 147.361C175.971 148.107 175.366 148.712 174.619 148.712C173.873 148.712 173.267 148.107 173.267 147.361C173.267 146.614 173.873 146.009 174.619 146.009C175.366 146.009 175.971 146.614 175.971 147.361Z" fill="#0075FF"/>
<path d="M175.971 157.79C175.971 158.536 175.366 159.142 174.619 159.142C173.873 159.142 173.267 158.536 173.267 157.79C173.267 157.043 173.873 156.438 174.619 156.438C175.366 156.438 175.971 157.043 175.971 157.79Z" fill="#0075FF"/>
<path d="M175.971 168.219C175.971 168.966 175.366 169.571 174.619 169.571C173.873 169.571 173.267 168.966 173.267 168.219C173.267 167.472 173.873 166.867 174.619 166.867C175.366 166.867 175.971 167.472 175.971 168.219Z" fill="#0075FF"/>
<path d="M123.825 105.644C123.825 106.39 123.22 106.996 122.473 106.996C121.727 106.996 121.121 106.39 121.121 105.644C121.121 104.897 121.727 104.292 122.473 104.292C123.22 104.292 123.825 104.897 123.825 105.644Z" fill="#0075FF"/>
<path d="M123.825 116.073C123.825 116.82 123.22 117.425 122.473 117.425C121.727 117.425 121.121 116.82 121.121 116.073C121.121 115.326 121.727 114.721 122.473 114.721C123.22 114.721 123.825 115.326 123.825 116.073Z" fill="#0075FF"/>
<path d="M155.113 105.644C155.113 106.39 154.508 106.996 153.761 106.996C153.014 106.996 152.409 106.39 152.409 105.644C152.409 104.897 153.014 104.292 153.761 104.292C154.508 104.292 155.113 104.897 155.113 105.644Z" fill="#0075FF"/>
<path d="M155.113 116.073C155.113 116.82 154.508 117.425 153.761 117.425C153.014 117.425 152.409 116.82 152.409 116.073C152.409 115.326 153.014 114.721 153.761 114.721C154.508 114.721 155.113 115.326 155.113 116.073Z" fill="#0075FF"/>
<path d="M155.113 126.502C155.113 127.249 154.508 127.854 153.761 127.854C153.014 127.854 152.409 127.249 152.409 126.502C152.409 125.755 153.014 125.15 153.761 125.15C154.508 125.15 155.113 125.755 155.113 126.502Z" fill="#0075FF"/>
<path d="M155.113 136.931C155.113 137.678 154.508 138.283 153.761 138.283C153.014 138.283 152.409 137.678 152.409 136.931C152.409 136.185 153.014 135.579 153.761 135.579C154.508 135.579 155.113 136.185 155.113 136.931Z" fill="#0075FF"/>
<path d="M155.113 147.361C155.113 148.107 154.508 148.712 153.761 148.712C153.014 148.712 152.409 148.107 152.409 147.361C152.409 146.614 153.014 146.009 153.761 146.009C154.508 146.009 155.113 146.614 155.113 147.361Z" fill="#0075FF"/>
<path d="M186.4 105.644C186.4 106.39 185.795 106.996 185.048 106.996C184.302 106.996 183.697 106.39 183.697 105.644C183.697 104.897 184.302 104.292 185.048 104.292C185.795 104.292 186.4 104.897 186.4 105.644Z" fill="#0075FF"/>
<path d="M186.4 116.073C186.4 116.82 185.795 117.425 185.048 117.425C184.302 117.425 183.697 116.82 183.697 116.073C183.697 115.326 184.302 114.721 185.048 114.721C185.795 114.721 186.4 115.326 186.4 116.073Z" fill="#0075FF"/>
<path d="M186.4 126.502C186.4 127.249 185.795 127.854 185.048 127.854C184.302 127.854 183.697 127.249 183.697 126.502C183.697 125.755 184.302 125.15 185.048 125.15C185.795 125.15 186.4 125.755 186.4 126.502Z" fill="#0075FF"/>
<path d="M186.4 136.931C186.4 137.678 185.795 138.283 185.048 138.283C184.302 138.283 183.697 137.678 183.697 136.931C183.697 136.185 184.302 135.579 185.048 135.579C185.795 135.579 186.4 136.185 186.4 136.931Z" fill="#0075FF"/>
<path d="M186.4 147.361C186.4 148.107 185.795 148.712 185.048 148.712C184.302 148.712 183.697 148.107 183.697 147.361C183.697 146.614 184.302 146.009 185.048 146.009C185.795 146.009 186.4 146.614 186.4 147.361Z" fill="#0075FF"/>
<path d="M186.4 157.79C186.4 158.536 185.795 159.142 185.048 159.142C184.302 159.142 183.697 158.536 183.697 157.79C183.697 157.043 184.302 156.438 185.048 156.438C185.795 156.438 186.4 157.043 186.4 157.79Z" fill="#0075FF"/>
<path d="M186.4 168.219C186.4 168.966 185.795 169.571 185.048 169.571C184.302 169.571 183.697 168.966 183.697 168.219C183.697 167.472 184.302 166.867 185.048 166.867C185.795 166.867 186.4 167.472 186.4 168.219Z" fill="#0075FF"/>
<path d="M186.4 178.648C186.4 179.395 185.795 180 185.048 180C184.302 180 183.697 179.395 183.697 178.648C183.697 177.901 184.302 177.296 185.048 177.296C185.795 177.296 186.4 177.901 186.4 178.648Z" fill="#0075FF"/>
</g>
<g opacity="0.7">
<path d="M172.796 178.648C172.796 177.901 173.401 177.296 174.148 177.296C174.895 177.296 175.5 177.901 175.5 178.648C175.5 179.395 174.895 180 174.148 180C173.401 180 172.796 179.395 172.796 178.648Z" fill="#0075FF"/>
<path d="M141.509 178.648C141.509 177.901 142.114 177.296 142.861 177.296C143.607 177.296 144.212 177.901 144.212 178.648C144.212 179.395 143.607 180 142.861 180C142.114 180 141.509 179.395 141.509 178.648Z" fill="#0075FF"/>
<path d="M141.509 168.219C141.509 167.472 142.114 166.867 142.861 166.867C143.607 166.867 144.212 167.472 144.212 168.219C144.212 168.966 143.607 169.571 142.861 169.571C142.114 169.571 141.509 168.966 141.509 168.219Z" fill="#0075FF"/>
<path d="M141.509 157.79C141.509 157.043 142.114 156.438 142.861 156.438C143.607 156.438 144.212 157.043 144.212 157.79C144.212 158.536 143.607 159.142 142.861 159.142C142.114 159.142 141.509 158.536 141.509 157.79Z" fill="#0075FF"/>
<path d="M141.509 147.361C141.509 146.614 142.114 146.009 142.861 146.009C143.607 146.009 144.212 146.614 144.212 147.361C144.212 148.107 143.607 148.712 142.861 148.712C142.114 148.712 141.509 148.107 141.509 147.361Z" fill="#0075FF"/>
<path d="M110.221 178.648C110.221 177.901 110.826 177.296 111.573 177.296C112.32 177.296 112.925 177.901 112.925 178.648C112.925 179.395 112.32 180 111.573 180C110.826 180 110.221 179.395 110.221 178.648Z" fill="#0075FF"/>
<path d="M110.221 168.219C110.221 167.472 110.826 166.867 111.573 166.867C112.32 166.867 112.925 167.472 112.925 168.219C112.925 168.966 112.32 169.571 111.573 169.571C110.826 169.571 110.221 168.966 110.221 168.219Z" fill="#0075FF"/>
<path d="M110.221 157.79C110.221 157.043 110.826 156.438 111.573 156.438C112.32 156.438 112.925 157.043 112.925 157.79C112.925 158.536 112.32 159.142 111.573 159.142C110.826 159.142 110.221 158.536 110.221 157.79Z" fill="#0075FF"/>
<path d="M110.221 147.361C110.221 146.614 110.826 146.009 111.573 146.009C112.32 146.009 112.925 146.614 112.925 147.361C112.925 148.107 112.32 148.712 111.573 148.712C110.826 148.712 110.221 148.107 110.221 147.361Z" fill="#0075FF"/>
<path d="M110.221 136.931C110.221 136.185 110.826 135.579 111.573 135.579C112.32 135.579 112.925 136.185 112.925 136.931C112.925 137.678 112.32 138.283 111.573 138.283C110.826 138.283 110.221 137.678 110.221 136.931Z" fill="#0075FF"/>
<path d="M110.221 126.502C110.221 125.755 110.826 125.15 111.573 125.15C112.32 125.15 112.925 125.755 112.925 126.502C112.925 127.249 112.32 127.854 111.573 127.854C110.826 127.854 110.221 127.249 110.221 126.502Z" fill="#0075FF"/>
<path d="M110.221 116.073C110.221 115.326 110.826 114.721 111.573 114.721C112.32 114.721 112.925 115.326 112.925 116.073C112.925 116.82 112.32 117.425 111.573 117.425C110.826 117.425 110.221 116.82 110.221 116.073Z" fill="#0075FF"/>
<path d="M162.367 178.648C162.367 177.901 162.972 177.296 163.719 177.296C164.466 177.296 165.071 177.901 165.071 178.648C165.071 179.395 164.466 180 163.719 180C162.972 180 162.367 179.395 162.367 178.648Z" fill="#0075FF"/>
<path d="M162.367 168.219C162.367 167.472 162.972 166.867 163.719 166.867C164.466 166.867 165.071 167.472 165.071 168.219C165.071 168.966 164.466 169.571 163.719 169.571C162.972 169.571 162.367 168.966 162.367 168.219Z" fill="#0075FF"/>
<path d="M131.079 178.648C131.079 177.901 131.685 177.296 132.431 177.296C133.178 177.296 133.783 177.901 133.783 178.648C133.783 179.395 133.178 180 132.431 180C131.685 180 131.079 179.395 131.079 178.648Z" fill="#0075FF"/>
<path d="M131.079 168.219C131.079 167.472 131.685 166.867 132.431 166.867C133.178 166.867 133.783 167.472 133.783 168.219C133.783 168.966 133.178 169.571 132.431 169.571C131.685 169.571 131.079 168.966 131.079 168.219Z" fill="#0075FF"/>
<path d="M131.079 157.79C131.079 157.043 131.685 156.438 132.431 156.438C133.178 156.438 133.783 157.043 133.783 157.79C133.783 158.536 133.178 159.142 132.431 159.142C131.685 159.142 131.079 158.536 131.079 157.79Z" fill="#0075FF"/>
<path d="M131.079 147.361C131.079 146.614 131.685 146.009 132.431 146.009C133.178 146.009 133.783 146.614 133.783 147.361C133.783 148.107 133.178 148.712 132.431 148.712C131.685 148.712 131.079 148.107 131.079 147.361Z" fill="#0075FF"/>
<path d="M131.079 136.931C131.079 136.185 131.685 135.579 132.431 135.579C133.178 135.579 133.783 136.185 133.783 136.931C133.783 137.678 133.178 138.283 132.431 138.283C131.685 138.283 131.079 137.678 131.079 136.931Z" fill="#0075FF"/>
<path d="M99.7918 178.648C99.7918 177.901 100.397 177.296 101.144 177.296C101.89 177.296 102.496 177.901 102.496 178.648C102.496 179.395 101.89 180 101.144 180C100.397 180 99.7918 179.395 99.7918 178.648Z" fill="#0075FF"/>
<path d="M99.7918 168.219C99.7918 167.472 100.397 166.867 101.144 166.867C101.89 166.867 102.496 167.472 102.496 168.219C102.496 168.966 101.89 169.571 101.144 169.571C100.397 169.571 99.7918 168.966 99.7918 168.219Z" fill="#0075FF"/>
<path d="M99.7918 157.79C99.7918 157.043 100.397 156.438 101.144 156.438C101.89 156.438 102.496 157.043 102.496 157.79C102.496 158.536 101.89 159.142 101.144 159.142C100.397 159.142 99.7918 158.536 99.7918 157.79Z" fill="#0075FF"/>
<path d="M99.7918 147.361C99.7918 146.614 100.397 146.009 101.144 146.009C101.89 146.009 102.496 146.614 102.496 147.361C102.496 148.107 101.89 148.712 101.144 148.712C100.397 148.712 99.7918 148.107 99.7918 147.361Z" fill="#0075FF"/>
<path d="M99.7918 136.931C99.7918 136.185 100.397 135.579 101.144 135.579C101.89 135.579 102.496 136.185 102.496 136.931C102.496 137.678 101.89 138.283 101.144 138.283C100.397 138.283 99.7918 137.678 99.7918 136.931Z" fill="#0075FF"/>
<path d="M99.7918 126.502C99.7918 125.755 100.397 125.15 101.144 125.15C101.89 125.15 102.496 125.755 102.496 126.502C102.496 127.249 101.89 127.854 101.144 127.854C100.397 127.854 99.7918 127.249 99.7918 126.502Z" fill="#0075FF"/>
<path d="M99.7918 116.073C99.7918 115.326 100.397 114.721 101.144 114.721C101.89 114.721 102.496 115.326 102.496 116.073C102.496 116.82 101.89 117.425 101.144 117.425C100.397 117.425 99.7918 116.82 99.7918 116.073Z" fill="#0075FF"/>
<path d="M99.7918 105.644C99.7918 104.897 100.397 104.292 101.144 104.292C101.89 104.292 102.496 104.897 102.496 105.644C102.496 106.39 101.89 106.996 101.144 106.996C100.397 106.996 99.7918 106.39 99.7918 105.644Z" fill="#0075FF"/>
<path d="M151.938 178.648C151.938 177.901 152.543 177.296 153.29 177.296C154.036 177.296 154.642 177.901 154.642 178.648C154.642 179.395 154.036 180 153.29 180C152.543 180 151.938 179.395 151.938 178.648Z" fill="#0075FF"/>
<path d="M151.938 168.219C151.938 167.472 152.543 166.867 153.29 166.867C154.036 166.867 154.642 167.472 154.642 168.219C154.642 168.966 154.036 169.571 153.29 169.571C152.543 169.571 151.938 168.966 151.938 168.219Z" fill="#0075FF"/>
<path d="M151.938 157.79C151.938 157.043 152.543 156.438 153.29 156.438C154.036 156.438 154.642 157.043 154.642 157.79C154.642 158.536 154.036 159.142 153.29 159.142C152.543 159.142 151.938 158.536 151.938 157.79Z" fill="#0075FF"/>
<path d="M120.65 178.648C120.65 177.901 121.255 177.296 122.002 177.296C122.749 177.296 123.354 177.901 123.354 178.648C123.354 179.395 122.749 180 122.002 180C121.255 180 120.65 179.395 120.65 178.648Z" fill="#0075FF"/>
<path d="M120.65 168.219C120.65 167.472 121.255 166.867 122.002 166.867C122.749 166.867 123.354 167.472 123.354 168.219C123.354 168.966 122.749 169.571 122.002 169.571C121.255 169.571 120.65 168.966 120.65 168.219Z" fill="#0075FF"/>
<path d="M120.65 157.79C120.65 157.043 121.255 156.438 122.002 156.438C122.749 156.438 123.354 157.043 123.354 157.79C123.354 158.536 122.749 159.142 122.002 159.142C121.255 159.142 120.65 158.536 120.65 157.79Z" fill="#0075FF"/>
<path d="M120.65 147.361C120.65 146.614 121.255 146.009 122.002 146.009C122.749 146.009 123.354 146.614 123.354 147.361C123.354 148.107 122.749 148.712 122.002 148.712C121.255 148.712 120.65 148.107 120.65 147.361Z" fill="#0075FF"/>
<path d="M120.65 136.931C120.65 136.185 121.255 135.579 122.002 135.579C122.749 135.579 123.354 136.185 123.354 136.931C123.354 137.678 122.749 138.283 122.002 138.283C121.255 138.283 120.65 137.678 120.65 136.931Z" fill="#0075FF"/>
<path d="M120.65 126.502C120.65 125.755 121.255 125.15 122.002 125.15C122.749 125.15 123.354 125.755 123.354 126.502C123.354 127.249 122.749 127.854 122.002 127.854C121.255 127.854 120.65 127.249 120.65 126.502Z" fill="#0075FF"/>
<path d="M89.3627 178.648C89.3627 177.901 89.9679 177.296 90.7146 177.296C91.4612 177.296 92.0665 177.901 92.0665 178.648C92.0665 179.395 91.4612 180 90.7146 180C89.9679 180 89.3627 179.395 89.3627 178.648Z" fill="#0075FF"/>
<path d="M89.3627 168.219C89.3627 167.472 89.9679 166.867 90.7146 166.867C91.4612 166.867 92.0665 167.472 92.0665 168.219C92.0665 168.966 91.4612 169.571 90.7146 169.571C89.9679 169.571 89.3627 168.966 89.3627 168.219Z" fill="#0075FF"/>
<path d="M89.3627 157.79C89.3627 157.043 89.9679 156.438 90.7146 156.438C91.4612 156.438 92.0665 157.043 92.0665 157.79C92.0665 158.536 91.4612 159.142 90.7146 159.142C89.9679 159.142 89.3627 158.536 89.3627 157.79Z" fill="#0075FF"/>
<path d="M89.3627 147.361C89.3627 146.614 89.9679 146.009 90.7146 146.009C91.4612 146.009 92.0665 146.614 92.0665 147.361C92.0665 148.107 91.4612 148.712 90.7146 148.712C89.9679 148.712 89.3627 148.107 89.3627 147.361Z" fill="#0075FF"/>
<path d="M89.3627 136.931C89.3627 136.185 89.9679 135.579 90.7146 135.579C91.4612 135.579 92.0665 136.185 92.0665 136.931C92.0665 137.678 91.4612 138.283 90.7146 138.283C89.9679 138.283 89.3627 137.678 89.3627 136.931Z" fill="#0075FF"/>
<path d="M89.3627 126.502C89.3627 125.755 89.9679 125.15 90.7146 125.15C91.4612 125.15 92.0665 125.755 92.0665 126.502C92.0665 127.249 91.4612 127.854 90.7146 127.854C89.9679 127.854 89.3627 127.249 89.3627 126.502Z" fill="#0075FF"/>
<path d="M89.3627 116.073C89.3627 115.326 89.9679 114.721 90.7146 114.721C91.4612 114.721 92.0665 115.326 92.0665 116.073C92.0665 116.82 91.4612 117.425 90.7146 117.425C89.9679 117.425 89.3627 116.82 89.3627 116.073Z" fill="#0075FF"/>
<path d="M89.3627 95.2146C89.3627 94.4679 89.9679 93.8627 90.7146 93.8627C91.4612 93.8627 92.0665 94.4679 92.0665 95.2146C92.0665 95.9613 91.4612 96.5665 90.7146 96.5665C89.9679 96.5665 89.3627 95.9613 89.3627 95.2146Z" fill="#0075FF"/>
<path d="M89.3627 105.644C89.3627 104.897 89.9679 104.292 90.7146 104.292C91.4612 104.292 92.0665 104.897 92.0665 105.644C92.0665 106.39 91.4612 106.996 90.7146 106.996C89.9679 106.996 89.3627 106.39 89.3627 105.644Z" fill="#0075FF"/>
<path d="M80.2854 177.296C79.5388 177.296 78.9335 177.901 78.9335 178.648C78.9335 179.395 79.5388 180 80.2854 180C81.0321 180 81.6373 179.395 81.6373 178.648C81.6373 177.901 81.0321 177.296 80.2854 177.296Z" fill="#0075FF"/>
<path d="M80.2854 166.867C79.5388 166.867 78.9335 167.472 78.9335 168.219C78.9335 168.966 79.5388 169.571 80.2854 169.571C81.0321 169.571 81.6373 168.966 81.6373 168.219C81.6373 167.472 81.0321 166.867 80.2854 166.867Z" fill="#0075FF"/>
<path d="M80.2854 156.438C79.5388 156.438 78.9335 157.043 78.9335 157.79C78.9335 158.536 79.5388 159.142 80.2854 159.142C81.0321 159.142 81.6373 158.536 81.6373 157.79C81.6373 157.043 81.0321 156.438 80.2854 156.438Z" fill="#0075FF"/>
<path d="M80.2854 146.009C79.5388 146.009 78.9335 146.614 78.9335 147.361C78.9335 148.107 79.5388 148.712 80.2854 148.712C81.0321 148.712 81.6373 148.107 81.6373 147.361C81.6373 146.614 81.0321 146.009 80.2854 146.009Z" fill="#0075FF"/>
<path d="M80.2854 135.579C79.5388 135.579 78.9335 136.185 78.9335 136.931C78.9335 137.678 79.5388 138.283 80.2854 138.283C81.0321 138.283 81.6373 137.678 81.6373 136.931C81.6373 136.185 81.0321 135.579 80.2854 135.579Z" fill="#0075FF"/>
<path d="M80.2854 125.15C79.5388 125.15 78.9335 125.755 78.9335 126.502C78.9335 127.249 79.5388 127.854 80.2854 127.854C81.0321 127.854 81.6373 127.249 81.6373 126.502C81.6373 125.755 81.0321 125.15 80.2854 125.15Z" fill="#0075FF"/>
<path d="M80.2854 114.721C79.5388 114.721 78.9335 115.326 78.9335 116.073C78.9335 116.82 79.5388 117.425 80.2854 117.425C81.0321 117.425 81.6373 116.82 81.6373 116.073C81.6373 115.326 81.0321 114.721 80.2854 114.721Z" fill="#0075FF"/>
<path d="M80.2854 93.8627C79.5388 93.8627 78.9335 94.4679 78.9335 95.2146C78.9335 95.9613 79.5388 96.5665 80.2854 96.5665C81.0321 96.5665 81.6373 95.9613 81.6373 95.2146C81.6373 94.4679 81.0321 93.8627 80.2854 93.8627Z" fill="#0075FF"/>
<path d="M80.2854 104.292C79.5388 104.292 78.9335 104.897 78.9335 105.644C78.9335 106.39 79.5388 106.996 80.2854 106.996C81.0321 106.996 81.6373 106.39 81.6373 105.644C81.6373 104.897 81.0321 104.292 80.2854 104.292Z" fill="#0075FF"/>
<path d="M80.2854 83.4335C79.5388 83.4335 78.9335 84.0388 78.9335 84.7854C78.9335 85.5321 79.5388 86.1373 80.2854 86.1373C81.0321 86.1373 81.6373 85.5321 81.6373 84.7854C81.6373 84.0388 81.0321 83.4335 80.2854 83.4335Z" fill="#0075FF"/>
<path d="M48.9979 177.296C48.2512 177.296 47.6459 177.901 47.6459 178.648C47.6459 179.395 48.2512 180 48.9979 180C49.7445 180 50.3498 179.395 50.3498 178.648C50.3498 177.901 49.7445 177.296 48.9979 177.296Z" fill="#0075FF"/>
<path d="M48.9979 166.867C48.2512 166.867 47.6459 167.472 47.6459 168.219C47.6459 168.966 48.2512 169.571 48.9979 169.571C49.7445 169.571 50.3498 168.966 50.3498 168.219C50.3498 167.472 49.7445 166.867 48.9979 166.867Z" fill="#0075FF"/>
<path d="M48.9979 156.438C48.2512 156.438 47.6459 157.043 47.6459 157.79C47.6459 158.536 48.2512 159.142 48.9979 159.142C49.7445 159.142 50.3498 158.536 50.3498 157.79C50.3498 157.043 49.7445 156.438 48.9979 156.438Z" fill="#0075FF"/>
<path d="M48.9979 146.009C48.2512 146.009 47.6459 146.614 47.6459 147.361C47.6459 148.107 48.2512 148.712 48.9979 148.712C49.7445 148.712 50.3498 148.107 50.3498 147.361C50.3498 146.614 49.7445 146.009 48.9979 146.009Z" fill="#0075FF"/>
<path d="M48.9979 135.579C48.2512 135.579 47.6459 136.185 47.6459 136.931C47.6459 137.678 48.2512 138.283 48.9979 138.283C49.7445 138.283 50.3498 137.678 50.3498 136.931C50.3498 136.185 49.7445 135.579 48.9979 135.579Z" fill="#0075FF"/>
<path d="M48.9979 125.15C48.2512 125.15 47.6459 125.755 47.6459 126.502C47.6459 127.249 48.2512 127.854 48.9979 127.854C49.7445 127.854 50.3498 127.249 50.3498 126.502C50.3498 125.755 49.7445 125.15 48.9979 125.15Z" fill="#0075FF"/>
<path d="M48.9979 114.721C48.2512 114.721 47.6459 115.326 47.6459 116.073C47.6459 116.82 48.2512 117.425 48.9979 117.425C49.7445 117.425 50.3498 116.82 50.3498 116.073C50.3498 115.326 49.7445 114.721 48.9979 114.721Z" fill="#0075FF"/>
<path d="M48.9979 93.8627C48.2512 93.8627 47.6459 94.4679 47.6459 95.2146C47.6459 95.9613 48.2512 96.5665 48.9979 96.5665C49.7445 96.5665 50.3498 95.9613 50.3498 95.2146C50.3498 94.4679 49.7445 93.8627 48.9979 93.8627Z" fill="#0075FF"/>
<path d="M48.9979 104.292C48.2512 104.292 47.6459 104.897 47.6459 105.644C47.6459 106.39 48.2512 106.996 48.9979 106.996C49.7445 106.996 50.3498 106.39 50.3498 105.644C50.3498 104.897 49.7445 104.292 48.9979 104.292Z" fill="#0075FF"/>
<path d="M48.9979 83.4335C48.2512 83.4335 47.6459 84.0388 47.6459 84.7854C47.6459 85.5321 48.2512 86.1373 48.9979 86.1373C49.7445 86.1373 50.3498 85.5321 50.3498 84.7854C50.3498 84.0388 49.7445 83.4335 48.9979 83.4335Z" fill="#0075FF"/>
<path d="M17.7103 177.296C16.9637 177.296 16.3584 177.901 16.3584 178.648C16.3584 179.395 16.9637 180 17.7103 180C18.4569 180 19.0622 179.395 19.0622 178.648C19.0622 177.901 18.4569 177.296 17.7103 177.296Z" fill="#0075FF"/>
<path d="M17.7103 166.867C16.9637 166.867 16.3584 167.472 16.3584 168.219C16.3584 168.966 16.9637 169.571 17.7103 169.571C18.4569 169.571 19.0622 168.966 19.0622 168.219C19.0622 167.472 18.4569 166.867 17.7103 166.867Z" fill="#0075FF"/>
<path d="M17.7103 156.438C16.9637 156.438 16.3584 157.043 16.3584 157.79C16.3584 158.536 16.9637 159.142 17.7103 159.142C18.4569 159.142 19.0622 158.536 19.0622 157.79C19.0622 157.043 18.4569 156.438 17.7103 156.438Z" fill="#0075FF"/>
<path d="M17.7103 146.009C16.9637 146.009 16.3584 146.614 16.3584 147.361C16.3584 148.107 16.9637 148.712 17.7103 148.712C18.4569 148.712 19.0622 148.107 19.0622 147.361C19.0622 146.614 18.4569 146.009 17.7103 146.009Z" fill="#0075FF"/>
<path d="M17.7103 135.579C16.9637 135.579 16.3584 136.185 16.3584 136.931C16.3584 137.678 16.9637 138.283 17.7103 138.283C18.4569 138.283 19.0622 137.678 19.0622 136.931C19.0622 136.185 18.4569 135.579 17.7103 135.579Z" fill="#0075FF"/>
<path d="M17.7103 125.15C16.9637 125.15 16.3584 125.755 16.3584 126.502C16.3584 127.249 16.9637 127.854 17.7103 127.854C18.4569 127.854 19.0622 127.249 19.0622 126.502C19.0622 125.755 18.4569 125.15 17.7103 125.15Z" fill="#0075FF"/>
<path d="M17.7103 114.721C16.9637 114.721 16.3584 115.326 16.3584 116.073C16.3584 116.82 16.9637 117.425 17.7103 117.425C18.4569 117.425 19.0622 116.82 19.0622 116.073C19.0622 115.326 18.4569 114.721 17.7103 114.721Z" fill="#0075FF"/>
<path d="M17.7103 93.8627C16.9637 93.8627 16.3584 94.4679 16.3584 95.2146C16.3584 95.9613 16.9637 96.5665 17.7103 96.5665C18.4569 96.5665 19.0622 95.9613 19.0622 95.2146C19.0622 94.4679 18.4569 93.8627 17.7103 93.8627Z" fill="#0075FF"/>
<path d="M17.7103 104.292C16.9637 104.292 16.3584 104.897 16.3584 105.644C16.3584 106.39 16.9637 106.996 17.7103 106.996C18.4569 106.996 19.0622 106.39 19.0622 105.644C19.0622 104.897 18.4569 104.292 17.7103 104.292Z" fill="#0075FF"/>
<path d="M17.7103 83.4335C16.9637 83.4335 16.3584 84.0388 16.3584 84.7854C16.3584 85.5321 16.9637 86.1373 17.7103 86.1373C18.4569 86.1373 19.0622 85.5321 19.0622 84.7854C19.0622 84.0388 18.4569 83.4335 17.7103 83.4335Z" fill="#0075FF"/>
<path d="M69.8562 177.296C69.1096 177.296 68.5043 177.901 68.5043 178.648C68.5043 179.395 69.1096 180 69.8562 180C70.6029 180 71.2082 179.395 71.2082 178.648C71.2082 177.901 70.6029 177.296 69.8562 177.296Z" fill="#0075FF"/>
<path d="M69.8562 166.867C69.1096 166.867 68.5043 167.472 68.5043 168.219C68.5043 168.966 69.1096 169.571 69.8562 169.571C70.6029 169.571 71.2082 168.966 71.2082 168.219C71.2082 167.472 70.6029 166.867 69.8562 166.867Z" fill="#0075FF"/>
<path d="M69.8562 156.438C69.1096 156.438 68.5043 157.043 68.5043 157.79C68.5043 158.536 69.1096 159.142 69.8562 159.142C70.6029 159.142 71.2082 158.536 71.2082 157.79C71.2082 157.043 70.6029 156.438 69.8562 156.438Z" fill="#0075FF"/>
<path d="M69.8562 146.009C69.1096 146.009 68.5043 146.614 68.5043 147.361C68.5043 148.107 69.1096 148.712 69.8562 148.712C70.6029 148.712 71.2082 148.107 71.2082 147.361C71.2082 146.614 70.6029 146.009 69.8562 146.009Z" fill="#0075FF"/>
<path d="M69.8562 135.579C69.1096 135.579 68.5043 136.185 68.5043 136.931C68.5043 137.678 69.1096 138.283 69.8562 138.283C70.6029 138.283 71.2082 137.678 71.2082 136.931C71.2082 136.185 70.6029 135.579 69.8562 135.579Z" fill="#0075FF"/>
<path d="M69.8562 125.15C69.1096 125.15 68.5043 125.755 68.5043 126.502C68.5043 127.249 69.1096 127.854 69.8562 127.854C70.6029 127.854 71.2082 127.249 71.2082 126.502C71.2082 125.755 70.6029 125.15 69.8562 125.15Z" fill="#0075FF"/>
<path d="M69.8562 114.721C69.1096 114.721 68.5043 115.326 68.5043 116.073C68.5043 116.82 69.1096 117.425 69.8562 117.425C70.6029 117.425 71.2082 116.82 71.2082 116.073C71.2082 115.326 70.6029 114.721 69.8562 114.721Z" fill="#0075FF"/>
<path d="M69.8562 93.8627C69.1096 93.8627 68.5043 94.4679 68.5043 95.2146C68.5043 95.9613 69.1096 96.5665 69.8562 96.5665C70.6029 96.5665 71.2082 95.9613 71.2082 95.2146C71.2082 94.4679 70.6029 93.8627 69.8562 93.8627Z" fill="#0075FF"/>
<path d="M69.8562 104.292C69.1096 104.292 68.5043 104.897 68.5043 105.644C68.5043 106.39 69.1096 106.996 69.8562 106.996C70.6029 106.996 71.2082 106.39 71.2082 105.644C71.2082 104.897 70.6029 104.292 69.8562 104.292Z" fill="#0075FF"/>
<path d="M69.8562 83.4335C69.1096 83.4335 68.5043 84.0388 68.5043 84.7854C68.5043 85.5321 69.1096 86.1373 69.8562 86.1373C70.6029 86.1373 71.2082 85.5321 71.2082 84.7854C71.2082 84.0388 70.6029 83.4335 69.8562 83.4335Z" fill="#0075FF"/>
<path d="M38.5687 177.296C37.822 177.296 37.2167 177.901 37.2167 178.648C37.2167 179.395 37.822 180 38.5687 180C39.3153 180 39.9206 179.395 39.9206 178.648C39.9206 177.901 39.3153 177.296 38.5687 177.296Z" fill="#0075FF"/>
<path d="M38.5687 166.867C37.822 166.867 37.2167 167.472 37.2167 168.219C37.2167 168.966 37.822 169.571 38.5687 169.571C39.3153 169.571 39.9206 168.966 39.9206 168.219C39.9206 167.472 39.3153 166.867 38.5687 166.867Z" fill="#0075FF"/>
<path d="M38.5687 156.438C37.822 156.438 37.2167 157.043 37.2167 157.79C37.2167 158.536 37.822 159.142 38.5687 159.142C39.3153 159.142 39.9206 158.536 39.9206 157.79C39.9206 157.043 39.3153 156.438 38.5687 156.438Z" fill="#0075FF"/>
<path d="M38.5687 146.009C37.822 146.009 37.2167 146.614 37.2167 147.361C37.2167 148.107 37.822 148.712 38.5687 148.712C39.3153 148.712 39.9206 148.107 39.9206 147.361C39.9206 146.614 39.3153 146.009 38.5687 146.009Z" fill="#0075FF"/>
<path d="M38.5687 135.579C37.822 135.579 37.2167 136.185 37.2167 136.931C37.2167 137.678 37.822 138.283 38.5687 138.283C39.3153 138.283 39.9206 137.678 39.9206 136.931C39.9206 136.185 39.3153 135.579 38.5687 135.579Z" fill="#0075FF"/>
<path d="M38.5687 125.15C37.822 125.15 37.2167 125.755 37.2167 126.502C37.2167 127.249 37.822 127.854 38.5687 127.854C39.3153 127.854 39.9206 127.249 39.9206 126.502C39.9206 125.755 39.3153 125.15 38.5687 125.15Z" fill="#0075FF"/>
<path d="M38.5687 114.721C37.822 114.721 37.2167 115.326 37.2167 116.073C37.2167 116.82 37.822 117.425 38.5687 117.425C39.3153 117.425 39.9206 116.82 39.9206 116.073C39.9206 115.326 39.3153 114.721 38.5687 114.721Z" fill="#0075FF"/>
<path d="M38.5687 93.8627C37.822 93.8627 37.2167 94.4679 37.2167 95.2146C37.2167 95.9613 37.822 96.5665 38.5687 96.5665C39.3153 96.5665 39.9206 95.9613 39.9206 95.2146C39.9206 94.4679 39.3153 93.8627 38.5687 93.8627Z" fill="#0075FF"/>
<path d="M38.5687 104.292C37.822 104.292 37.2167 104.897 37.2167 105.644C37.2167 106.39 37.822 106.996 38.5687 106.996C39.3153 106.996 39.9206 106.39 39.9206 105.644C39.9206 104.897 39.3153 104.292 38.5687 104.292Z" fill="#0075FF"/>
<path d="M38.5687 83.4335C37.822 83.4335 37.2167 84.0388 37.2167 84.7854C37.2167 85.5321 37.822 86.1373 38.5687 86.1373C39.3153 86.1373 39.9206 85.5321 39.9206 84.7854C39.9206 84.0388 39.3153 83.4335 38.5687 83.4335Z" fill="#0075FF"/>
<path d="M7.28112 177.296C6.53447 177.296 5.92918 177.901 5.92918 178.648C5.92918 179.395 6.53447 180 7.28112 180C8.02777 180 8.63304 179.395 8.63304 178.648C8.63304 177.901 8.02777 177.296 7.28112 177.296Z" fill="#0075FF"/>
<path d="M7.28112 166.867C6.53447 166.867 5.92918 167.472 5.92918 168.219C5.92918 168.966 6.53447 169.571 7.28112 169.571C8.02777 169.571 8.63304 168.966 8.63304 168.219C8.63304 167.472 8.02777 166.867 7.28112 166.867Z" fill="#0075FF"/>
<path d="M7.28112 156.438C6.53447 156.438 5.92918 157.043 5.92918 157.79C5.92918 158.536 6.53447 159.142 7.28112 159.142C8.02777 159.142 8.63304 158.536 8.63304 157.79C8.63304 157.043 8.02777 156.438 7.28112 156.438Z" fill="#0075FF"/>
<path d="M7.28112 146.009C6.53447 146.009 5.92918 146.614 5.92918 147.361C5.92918 148.107 6.53447 148.712 7.28112 148.712C8.02777 148.712 8.63304 148.107 8.63304 147.361C8.63304 146.614 8.02777 146.009 7.28112 146.009Z" fill="#0075FF"/>
<path d="M7.28112 135.579C6.53447 135.579 5.92918 136.185 5.92918 136.931C5.92918 137.678 6.53447 138.283 7.28112 138.283C8.02777 138.283 8.63304 137.678 8.63304 136.931C8.63304 136.185 8.02777 135.579 7.28112 135.579Z" fill="#0075FF"/>
<path d="M7.28112 125.15C6.53447 125.15 5.92918 125.755 5.92918 126.502C5.92918 127.249 6.53447 127.854 7.28112 127.854C8.02777 127.854 8.63304 127.249 8.63304 126.502C8.63304 125.755 8.02777 125.15 7.28112 125.15Z" fill="#0075FF"/>
<path d="M7.28112 114.721C6.53447 114.721 5.92918 115.326 5.92918 116.073C5.92918 116.82 6.53447 117.425 7.28112 117.425C8.02777 117.425 8.63304 116.82 8.63304 116.073C8.63304 115.326 8.02777 114.721 7.28112 114.721Z" fill="#0075FF"/>
<path d="M7.28112 93.8627C6.53447 93.8627 5.92918 94.4679 5.92918 95.2146C5.92918 95.9613 6.53447 96.5665 7.28112 96.5665C8.02777 96.5665 8.63304 95.9613 8.63304 95.2146C8.63304 94.4679 8.02777 93.8627 7.28112 93.8627Z" fill="#0075FF"/>
<path d="M7.28112 104.292C6.53447 104.292 5.92918 104.897 5.92918 105.644C5.92918 106.39 6.53447 106.996 7.28112 106.996C8.02777 106.996 8.63304 106.39 8.63304 105.644C8.63304 104.897 8.02777 104.292 7.28112 104.292Z" fill="#0075FF"/>
<path d="M7.28112 83.4335C6.53447 83.4335 5.92918 84.0388 5.92918 84.7854C5.92918 85.5321 6.53447 86.1373 7.28112 86.1373C8.02777 86.1373 8.63304 85.5321 8.63304 84.7854C8.63304 84.0388 8.02777 83.4335 7.28112 83.4335Z" fill="#0075FF"/>
<path d="M59.427 177.296C58.6804 177.296 58.0751 177.901 58.0751 178.648C58.0751 179.395 58.6804 180 59.427 180C60.1737 180 60.779 179.395 60.779 178.648C60.779 177.901 60.1737 177.296 59.427 177.296Z" fill="#0075FF"/>
<path d="M59.427 166.867C58.6804 166.867 58.0751 167.472 58.0751 168.219C58.0751 168.966 58.6804 169.571 59.427 169.571C60.1737 169.571 60.779 168.966 60.779 168.219C60.779 167.472 60.1737 166.867 59.427 166.867Z" fill="#0075FF"/>
<path d="M59.427 156.438C58.6804 156.438 58.0751 157.043 58.0751 157.79C58.0751 158.536 58.6804 159.142 59.427 159.142C60.1737 159.142 60.779 158.536 60.779 157.79C60.779 157.043 60.1737 156.438 59.427 156.438Z" fill="#0075FF"/>
<path d="M59.427 146.009C58.6804 146.009 58.0751 146.614 58.0751 147.361C58.0751 148.107 58.6804 148.712 59.427 148.712C60.1737 148.712 60.779 148.107 60.779 147.361C60.779 146.614 60.1737 146.009 59.427 146.009Z" fill="#0075FF"/>
<path d="M59.427 135.579C58.6804 135.579 58.0751 136.185 58.0751 136.931C58.0751 137.678 58.6804 138.283 59.427 138.283C60.1737 138.283 60.779 137.678 60.779 136.931C60.779 136.185 60.1737 135.579 59.427 135.579Z" fill="#0075FF"/>
<path d="M59.427 125.15C58.6804 125.15 58.0751 125.755 58.0751 126.502C58.0751 127.249 58.6804 127.854 59.427 127.854C60.1737 127.854 60.779 127.249 60.779 126.502C60.779 125.755 60.1737 125.15 59.427 125.15Z" fill="#0075FF"/>
<path d="M59.427 114.721C58.6804 114.721 58.0751 115.326 58.0751 116.073C58.0751 116.82 58.6804 117.425 59.427 117.425C60.1737 117.425 60.779 116.82 60.779 116.073C60.779 115.326 60.1737 114.721 59.427 114.721Z" fill="#0075FF"/>
<path d="M59.427 93.8627C58.6804 93.8627 58.0751 94.4679 58.0751 95.2146C58.0751 95.9613 58.6804 96.5665 59.427 96.5665C60.1737 96.5665 60.779 95.9613 60.779 95.2146C60.779 94.4679 60.1737 93.8627 59.427 93.8627Z" fill="#0075FF"/>
<path d="M59.427 104.292C58.6804 104.292 58.0751 104.897 58.0751 105.644C58.0751 106.39 58.6804 106.996 59.427 106.996C60.1737 106.996 60.779 106.39 60.779 105.644C60.779 104.897 60.1737 104.292 59.427 104.292Z" fill="#0075FF"/>
<path d="M59.427 83.4335C58.6804 83.4335 58.0751 84.0388 58.0751 84.7854C58.0751 85.5321 58.6804 86.1373 59.427 86.1373C60.1737 86.1373 60.779 85.5321 60.779 84.7854C60.779 84.0388 60.1737 83.4335 59.427 83.4335Z" fill="#0075FF"/>
<path d="M28.1395 177.296C27.3928 177.296 26.7876 177.901 26.7876 178.648C26.7876 179.395 27.3928 180 28.1395 180C28.8861 180 29.4914 179.395 29.4914 178.648C29.4914 177.901 28.8861 177.296 28.1395 177.296Z" fill="#0075FF"/>
<path d="M28.1395 166.867C27.3928 166.867 26.7876 167.472 26.7876 168.219C26.7876 168.966 27.3928 169.571 28.1395 169.571C28.8861 169.571 29.4914 168.966 29.4914 168.219C29.4914 167.472 28.8861 166.867 28.1395 166.867Z" fill="#0075FF"/>
<path d="M28.1395 156.438C27.3928 156.438 26.7876 157.043 26.7876 157.79C26.7876 158.536 27.3928 159.142 28.1395 159.142C28.8861 159.142 29.4914 158.536 29.4914 157.79C29.4914 157.043 28.8861 156.438 28.1395 156.438Z" fill="#0075FF"/>
<path d="M28.1395 146.009C27.3928 146.009 26.7876 146.614 26.7876 147.361C26.7876 148.107 27.3928 148.712 28.1395 148.712C28.8861 148.712 29.4914 148.107 29.4914 147.361C29.4914 146.614 28.8861 146.009 28.1395 146.009Z" fill="#0075FF"/>
<path d="M28.1395 135.579C27.3928 135.579 26.7876 136.185 26.7876 136.931C26.7876 137.678 27.3928 138.283 28.1395 138.283C28.8861 138.283 29.4914 137.678 29.4914 136.931C29.4914 136.185 28.8861 135.579 28.1395 135.579Z" fill="#0075FF"/>
<path d="M28.1395 125.15C27.3928 125.15 26.7876 125.755 26.7876 126.502C26.7876 127.249 27.3928 127.854 28.1395 127.854C28.8861 127.854 29.4914 127.249 29.4914 126.502C29.4914 125.755 28.8861 125.15 28.1395 125.15Z" fill="#0075FF"/>
<path d="M28.1395 114.721C27.3928 114.721 26.7876 115.326 26.7876 116.073C26.7876 116.82 27.3928 117.425 28.1395 117.425C28.8861 117.425 29.4914 116.82 29.4914 116.073C29.4914 115.326 28.8861 114.721 28.1395 114.721Z" fill="#0075FF"/>
<path d="M28.1395 93.8627C27.3928 93.8627 26.7876 94.4679 26.7876 95.2146C26.7876 95.9613 27.3928 96.5665 28.1395 96.5665C28.8861 96.5665 29.4914 95.9613 29.4914 95.2146C29.4914 94.4679 28.8861 93.8627 28.1395 93.8627Z" fill="#0075FF"/>
<path d="M28.1395 104.292C27.3928 104.292 26.7876 104.897 26.7876 105.644C26.7876 106.39 27.3928 106.996 28.1395 106.996C28.8861 106.996 29.4914 106.39 29.4914 105.644C29.4914 104.897 28.8861 104.292 28.1395 104.292Z" fill="#0075FF"/>
<path d="M28.1395 83.4335C27.3928 83.4335 26.7876 84.0388 26.7876 84.7854C26.7876 85.5321 27.3928 86.1373 28.1395 86.1373C28.8861 86.1373 29.4914 85.5321 29.4914 84.7854C29.4914 84.0388 28.8861 83.4335 28.1395 83.4335Z" fill="#0075FF"/>
<path d="M-3.14806 177.296C-3.89471 177.296 -4.5 177.901 -4.5 178.648C-4.5 179.395 -3.89471 180 -3.14806 180C-2.40141 180 -1.79614 179.395 -1.79614 178.648C-1.79614 177.901 -2.40141 177.296 -3.14806 177.296Z" fill="#0075FF"/>
<path d="M-3.14806 166.867C-3.89471 166.867 -4.5 167.472 -4.5 168.219C-4.5 168.966 -3.89471 169.571 -3.14806 169.571C-2.40141 169.571 -1.79614 168.966 -1.79614 168.219C-1.79614 167.472 -2.40141 166.867 -3.14806 166.867Z" fill="#0075FF"/>
<path d="M-3.14806 156.438C-3.89471 156.438 -4.5 157.043 -4.5 157.79C-4.5 158.536 -3.89471 159.142 -3.14806 159.142C-2.40141 159.142 -1.79614 158.536 -1.79614 157.79C-1.79614 157.043 -2.40141 156.438 -3.14806 156.438Z" fill="#0075FF"/>
<path d="M-3.14806 146.009C-3.89471 146.009 -4.5 146.614 -4.5 147.361C-4.5 148.107 -3.89471 148.712 -3.14806 148.712C-2.40141 148.712 -1.79614 148.107 -1.79614 147.361C-1.79614 146.614 -2.40141 146.009 -3.14806 146.009Z" fill="#0075FF"/>
<path d="M-3.14806 135.579C-3.89471 135.579 -4.5 136.185 -4.5 136.931C-4.5 137.678 -3.89471 138.283 -3.14806 138.283C-2.40141 138.283 -1.79614 137.678 -1.79614 136.931C-1.79614 136.185 -2.40141 135.579 -3.14806 135.579Z" fill="#0075FF"/>
<path d="M-3.14806 125.15C-3.89471 125.15 -4.5 125.755 -4.5 126.502C-4.5 127.249 -3.89471 127.854 -3.14806 127.854C-2.40141 127.854 -1.79614 127.249 -1.79614 126.502C-1.79614 125.755 -2.40141 125.15 -3.14806 125.15Z" fill="#0075FF"/>
<path d="M-3.14806 114.721C-3.89471 114.721 -4.5 115.326 -4.5 116.073C-4.5 116.82 -3.89471 117.425 -3.14806 117.425C-2.40141 117.425 -1.79614 116.82 -1.79614 116.073C-1.79614 115.326 -2.40141 114.721 -3.14806 114.721Z" fill="#0075FF"/>
<path d="M-3.14806 93.8627C-3.89471 93.8627 -4.5 94.4679 -4.5 95.2146C-4.5 95.9613 -3.89471 96.5665 -3.14806 96.5665C-2.40141 96.5665 -1.79614 95.9613 -1.79614 95.2146C-1.79614 94.4679 -2.40141 93.8627 -3.14806 93.8627Z" fill="#0075FF"/>
<path d="M-3.14806 104.292C-3.89471 104.292 -4.5 104.897 -4.5 105.644C-4.5 106.39 -3.89471 106.996 -3.14806 106.996C-2.40141 106.996 -1.79614 106.39 -1.79614 105.644C-1.79614 104.897 -2.40141 104.292 -3.14806 104.292Z" fill="#0075FF"/>
<path d="M-3.14806 83.4335C-3.89471 83.4335 -4.5 84.0388 -4.5 84.7854C-4.5 85.5321 -3.89471 86.1373 -3.14806 86.1373C-2.40141 86.1373 -1.79614 85.5321 -1.79614 84.7854C-1.79614 84.0388 -2.40141 83.4335 -3.14806 83.4335Z" fill="#0075FF"/>
<path d="M47.6459 74.3562C47.6459 73.6096 48.2512 73.0043 48.9979 73.0043C49.7445 73.0043 50.3498 73.6096 50.3498 74.3562C50.3498 75.1029 49.7445 75.7082 48.9979 75.7082C48.2512 75.7082 47.6459 75.1029 47.6459 74.3562Z" fill="#0075FF"/>
<path d="M47.6459 63.927C47.6459 63.1804 48.2512 62.5751 48.9979 62.5751C49.7445 62.5751 50.3498 63.1804 50.3498 63.927C50.3498 64.6737 49.7445 65.279 48.9979 65.279C48.2512 65.279 47.6459 64.6737 47.6459 63.927Z" fill="#0075FF"/>
<path d="M47.6459 53.4979C47.6459 52.7512 48.2512 52.1459 48.9979 52.1459C49.7445 52.1459 50.3498 52.7512 50.3498 53.4979C50.3498 54.2445 49.7445 54.8498 48.9979 54.8498C48.2512 54.8498 47.6459 54.2445 47.6459 53.4979Z" fill="#0075FF"/>
<path d="M16.3584 74.3562C16.3584 73.6096 16.9637 73.0043 17.7103 73.0043C18.4569 73.0043 19.0622 73.6096 19.0622 74.3562C19.0622 75.1029 18.4569 75.7082 17.7103 75.7082C16.9637 75.7082 16.3584 75.1029 16.3584 74.3562Z" fill="#0075FF"/>
<path d="M16.3584 63.927C16.3584 63.1804 16.9637 62.5751 17.7103 62.5751C18.4569 62.5751 19.0622 63.1804 19.0622 63.927C19.0622 64.6737 18.4569 65.279 17.7103 65.279C16.9637 65.279 16.3584 64.6737 16.3584 63.927Z" fill="#0075FF"/>
<path d="M16.3584 53.4979C16.3584 52.7512 16.9637 52.1459 17.7103 52.1459C18.4569 52.1459 19.0622 52.7512 19.0622 53.4979C19.0622 54.2445 18.4569 54.8498 17.7103 54.8498C16.9637 54.8498 16.3584 54.2445 16.3584 53.4979Z" fill="#0075FF"/>
<path d="M16.3584 43.0687C16.3584 42.322 16.9637 41.7167 17.7103 41.7167C18.4569 41.7167 19.0622 42.322 19.0622 43.0687C19.0622 43.8153 18.4569 44.4206 17.7103 44.4206C16.9637 44.4206 16.3584 43.8153 16.3584 43.0687Z" fill="#0075FF"/>
<path d="M16.3584 32.6395C16.3584 31.8929 16.9637 31.2876 17.7103 31.2876C18.4569 31.2876 19.0622 31.8929 19.0622 32.6395C19.0622 33.3861 18.4569 33.9914 17.7103 33.9914C16.9637 33.9914 16.3584 33.3861 16.3584 32.6395Z" fill="#0075FF"/>
<path d="M16.3584 22.2103C16.3584 21.4637 16.9637 20.8584 17.7103 20.8584C18.4569 20.8584 19.0622 21.4637 19.0622 22.2103C19.0622 22.957 18.4569 23.5622 17.7103 23.5622C16.9637 23.5622 16.3584 22.957 16.3584 22.2103Z" fill="#0075FF"/>
<path d="M68.5043 74.3562C68.5043 73.6096 69.1096 73.0043 69.8562 73.0043C70.6029 73.0043 71.2082 73.6096 71.2082 74.3562C71.2082 75.1029 70.6029 75.7082 69.8562 75.7082C69.1096 75.7082 68.5043 75.1029 68.5043 74.3562Z" fill="#0075FF"/>
<path d="M37.2167 74.3562C37.2167 73.6096 37.822 73.0043 38.5687 73.0043C39.3153 73.0043 39.9206 73.6096 39.9206 74.3562C39.9206 75.1029 39.3153 75.7082 38.5687 75.7082C37.822 75.7082 37.2167 75.1029 37.2167 74.3562Z" fill="#0075FF"/>
<path d="M37.2167 63.927C37.2167 63.1804 37.822 62.5751 38.5687 62.5751C39.3153 62.5751 39.9206 63.1804 39.9206 63.927C39.9206 64.6737 39.3153 65.279 38.5687 65.279C37.822 65.279 37.2167 64.6737 37.2167 63.927Z" fill="#0075FF"/>
<path d="M37.2167 53.4979C37.2167 52.7512 37.822 52.1459 38.5687 52.1459C39.3153 52.1459 39.9206 52.7512 39.9206 53.4979C39.9206 54.2445 39.3153 54.8498 38.5687 54.8498C37.822 54.8498 37.2167 54.2445 37.2167 53.4979Z" fill="#0075FF"/>
<path d="M37.2167 43.0687C37.2167 42.322 37.822 41.7167 38.5687 41.7167C39.3153 41.7167 39.9206 42.322 39.9206 43.0687C39.9206 43.8153 39.3153 44.4206 38.5687 44.4206C37.822 44.4206 37.2167 43.8153 37.2167 43.0687Z" fill="#0075FF"/>
<path d="M5.92918 74.3562C5.92918 73.6096 6.53447 73.0043 7.28112 73.0043C8.02777 73.0043 8.63304 73.6096 8.63304 74.3562C8.63304 75.1029 8.02777 75.7082 7.28112 75.7082C6.53447 75.7082 5.92918 75.1029 5.92918 74.3562Z" fill="#0075FF"/>
<path d="M5.92918 63.927C5.92918 63.1804 6.53447 62.5751 7.28112 62.5751C8.02777 62.5751 8.63304 63.1804 8.63304 63.927C8.63304 64.6737 8.02777 65.279 7.28112 65.279C6.53447 65.279 5.92918 64.6737 5.92918 63.927Z" fill="#0075FF"/>
<path d="M5.92918 53.4979C5.92918 52.7512 6.53447 52.1459 7.28112 52.1459C8.02777 52.1459 8.63304 52.7512 8.63304 53.4979C8.63304 54.2445 8.02777 54.8498 7.28112 54.8498C6.53447 54.8498 5.92918 54.2445 5.92918 53.4979Z" fill="#0075FF"/>
<path d="M5.92918 43.0687C5.92918 42.322 6.53447 41.7167 7.28112 41.7167C8.02777 41.7167 8.63304 42.322 8.63304 43.0687C8.63304 43.8153 8.02777 44.4206 7.28112 44.4206C6.53447 44.4206 5.92918 43.8153 5.92918 43.0687Z" fill="#0075FF"/>
<path d="M5.92918 32.6395C5.92918 31.8929 6.53447 31.2876 7.28112 31.2876C8.02777 31.2876 8.63304 31.8929 8.63304 32.6395C8.63304 33.3861 8.02777 33.9914 7.28112 33.9914C6.53447 33.9914 5.92918 33.3861 5.92918 32.6395Z" fill="#0075FF"/>
<path d="M5.92918 22.2103C5.92918 21.4637 6.53447 20.8584 7.28112 20.8584C8.02777 20.8584 8.63304 21.4637 8.63304 22.2103C8.63304 22.957 8.02777 23.5622 7.28112 23.5622C6.53447 23.5622 5.92918 22.957 5.92918 22.2103Z" fill="#0075FF"/>
<path d="M5.92918 11.7811C5.92918 11.0345 6.53447 10.4292 7.28112 10.4292C8.02777 10.4292 8.63304 11.0345 8.63304 11.7811C8.63304 12.5278 8.02777 13.1331 7.28112 13.1331C6.53447 13.1331 5.92918 12.5278 5.92918 11.7811Z" fill="#0075FF"/>
<path d="M58.0751 74.3562C58.0751 73.6096 58.6804 73.0043 59.427 73.0043C60.1737 73.0043 60.779 73.6096 60.779 74.3562C60.779 75.1029 60.1737 75.7082 59.427 75.7082C58.6804 75.7082 58.0751 75.1029 58.0751 74.3562Z" fill="#0075FF"/>
<path d="M58.0751 63.927C58.0751 63.1804 58.6804 62.5751 59.427 62.5751C60.1737 62.5751 60.779 63.1804 60.779 63.927C60.779 64.6737 60.1737 65.279 59.427 65.279C58.6804 65.279 58.0751 64.6737 58.0751 63.927Z" fill="#0075FF"/>
<path d="M26.7876 74.3562C26.7876 73.6096 27.3928 73.0043 28.1395 73.0043C28.8861 73.0043 29.4914 73.6096 29.4914 74.3562C29.4914 75.1029 28.8861 75.7082 28.1395 75.7082C27.3928 75.7082 26.7876 75.1029 26.7876 74.3562Z" fill="#0075FF"/>
<path d="M26.7876 63.927C26.7876 63.1804 27.3928 62.5751 28.1395 62.5751C28.8861 62.5751 29.4914 63.1804 29.4914 63.927C29.4914 64.6737 28.8861 65.279 28.1395 65.279C27.3928 65.279 26.7876 64.6737 26.7876 63.927Z" fill="#0075FF"/>
<path d="M26.7876 53.4979C26.7876 52.7512 27.3928 52.1459 28.1395 52.1459C28.8861 52.1459 29.4914 52.7512 29.4914 53.4979C29.4914 54.2445 28.8861 54.8498 28.1395 54.8498C27.3928 54.8498 26.7876 54.2445 26.7876 53.4979Z" fill="#0075FF"/>
<path d="M26.7876 43.0687C26.7876 42.322 27.3928 41.7167 28.1395 41.7167C28.8861 41.7167 29.4914 42.322 29.4914 43.0687C29.4914 43.8153 28.8861 44.4206 28.1395 44.4206C27.3928 44.4206 26.7876 43.8153 26.7876 43.0687Z" fill="#0075FF"/>
<path d="M26.7876 32.6395C26.7876 31.8929 27.3928 31.2876 28.1395 31.2876C28.8861 31.2876 29.4914 31.8929 29.4914 32.6395C29.4914 33.3861 28.8861 33.9914 28.1395 33.9914C27.3928 33.9914 26.7876 33.3861 26.7876 32.6395Z" fill="#0075FF"/>
<path d="M-4.5 74.3562C-4.5 73.6096 -3.89471 73.0043 -3.14806 73.0043C-2.40141 73.0043 -1.79614 73.6096 -1.79614 74.3562C-1.79614 75.1029 -2.40141 75.7082 -3.14806 75.7082C-3.89471 75.7082 -4.5 75.1029 -4.5 74.3562Z" fill="#0075FF"/>
<path d="M-4.5 63.927C-4.5 63.1804 -3.89471 62.5751 -3.14806 62.5751C-2.40141 62.5751 -1.79614 63.1804 -1.79614 63.927C-1.79614 64.6737 -2.40141 65.279 -3.14806 65.279C-3.89471 65.279 -4.5 64.6737 -4.5 63.927Z" fill="#0075FF"/>
<path d="M-4.5 53.4979C-4.5 52.7512 -3.89471 52.1459 -3.14806 52.1459C-2.40141 52.1459 -1.79614 52.7512 -1.79614 53.4979C-1.79614 54.2445 -2.40141 54.8498 -3.14806 54.8498C-3.89471 54.8498 -4.5 54.2445 -4.5 53.4979Z" fill="#0075FF"/>
<path d="M-4.5 43.0687C-4.5 42.322 -3.89471 41.7167 -3.14806 41.7167C-2.40141 41.7167 -1.79614 42.322 -1.79614 43.0687C-1.79614 43.8153 -2.40141 44.4206 -3.14806 44.4206C-3.89471 44.4206 -4.5 43.8153 -4.5 43.0687Z" fill="#0075FF"/>
<path d="M-4.5 32.6395C-4.5 31.8929 -3.89471 31.2876 -3.14806 31.2876C-2.40141 31.2876 -1.79614 31.8929 -1.79614 32.6395C-1.79614 33.3861 -2.40141 33.9914 -3.14806 33.9914C-3.89471 33.9914 -4.5 33.3861 -4.5 32.6395Z" fill="#0075FF"/>
<path d="M-4.5 22.2103C-4.5 21.4637 -3.89471 20.8584 -3.14806 20.8584C-2.40141 20.8584 -1.79614 21.4637 -1.79614 22.2103C-1.79614 22.957 -2.40141 23.5622 -3.14806 23.5622C-3.89471 23.5622 -4.5 22.957 -4.5 22.2103Z" fill="#0075FF"/>
<path d="M-4.5 11.7811C-4.5 11.0345 -3.89471 10.4292 -3.14806 10.4292C-2.40141 10.4292 -1.79614 11.0345 -1.79614 11.7811C-1.79614 12.5278 -2.40141 13.1331 -3.14806 13.1331C-3.89471 13.1331 -4.5 12.5278 -4.5 11.7811Z" fill="#0075FF"/>
<path d="M-4.5 1.35195C-4.5 0.6053 -3.89471 -1.18296e-06 -3.14806 -1.18296e-06C-2.40141 -1.18296e-06 -1.79614 0.6053 -1.79614 1.35195C-1.79614 2.09859 -2.40141 2.70388 -3.14806 2.70388C-3.89471 2.70388 -4.5 2.09859 -4.5 1.35195Z" fill="#0075FF"/>
</g>
</g>
</svg>
