<svg width="216" height="188" viewBox="0 0 216 188" fill="none" xmlns="http://www.w3.org/2000/svg">
<path d="M43.5548 149.191C39.4504 143.679 32.309 140.398 24.4159 140.398C12.3433 140.398 2.25516 148.896 -6.99874e-06 160.112L-1.20548e-06 27.5781C2.25517 38.8098 12.3583 47.2927 24.4611 47.2927C32.279 47.2927 39.5256 43.8641 43.8555 38.1152C62.5884 13.169 92.5671 -1.04805 124.049 0.0603472C173.919 1.819 215.173 43.1843 216 92.2492C216 92.7812 216 93.328 216 93.8601C216 118.644 206.303 141.95 188.592 159.64C170.506 177.714 146.33 187.689 120.531 187.689C90.2518 187.689 61.4759 173.295 43.5398 149.191L43.5548 149.191Z" fill="black"/>
</svg>
