<svg width="118" height="136" viewBox="0 0 118 136" fill="none" xmlns="http://www.w3.org/2000/svg">
<path d="M93.5013 27.4234C90.065 24.8391 88.0199 20.3427 88.0199 15.373C88.0199 7.7717 93.3171 1.41992 100.309 0L17.6914 0C24.6929 1.41992 29.9809 7.78116 29.9809 15.4014C29.9809 20.3238 27.8436 24.8865 24.2599 27.6127C8.70913 39.4075 -0.153327 58.283 0.537613 78.1051C1.6339 109.504 27.4198 135.479 58.0054 136C58.3371 136 58.6779 136 59.0096 136C74.459 136 88.9872 129.894 100.015 118.743C111.282 107.355 117.5 92.1339 117.5 75.89C117.5 56.8252 108.527 38.707 93.5013 27.4139L93.5013 27.4234Z" fill="#051229"/>
</svg>
