<svg width="305" height="349" viewBox="0 0 305 349" fill="none" xmlns="http://www.w3.org/2000/svg">
<path d="M62.5608 278.405C71.5186 285.031 76.8501 296.561 76.8501 309.304C76.8501 328.795 63.0411 345.081 44.8133 348.722L260.185 348.722C241.933 345.081 228.148 328.77 228.148 309.231C228.148 296.609 233.72 284.91 243.062 277.919C283.6 247.676 306.703 199.277 304.902 148.45C302.044 67.9386 234.824 1.33502 155.093 4.75118e-05C154.228 4.75874e-05 153.34 4.7665e-05 152.475 4.77406e-05C112.201 5.12615e-05 74.3284 15.6558 45.5818 44.2487C16.2107 73.4485 0.0002169 112.479 0.000220541 154.13C0.000224815 203.015 23.3914 249.472 62.5608 278.429L62.5608 278.405Z" fill="#131416"/>
</svg>
