<svg width="220" height="119" viewBox="0 0 220 119" fill="none" xmlns="http://www.w3.org/2000/svg">
<g clip-path="url(#clip0_2812_886)">
<mask id="mask0_2812_886" style="mask-type:alpha" maskUnits="userSpaceOnUse" x="0" y="-101" width="220" height="220">
<path d="M110 -101C170.751 -101 220 -51.7513 220 9C220 69.7513 170.751 119 110 119C49.2487 119 0 69.7513 0 9C0 -51.7513 49.2487 -101 110 -101ZM110 -39.8887C82.9994 -39.8887 61.1113 -18.0006 61.1113 9C61.1113 36.0006 82.9994 57.8887 110 57.8887C137.001 57.8887 158.889 36.0006 158.889 9C158.889 -18.0006 137.001 -39.8887 110 -39.8887Z" fill="#D9D9D9"/>
</mask>
<g mask="url(#mask0_2812_886)">
<g opacity="0.7">
<path d="M11.127 -99.3476C11.127 -98.4351 10.3872 -97.6953 9.47463 -97.6953C8.56205 -97.6953 7.82227 -98.4351 7.82227 -99.3476C7.82227 -100.26 8.56205 -101 9.47463 -101C10.3872 -101 11.127 -100.26 11.127 -99.3476Z" fill="#0075FF"/>
<path d="M49.3673 -99.3476C49.3673 -98.4351 48.6275 -97.6953 47.715 -97.6953C46.8024 -97.6953 46.0626 -98.4351 46.0626 -99.3476C46.0626 -100.26 46.8024 -101 47.715 -101C48.6275 -101 49.3673 -100.26 49.3673 -99.3476Z" fill="#0075FF"/>
<path d="M49.3673 -86.6009C49.3673 -85.6883 48.6275 -84.9485 47.715 -84.9485C46.8024 -84.9485 46.0626 -85.6883 46.0626 -86.6009C46.0626 -87.5134 46.8024 -88.2532 47.715 -88.2532C48.6275 -88.2532 49.3673 -87.5134 49.3673 -86.6009Z" fill="#0075FF"/>
<path d="M49.3673 -73.8541C49.3673 -72.9415 48.6275 -72.2017 47.715 -72.2017C46.8024 -72.2017 46.0626 -72.9415 46.0626 -73.8541C46.0626 -74.7667 46.8024 -75.5064 47.715 -75.5064C48.6275 -75.5064 49.3673 -74.7667 49.3673 -73.8541Z" fill="#0075FF"/>
<path d="M49.3673 -61.1073C49.3673 -60.1947 48.6275 -59.4549 47.715 -59.4549C46.8024 -59.4549 46.0626 -60.1947 46.0626 -61.1073C46.0626 -62.0199 46.8024 -62.7597 47.715 -62.7597C48.6275 -62.7597 49.3673 -62.0199 49.3673 -61.1073Z" fill="#0075FF"/>
<path d="M87.6077 -99.3476C87.6077 -98.4351 86.8679 -97.6953 85.9553 -97.6953C85.0427 -97.6953 84.3029 -98.4351 84.3029 -99.3476C84.3029 -100.26 85.0427 -101 85.9553 -101C86.8679 -101 87.6077 -100.26 87.6077 -99.3476Z" fill="#0075FF"/>
<path d="M87.6077 -86.6009C87.6077 -85.6883 86.8679 -84.9485 85.9553 -84.9485C85.0427 -84.9485 84.3029 -85.6883 84.3029 -86.6009C84.3029 -87.5134 85.0427 -88.2532 85.9553 -88.2532C86.8679 -88.2532 87.6077 -87.5134 87.6077 -86.6009Z" fill="#0075FF"/>
<path d="M87.6077 -73.8541C87.6077 -72.9415 86.8679 -72.2017 85.9553 -72.2017C85.0427 -72.2017 84.3029 -72.9415 84.3029 -73.8541C84.3029 -74.7667 85.0427 -75.5064 85.9553 -75.5064C86.8679 -75.5064 87.6077 -74.7667 87.6077 -73.8541Z" fill="#0075FF"/>
<path d="M87.6077 -61.1073C87.6077 -60.1947 86.8679 -59.4549 85.9553 -59.4549C85.0427 -59.4549 84.3029 -60.1947 84.3029 -61.1073C84.3029 -62.0199 85.0427 -62.7597 85.9553 -62.7597C86.8679 -62.7597 87.6077 -62.0199 87.6077 -61.1073Z" fill="#0075FF"/>
<path d="M87.6077 -48.3605C87.6077 -47.4479 86.8679 -46.7082 85.9553 -46.7082C85.0427 -46.7082 84.3029 -47.4479 84.3029 -48.3605C84.3029 -49.2731 85.0427 -50.0129 85.9553 -50.0129C86.8679 -50.0129 87.6077 -49.2731 87.6077 -48.3605Z" fill="#0075FF"/>
<path d="M87.6077 -35.6137C87.6077 -34.7012 86.8679 -33.9614 85.9553 -33.9614C85.0427 -33.9614 84.3029 -34.7012 84.3029 -35.6137C84.3029 -36.5263 85.0427 -37.2661 85.9553 -37.2661C86.8679 -37.2661 87.6077 -36.5263 87.6077 -35.6137Z" fill="#0075FF"/>
<path d="M87.6077 -22.867C87.6077 -21.9544 86.8679 -21.2146 85.9553 -21.2146C85.0427 -21.2146 84.3029 -21.9544 84.3029 -22.867C84.3029 -23.7795 85.0427 -24.5193 85.9553 -24.5193C86.8679 -24.5193 87.6077 -23.7795 87.6077 -22.867Z" fill="#0075FF"/>
<path d="M23.8738 -99.3476C23.8738 -98.4351 23.134 -97.6953 22.2214 -97.6953C21.3088 -97.6953 20.569 -98.4351 20.569 -99.3476C20.569 -100.26 21.3088 -101 22.2214 -101C23.134 -101 23.8738 -100.26 23.8738 -99.3476Z" fill="#0075FF"/>
<path d="M23.8738 -86.6009C23.8738 -85.6883 23.134 -84.9485 22.2214 -84.9485C21.3088 -84.9485 20.569 -85.6883 20.569 -86.6009C20.569 -87.5134 21.3088 -88.2532 22.2214 -88.2532C23.134 -88.2532 23.8738 -87.5134 23.8738 -86.6009Z" fill="#0075FF"/>
<path d="M62.1141 -99.3476C62.1141 -98.4351 61.3743 -97.6953 60.4618 -97.6953C59.5492 -97.6953 58.8094 -98.4351 58.8094 -99.3476C58.8094 -100.26 59.5492 -101 60.4618 -101C61.3743 -101 62.1141 -100.26 62.1141 -99.3476Z" fill="#0075FF"/>
<path d="M62.1141 -86.6009C62.1141 -85.6883 61.3743 -84.9485 60.4618 -84.9485C59.5492 -84.9485 58.8094 -85.6883 58.8094 -86.6009C58.8094 -87.5134 59.5492 -88.2532 60.4618 -88.2532C61.3743 -88.2532 62.1141 -87.5134 62.1141 -86.6009Z" fill="#0075FF"/>
<path d="M62.1141 -73.8541C62.1141 -72.9415 61.3743 -72.2017 60.4618 -72.2017C59.5492 -72.2017 58.8094 -72.9415 58.8094 -73.8541C58.8094 -74.7667 59.5492 -75.5064 60.4618 -75.5064C61.3743 -75.5064 62.1141 -74.7667 62.1141 -73.8541Z" fill="#0075FF"/>
<path d="M62.1141 -61.1073C62.1141 -60.1947 61.3743 -59.4549 60.4618 -59.4549C59.5492 -59.4549 58.8094 -60.1947 58.8094 -61.1073C58.8094 -62.0199 59.5492 -62.7597 60.4618 -62.7597C61.3743 -62.7597 62.1141 -62.0199 62.1141 -61.1073Z" fill="#0075FF"/>
<path d="M62.1141 -48.3605C62.1141 -47.4479 61.3743 -46.7082 60.4618 -46.7082C59.5492 -46.7082 58.8094 -47.4479 58.8094 -48.3605C58.8094 -49.2731 59.5492 -50.0129 60.4618 -50.0129C61.3743 -50.0129 62.1141 -49.2731 62.1141 -48.3605Z" fill="#0075FF"/>
<path d="M100.354 -99.3476C100.354 -98.4351 99.6147 -97.6953 98.7021 -97.6953C97.7895 -97.6953 97.0497 -98.4351 97.0497 -99.3476C97.0497 -100.26 97.7895 -101 98.7021 -101C99.6147 -101 100.354 -100.26 100.354 -99.3476Z" fill="#0075FF"/>
<path d="M100.354 -86.6009C100.354 -85.6883 99.6147 -84.9485 98.7021 -84.9485C97.7895 -84.9485 97.0497 -85.6883 97.0497 -86.6009C97.0497 -87.5134 97.7895 -88.2532 98.7021 -88.2532C99.6147 -88.2532 100.354 -87.5134 100.354 -86.6009Z" fill="#0075FF"/>
<path d="M100.354 -73.8541C100.354 -72.9415 99.6147 -72.2017 98.7021 -72.2017C97.7895 -72.2017 97.0497 -72.9415 97.0497 -73.8541C97.0497 -74.7667 97.7895 -75.5064 98.7021 -75.5064C99.6147 -75.5064 100.354 -74.7667 100.354 -73.8541Z" fill="#0075FF"/>
<path d="M100.354 -61.1073C100.354 -60.1947 99.6147 -59.4549 98.7021 -59.4549C97.7895 -59.4549 97.0497 -60.1947 97.0497 -61.1073C97.0497 -62.0199 97.7895 -62.7597 98.7021 -62.7597C99.6147 -62.7597 100.354 -62.0199 100.354 -61.1073Z" fill="#0075FF"/>
<path d="M100.354 -48.3605C100.354 -47.4479 99.6147 -46.7082 98.7021 -46.7082C97.7895 -46.7082 97.0497 -47.4479 97.0497 -48.3605C97.0497 -49.2731 97.7895 -50.0129 98.7021 -50.0129C99.6147 -50.0129 100.354 -49.2731 100.354 -48.3605Z" fill="#0075FF"/>
<path d="M100.354 -35.6137C100.354 -34.7012 99.6147 -33.9614 98.7021 -33.9614C97.7895 -33.9614 97.0497 -34.7012 97.0497 -35.6137C97.0497 -36.5263 97.7895 -37.2661 98.7021 -37.2661C99.6147 -37.2661 100.354 -36.5263 100.354 -35.6137Z" fill="#0075FF"/>
<path d="M100.354 -22.867C100.354 -21.9544 99.6147 -21.2146 98.7021 -21.2146C97.7895 -21.2146 97.0497 -21.9544 97.0497 -22.867C97.0497 -23.7795 97.7895 -24.5193 98.7021 -24.5193C99.6147 -24.5193 100.354 -23.7795 100.354 -22.867Z" fill="#0075FF"/>
<path d="M100.354 -10.1202C100.354 -9.20761 99.6147 -8.46781 98.7021 -8.46781C97.7895 -8.46781 97.0497 -9.20761 97.0497 -10.1202C97.0497 -11.0328 97.7895 -11.7725 98.7021 -11.7725C99.6147 -11.7725 100.354 -11.0328 100.354 -10.1202Z" fill="#0075FF"/>
<path d="M36.6206 -99.3476C36.6206 -98.4351 35.8808 -97.6953 34.9682 -97.6953C34.0556 -97.6953 33.3158 -98.4351 33.3158 -99.3476C33.3158 -100.26 34.0556 -101 34.9682 -101C35.8808 -101 36.6206 -100.26 36.6206 -99.3476Z" fill="#0075FF"/>
<path d="M36.6206 -86.6009C36.6206 -85.6883 35.8808 -84.9485 34.9682 -84.9485C34.0556 -84.9485 33.3158 -85.6883 33.3158 -86.6009C33.3158 -87.5134 34.0556 -88.2532 34.9682 -88.2532C35.8808 -88.2532 36.6206 -87.5134 36.6206 -86.6009Z" fill="#0075FF"/>
<path d="M36.6206 -73.8541C36.6206 -72.9415 35.8808 -72.2017 34.9682 -72.2017C34.0556 -72.2017 33.3158 -72.9415 33.3158 -73.8541C33.3158 -74.7667 34.0556 -75.5064 34.9682 -75.5064C35.8808 -75.5064 36.6206 -74.7667 36.6206 -73.8541Z" fill="#0075FF"/>
<path d="M74.8609 -99.3476C74.8609 -98.4351 74.1211 -97.6953 73.2085 -97.6953C72.296 -97.6953 71.5562 -98.4351 71.5562 -99.3476C71.5562 -100.26 72.296 -101 73.2085 -101C74.1211 -101 74.8609 -100.26 74.8609 -99.3476Z" fill="#0075FF"/>
<path d="M74.8609 -86.6009C74.8609 -85.6883 74.1211 -84.9485 73.2085 -84.9485C72.296 -84.9485 71.5562 -85.6883 71.5562 -86.6009C71.5562 -87.5134 72.296 -88.2532 73.2085 -88.2532C74.1211 -88.2532 74.8609 -87.5134 74.8609 -86.6009Z" fill="#0075FF"/>
<path d="M74.8609 -73.8541C74.8609 -72.9415 74.1211 -72.2017 73.2085 -72.2017C72.296 -72.2017 71.5562 -72.9415 71.5562 -73.8541C71.5562 -74.7667 72.296 -75.5064 73.2085 -75.5064C74.1211 -75.5064 74.8609 -74.7667 74.8609 -73.8541Z" fill="#0075FF"/>
<path d="M74.8609 -61.1073C74.8609 -60.1947 74.1211 -59.4549 73.2085 -59.4549C72.296 -59.4549 71.5562 -60.1947 71.5562 -61.1073C71.5562 -62.0199 72.296 -62.7597 73.2085 -62.7597C74.1211 -62.7597 74.8609 -62.0199 74.8609 -61.1073Z" fill="#0075FF"/>
<path d="M74.8609 -48.3605C74.8609 -47.4479 74.1211 -46.7082 73.2085 -46.7082C72.296 -46.7082 71.5562 -47.4479 71.5562 -48.3605C71.5562 -49.2731 72.296 -50.0129 73.2085 -50.0129C74.1211 -50.0129 74.8609 -49.2731 74.8609 -48.3605Z" fill="#0075FF"/>
<path d="M74.8609 -35.6137C74.8609 -34.7012 74.1211 -33.9614 73.2085 -33.9614C72.296 -33.9614 71.5562 -34.7012 71.5562 -35.6137C71.5562 -36.5263 72.296 -37.2661 73.2085 -37.2661C74.1211 -37.2661 74.8609 -36.5263 74.8609 -35.6137Z" fill="#0075FF"/>
<path d="M113.101 -99.3476C113.101 -98.4351 112.361 -97.6953 111.449 -97.6953C110.536 -97.6953 109.797 -98.4351 109.797 -99.3476C109.797 -100.26 110.536 -101 111.449 -101C112.361 -101 113.101 -100.26 113.101 -99.3476Z" fill="#0075FF"/>
<path d="M113.101 -86.6009C113.101 -85.6883 112.361 -84.9485 111.449 -84.9485C110.536 -84.9485 109.797 -85.6883 109.797 -86.6009C109.797 -87.5134 110.536 -88.2532 111.449 -88.2532C112.361 -88.2532 113.101 -87.5134 113.101 -86.6009Z" fill="#0075FF"/>
<path d="M113.101 -73.8541C113.101 -72.9415 112.361 -72.2017 111.449 -72.2017C110.536 -72.2017 109.797 -72.9415 109.797 -73.8541C109.797 -74.7667 110.536 -75.5064 111.449 -75.5064C112.361 -75.5064 113.101 -74.7667 113.101 -73.8541Z" fill="#0075FF"/>
<path d="M113.101 -61.1073C113.101 -60.1947 112.361 -59.4549 111.449 -59.4549C110.536 -59.4549 109.797 -60.1947 109.797 -61.1073C109.797 -62.0199 110.536 -62.7597 111.449 -62.7597C112.361 -62.7597 113.101 -62.0199 113.101 -61.1073Z" fill="#0075FF"/>
<path d="M113.101 -48.3605C113.101 -47.4479 112.361 -46.7082 111.449 -46.7082C110.536 -46.7082 109.797 -47.4479 109.797 -48.3605C109.797 -49.2731 110.536 -50.0129 111.449 -50.0129C112.361 -50.0129 113.101 -49.2731 113.101 -48.3605Z" fill="#0075FF"/>
<path d="M113.101 -35.6137C113.101 -34.7012 112.361 -33.9614 111.449 -33.9614C110.536 -33.9614 109.797 -34.7012 109.797 -35.6137C109.797 -36.5263 110.536 -37.2661 111.449 -37.2661C112.361 -37.2661 113.101 -36.5263 113.101 -35.6137Z" fill="#0075FF"/>
<path d="M113.101 -22.867C113.101 -21.9544 112.361 -21.2146 111.449 -21.2146C110.536 -21.2146 109.797 -21.9544 109.797 -22.867C109.797 -23.7795 110.536 -24.5193 111.449 -24.5193C112.361 -24.5193 113.101 -23.7795 113.101 -22.867Z" fill="#0075FF"/>
<path d="M113.101 2.62659C113.101 3.53917 112.361 4.27896 111.449 4.27896C110.536 4.27896 109.797 3.53917 109.797 2.62659C109.797 1.71402 110.536 0.974236 111.449 0.974236C112.361 0.974236 113.101 1.71402 113.101 2.62659Z" fill="#0075FF"/>
<path d="M113.101 -10.1202C113.101 -9.20761 112.361 -8.46781 111.449 -8.46781C110.536 -8.46781 109.797 -9.20761 109.797 -10.1202C109.797 -11.0328 110.536 -11.7725 111.449 -11.7725C112.361 -11.7725 113.101 -11.0328 113.101 -10.1202Z" fill="#0075FF"/>
<path d="M124.196 -97.6953C125.108 -97.6953 125.848 -98.4351 125.848 -99.3476C125.848 -100.26 125.108 -101 124.196 -101C123.283 -101 122.543 -100.26 122.543 -99.3476C122.543 -98.4351 123.283 -97.6953 124.196 -97.6953Z" fill="#0075FF"/>
<path d="M124.196 -84.9485C125.108 -84.9485 125.848 -85.6883 125.848 -86.6009C125.848 -87.5134 125.108 -88.2532 124.196 -88.2532C123.283 -88.2532 122.543 -87.5134 122.543 -86.6009C122.543 -85.6883 123.283 -84.9485 124.196 -84.9485Z" fill="#0075FF"/>
<path d="M124.196 -72.2017C125.108 -72.2017 125.848 -72.9415 125.848 -73.8541C125.848 -74.7667 125.108 -75.5064 124.196 -75.5064C123.283 -75.5064 122.543 -74.7667 122.543 -73.8541C122.543 -72.9415 123.283 -72.2017 124.196 -72.2017Z" fill="#0075FF"/>
<path d="M124.196 -59.4549C125.108 -59.4549 125.848 -60.1947 125.848 -61.1073C125.848 -62.0199 125.108 -62.7597 124.196 -62.7597C123.283 -62.7597 122.543 -62.0199 122.543 -61.1073C122.543 -60.1947 123.283 -59.4549 124.196 -59.4549Z" fill="#0075FF"/>
<path d="M124.196 -46.7082C125.108 -46.7082 125.848 -47.4479 125.848 -48.3605C125.848 -49.2731 125.108 -50.0129 124.196 -50.0129C123.283 -50.0129 122.543 -49.2731 122.543 -48.3605C122.543 -47.4479 123.283 -46.7082 124.196 -46.7082Z" fill="#0075FF"/>
<path d="M124.196 -33.9614C125.108 -33.9614 125.848 -34.7012 125.848 -35.6137C125.848 -36.5263 125.108 -37.2661 124.196 -37.2661C123.283 -37.2661 122.543 -36.5263 122.543 -35.6137C122.543 -34.7012 123.283 -33.9614 124.196 -33.9614Z" fill="#0075FF"/>
<path d="M124.196 -21.2146C125.108 -21.2146 125.848 -21.9544 125.848 -22.867C125.848 -23.7795 125.108 -24.5193 124.196 -24.5193C123.283 -24.5193 122.543 -23.7795 122.543 -22.867C122.543 -21.9544 123.283 -21.2146 124.196 -21.2146Z" fill="#0075FF"/>
<path d="M124.196 4.27896C125.108 4.27896 125.848 3.53917 125.848 2.62659C125.848 1.71402 125.108 0.974236 124.196 0.974236C123.283 0.974236 122.543 1.71402 122.543 2.62659C122.543 3.53917 123.283 4.27896 124.196 4.27896Z" fill="#0075FF"/>
<path d="M124.196 -8.46781C125.108 -8.46781 125.848 -9.20761 125.848 -10.1202C125.848 -11.0328 125.108 -11.7725 124.196 -11.7725C123.283 -11.7725 122.543 -11.0328 122.543 -10.1202C122.543 -9.20761 123.283 -8.46781 124.196 -8.46781Z" fill="#0075FF"/>
<path d="M124.196 17.0257C125.108 17.0257 125.848 16.286 125.848 15.3734C125.848 14.4608 125.108 13.721 124.196 13.721C123.283 13.721 122.543 14.4608 122.543 15.3734C122.543 16.286 123.283 17.0257 124.196 17.0257Z" fill="#0075FF"/>
<path d="M162.436 -97.6953C163.349 -97.6953 164.088 -98.4351 164.088 -99.3476C164.088 -100.26 163.349 -101 162.436 -101C161.523 -101 160.784 -100.26 160.784 -99.3476C160.784 -98.4351 161.523 -97.6953 162.436 -97.6953Z" fill="#0075FF"/>
<path d="M162.436 -84.9485C163.349 -84.9485 164.088 -85.6883 164.088 -86.6009C164.088 -87.5134 163.349 -88.2532 162.436 -88.2532C161.523 -88.2532 160.784 -87.5134 160.784 -86.6009C160.784 -85.6883 161.523 -84.9485 162.436 -84.9485Z" fill="#0075FF"/>
<path d="M162.436 -72.2017C163.349 -72.2017 164.088 -72.9415 164.088 -73.8541C164.088 -74.7667 163.349 -75.5064 162.436 -75.5064C161.523 -75.5064 160.784 -74.7667 160.784 -73.8541C160.784 -72.9415 161.523 -72.2017 162.436 -72.2017Z" fill="#0075FF"/>
<path d="M162.436 -59.4549C163.349 -59.4549 164.088 -60.1947 164.088 -61.1073C164.088 -62.0199 163.349 -62.7597 162.436 -62.7597C161.523 -62.7597 160.784 -62.0199 160.784 -61.1073C160.784 -60.1947 161.523 -59.4549 162.436 -59.4549Z" fill="#0075FF"/>
<path d="M162.436 -46.7082C163.349 -46.7082 164.088 -47.4479 164.088 -48.3605C164.088 -49.2731 163.349 -50.0129 162.436 -50.0129C161.523 -50.0129 160.784 -49.2731 160.784 -48.3605C160.784 -47.4479 161.523 -46.7082 162.436 -46.7082Z" fill="#0075FF"/>
<path d="M162.436 -33.9614C163.349 -33.9614 164.088 -34.7012 164.088 -35.6137C164.088 -36.5263 163.349 -37.2661 162.436 -37.2661C161.523 -37.2661 160.784 -36.5263 160.784 -35.6137C160.784 -34.7012 161.523 -33.9614 162.436 -33.9614Z" fill="#0075FF"/>
<path d="M162.436 -21.2146C163.349 -21.2146 164.088 -21.9544 164.088 -22.867C164.088 -23.7795 163.349 -24.5193 162.436 -24.5193C161.523 -24.5193 160.784 -23.7795 160.784 -22.867C160.784 -21.9544 161.523 -21.2146 162.436 -21.2146Z" fill="#0075FF"/>
<path d="M162.436 4.27896C163.349 4.27896 164.088 3.53917 164.088 2.62659C164.088 1.71402 163.349 0.974236 162.436 0.974236C161.523 0.974236 160.784 1.71402 160.784 2.62659C160.784 3.53917 161.523 4.27896 162.436 4.27896Z" fill="#0075FF"/>
<path d="M162.436 -8.46781C163.349 -8.46781 164.088 -9.20761 164.088 -10.1202C164.088 -11.0328 163.349 -11.7725 162.436 -11.7725C161.523 -11.7725 160.784 -11.0328 160.784 -10.1202C160.784 -9.20761 161.523 -8.46781 162.436 -8.46781Z" fill="#0075FF"/>
<path d="M162.436 17.0257C163.349 17.0257 164.088 16.286 164.088 15.3734C164.088 14.4608 163.349 13.721 162.436 13.721C161.523 13.721 160.784 14.4608 160.784 15.3734C160.784 16.286 161.523 17.0257 162.436 17.0257Z" fill="#0075FF"/>
<path d="M200.676 -97.6953C201.589 -97.6953 202.329 -98.4351 202.329 -99.3476C202.329 -100.26 201.589 -101 200.676 -101C199.764 -101 199.024 -100.26 199.024 -99.3476C199.024 -98.4351 199.764 -97.6953 200.676 -97.6953Z" fill="#0075FF"/>
<path d="M200.676 -84.9485C201.589 -84.9485 202.329 -85.6883 202.329 -86.6009C202.329 -87.5134 201.589 -88.2532 200.676 -88.2532C199.764 -88.2532 199.024 -87.5134 199.024 -86.6009C199.024 -85.6883 199.764 -84.9485 200.676 -84.9485Z" fill="#0075FF"/>
<path d="M200.676 -72.2017C201.589 -72.2017 202.329 -72.9415 202.329 -73.8541C202.329 -74.7667 201.589 -75.5064 200.676 -75.5064C199.764 -75.5064 199.024 -74.7667 199.024 -73.8541C199.024 -72.9415 199.764 -72.2017 200.676 -72.2017Z" fill="#0075FF"/>
<path d="M200.676 -59.4549C201.589 -59.4549 202.329 -60.1947 202.329 -61.1073C202.329 -62.0199 201.589 -62.7597 200.676 -62.7597C199.764 -62.7597 199.024 -62.0199 199.024 -61.1073C199.024 -60.1947 199.764 -59.4549 200.676 -59.4549Z" fill="#0075FF"/>
<path d="M200.676 -46.7082C201.589 -46.7082 202.329 -47.4479 202.329 -48.3605C202.329 -49.2731 201.589 -50.0129 200.676 -50.0129C199.764 -50.0129 199.024 -49.2731 199.024 -48.3605C199.024 -47.4479 199.764 -46.7082 200.676 -46.7082Z" fill="#0075FF"/>
<path d="M200.676 -33.9614C201.589 -33.9614 202.329 -34.7012 202.329 -35.6137C202.329 -36.5263 201.589 -37.2661 200.676 -37.2661C199.764 -37.2661 199.024 -36.5263 199.024 -35.6137C199.024 -34.7012 199.764 -33.9614 200.676 -33.9614Z" fill="#0075FF"/>
<path d="M200.676 -21.2146C201.589 -21.2146 202.329 -21.9544 202.329 -22.867C202.329 -23.7795 201.589 -24.5193 200.676 -24.5193C199.764 -24.5193 199.024 -23.7795 199.024 -22.867C199.024 -21.9544 199.764 -21.2146 200.676 -21.2146Z" fill="#0075FF"/>
<path d="M200.676 4.27896C201.589 4.27896 202.329 3.53917 202.329 2.62659C202.329 1.71402 201.589 0.974236 200.676 0.974236C199.764 0.974236 199.024 1.71402 199.024 2.62659C199.024 3.53917 199.764 4.27896 200.676 4.27896Z" fill="#0075FF"/>
<path d="M200.676 -8.46781C201.589 -8.46781 202.329 -9.20761 202.329 -10.1202C202.329 -11.0328 201.589 -11.7725 200.676 -11.7725C199.764 -11.7725 199.024 -11.0328 199.024 -10.1202C199.024 -9.20761 199.764 -8.46781 200.676 -8.46781Z" fill="#0075FF"/>
<path d="M200.676 17.0257C201.589 17.0257 202.329 16.286 202.329 15.3734C202.329 14.4608 201.589 13.721 200.676 13.721C199.764 13.721 199.024 14.4608 199.024 15.3734C199.024 16.286 199.764 17.0257 200.676 17.0257Z" fill="#0075FF"/>
<path d="M136.942 -97.6953C137.855 -97.6953 138.595 -98.4351 138.595 -99.3476C138.595 -100.26 137.855 -101 136.942 -101C136.03 -101 135.29 -100.26 135.29 -99.3476C135.29 -98.4351 136.03 -97.6953 136.942 -97.6953Z" fill="#0075FF"/>
<path d="M136.942 -84.9485C137.855 -84.9485 138.595 -85.6883 138.595 -86.6009C138.595 -87.5134 137.855 -88.2532 136.942 -88.2532C136.03 -88.2532 135.29 -87.5134 135.29 -86.6009C135.29 -85.6883 136.03 -84.9485 136.942 -84.9485Z" fill="#0075FF"/>
<path d="M136.942 -72.2017C137.855 -72.2017 138.595 -72.9415 138.595 -73.8541C138.595 -74.7667 137.855 -75.5064 136.942 -75.5064C136.03 -75.5064 135.29 -74.7667 135.29 -73.8541C135.29 -72.9415 136.03 -72.2017 136.942 -72.2017Z" fill="#0075FF"/>
<path d="M136.942 -59.4549C137.855 -59.4549 138.595 -60.1947 138.595 -61.1073C138.595 -62.0199 137.855 -62.7597 136.942 -62.7597C136.03 -62.7597 135.29 -62.0199 135.29 -61.1073C135.29 -60.1947 136.03 -59.4549 136.942 -59.4549Z" fill="#0075FF"/>
<path d="M136.942 -46.7082C137.855 -46.7082 138.595 -47.4479 138.595 -48.3605C138.595 -49.2731 137.855 -50.0129 136.942 -50.0129C136.03 -50.0129 135.29 -49.2731 135.29 -48.3605C135.29 -47.4479 136.03 -46.7082 136.942 -46.7082Z" fill="#0075FF"/>
<path d="M136.942 -33.9614C137.855 -33.9614 138.595 -34.7012 138.595 -35.6137C138.595 -36.5263 137.855 -37.2661 136.942 -37.2661C136.03 -37.2661 135.29 -36.5263 135.29 -35.6137C135.29 -34.7012 136.03 -33.9614 136.942 -33.9614Z" fill="#0075FF"/>
<path d="M136.942 -21.2146C137.855 -21.2146 138.595 -21.9544 138.595 -22.867C138.595 -23.7795 137.855 -24.5193 136.942 -24.5193C136.03 -24.5193 135.29 -23.7795 135.29 -22.867C135.29 -21.9544 136.03 -21.2146 136.942 -21.2146Z" fill="#0075FF"/>
<path d="M136.942 4.27896C137.855 4.27896 138.595 3.53917 138.595 2.62659C138.595 1.71402 137.855 0.974236 136.942 0.974236C136.03 0.974236 135.29 1.71402 135.29 2.62659C135.29 3.53917 136.03 4.27896 136.942 4.27896Z" fill="#0075FF"/>
<path d="M136.942 -8.46781C137.855 -8.46781 138.595 -9.20761 138.595 -10.1202C138.595 -11.0328 137.855 -11.7725 136.942 -11.7725C136.03 -11.7725 135.29 -11.0328 135.29 -10.1202C135.29 -9.20761 136.03 -8.46781 136.942 -8.46781Z" fill="#0075FF"/>
<path d="M136.942 17.0257C137.855 17.0257 138.595 16.286 138.595 15.3734C138.595 14.4608 137.855 13.721 136.942 13.721C136.03 13.721 135.29 14.4608 135.29 15.3734C135.29 16.286 136.03 17.0257 136.942 17.0257Z" fill="#0075FF"/>
<path d="M175.183 -97.6953C176.095 -97.6953 176.835 -98.4351 176.835 -99.3476C176.835 -100.26 176.095 -101 175.183 -101C174.27 -101 173.53 -100.26 173.53 -99.3476C173.53 -98.4351 174.27 -97.6953 175.183 -97.6953Z" fill="#0075FF"/>
<path d="M175.183 -84.9485C176.095 -84.9485 176.835 -85.6883 176.835 -86.6009C176.835 -87.5134 176.095 -88.2532 175.183 -88.2532C174.27 -88.2532 173.53 -87.5134 173.53 -86.6009C173.53 -85.6883 174.27 -84.9485 175.183 -84.9485Z" fill="#0075FF"/>
<path d="M175.183 -72.2017C176.095 -72.2017 176.835 -72.9415 176.835 -73.8541C176.835 -74.7667 176.095 -75.5064 175.183 -75.5064C174.27 -75.5064 173.53 -74.7667 173.53 -73.8541C173.53 -72.9415 174.27 -72.2017 175.183 -72.2017Z" fill="#0075FF"/>
<path d="M175.183 -59.4549C176.095 -59.4549 176.835 -60.1947 176.835 -61.1073C176.835 -62.0199 176.095 -62.7597 175.183 -62.7597C174.27 -62.7597 173.53 -62.0199 173.53 -61.1073C173.53 -60.1947 174.27 -59.4549 175.183 -59.4549Z" fill="#0075FF"/>
<path d="M175.183 -46.7082C176.095 -46.7082 176.835 -47.4479 176.835 -48.3605C176.835 -49.2731 176.095 -50.0129 175.183 -50.0129C174.27 -50.0129 173.53 -49.2731 173.53 -48.3605C173.53 -47.4479 174.27 -46.7082 175.183 -46.7082Z" fill="#0075FF"/>
<path d="M175.183 -33.9614C176.095 -33.9614 176.835 -34.7012 176.835 -35.6137C176.835 -36.5263 176.095 -37.2661 175.183 -37.2661C174.27 -37.2661 173.53 -36.5263 173.53 -35.6137C173.53 -34.7012 174.27 -33.9614 175.183 -33.9614Z" fill="#0075FF"/>
<path d="M175.183 -21.2146C176.095 -21.2146 176.835 -21.9544 176.835 -22.867C176.835 -23.7795 176.095 -24.5193 175.183 -24.5193C174.27 -24.5193 173.53 -23.7795 173.53 -22.867C173.53 -21.9544 174.27 -21.2146 175.183 -21.2146Z" fill="#0075FF"/>
<path d="M175.183 4.27896C176.095 4.27896 176.835 3.53917 176.835 2.62659C176.835 1.71402 176.095 0.974236 175.183 0.974236C174.27 0.974236 173.53 1.71402 173.53 2.62659C173.53 3.53917 174.27 4.27896 175.183 4.27896Z" fill="#0075FF"/>
<path d="M175.183 -8.46781C176.095 -8.46781 176.835 -9.20761 176.835 -10.1202C176.835 -11.0328 176.095 -11.7725 175.183 -11.7725C174.27 -11.7725 173.53 -11.0328 173.53 -10.1202C173.53 -9.20761 174.27 -8.46781 175.183 -8.46781Z" fill="#0075FF"/>
<path d="M175.183 17.0257C176.095 17.0257 176.835 16.286 176.835 15.3734C176.835 14.4608 176.095 13.721 175.183 13.721C174.27 13.721 173.53 14.4608 173.53 15.3734C173.53 16.286 174.27 17.0257 175.183 17.0257Z" fill="#0075FF"/>
<path d="M213.423 -97.6953C214.336 -97.6953 215.076 -98.4351 215.076 -99.3476C215.076 -100.26 214.336 -101 213.423 -101C212.511 -101 211.771 -100.26 211.771 -99.3476C211.771 -98.4351 212.511 -97.6953 213.423 -97.6953Z" fill="#0075FF"/>
<path d="M213.423 -84.9485C214.336 -84.9485 215.076 -85.6883 215.076 -86.6009C215.076 -87.5134 214.336 -88.2532 213.423 -88.2532C212.511 -88.2532 211.771 -87.5134 211.771 -86.6009C211.771 -85.6883 212.511 -84.9485 213.423 -84.9485Z" fill="#0075FF"/>
<path d="M213.423 -72.2017C214.336 -72.2017 215.076 -72.9415 215.076 -73.8541C215.076 -74.7667 214.336 -75.5064 213.423 -75.5064C212.511 -75.5064 211.771 -74.7667 211.771 -73.8541C211.771 -72.9415 212.511 -72.2017 213.423 -72.2017Z" fill="#0075FF"/>
<path d="M213.423 -59.4549C214.336 -59.4549 215.076 -60.1947 215.076 -61.1073C215.076 -62.0199 214.336 -62.7597 213.423 -62.7597C212.511 -62.7597 211.771 -62.0199 211.771 -61.1073C211.771 -60.1947 212.511 -59.4549 213.423 -59.4549Z" fill="#0075FF"/>
<path d="M213.423 -46.7082C214.336 -46.7082 215.076 -47.4479 215.076 -48.3605C215.076 -49.2731 214.336 -50.0129 213.423 -50.0129C212.511 -50.0129 211.771 -49.2731 211.771 -48.3605C211.771 -47.4479 212.511 -46.7082 213.423 -46.7082Z" fill="#0075FF"/>
<path d="M213.423 -33.9614C214.336 -33.9614 215.076 -34.7012 215.076 -35.6137C215.076 -36.5263 214.336 -37.2661 213.423 -37.2661C212.511 -37.2661 211.771 -36.5263 211.771 -35.6137C211.771 -34.7012 212.511 -33.9614 213.423 -33.9614Z" fill="#0075FF"/>
<path d="M213.423 -21.2146C214.336 -21.2146 215.076 -21.9544 215.076 -22.867C215.076 -23.7795 214.336 -24.5193 213.423 -24.5193C212.511 -24.5193 211.771 -23.7795 211.771 -22.867C211.771 -21.9544 212.511 -21.2146 213.423 -21.2146Z" fill="#0075FF"/>
<path d="M213.423 4.27896C214.336 4.27896 215.076 3.53917 215.076 2.62659C215.076 1.71402 214.336 0.974236 213.423 0.974236C212.511 0.974236 211.771 1.71402 211.771 2.62659C211.771 3.53917 212.511 4.27896 213.423 4.27896Z" fill="#0075FF"/>
<path d="M213.423 -8.46781C214.336 -8.46781 215.076 -9.20761 215.076 -10.1202C215.076 -11.0328 214.336 -11.7725 213.423 -11.7725C212.511 -11.7725 211.771 -11.0328 211.771 -10.1202C211.771 -9.20761 212.511 -8.46781 213.423 -8.46781Z" fill="#0075FF"/>
<path d="M213.423 17.0257C214.336 17.0257 215.076 16.286 215.076 15.3734C215.076 14.4608 214.336 13.721 213.423 13.721C212.511 13.721 211.771 14.4608 211.771 15.3734C211.771 16.286 212.511 17.0257 213.423 17.0257Z" fill="#0075FF"/>
<path d="M149.689 -97.6953C150.602 -97.6953 151.342 -98.4351 151.342 -99.3476C151.342 -100.26 150.602 -101 149.689 -101C148.777 -101 148.037 -100.26 148.037 -99.3476C148.037 -98.4351 148.777 -97.6953 149.689 -97.6953Z" fill="#0075FF"/>
<path d="M149.689 -84.9485C150.602 -84.9485 151.342 -85.6883 151.342 -86.6009C151.342 -87.5134 150.602 -88.2532 149.689 -88.2532C148.777 -88.2532 148.037 -87.5134 148.037 -86.6009C148.037 -85.6883 148.777 -84.9485 149.689 -84.9485Z" fill="#0075FF"/>
<path d="M149.689 -72.2017C150.602 -72.2017 151.342 -72.9415 151.342 -73.8541C151.342 -74.7667 150.602 -75.5064 149.689 -75.5064C148.777 -75.5064 148.037 -74.7667 148.037 -73.8541C148.037 -72.9415 148.777 -72.2017 149.689 -72.2017Z" fill="#0075FF"/>
<path d="M149.689 -59.4549C150.602 -59.4549 151.342 -60.1947 151.342 -61.1073C151.342 -62.0199 150.602 -62.7597 149.689 -62.7597C148.777 -62.7597 148.037 -62.0199 148.037 -61.1073C148.037 -60.1947 148.777 -59.4549 149.689 -59.4549Z" fill="#0075FF"/>
<path d="M149.689 -46.7082C150.602 -46.7082 151.342 -47.4479 151.342 -48.3605C151.342 -49.2731 150.602 -50.0129 149.689 -50.0129C148.777 -50.0129 148.037 -49.2731 148.037 -48.3605C148.037 -47.4479 148.777 -46.7082 149.689 -46.7082Z" fill="#0075FF"/>
<path d="M149.689 -33.9614C150.602 -33.9614 151.342 -34.7012 151.342 -35.6137C151.342 -36.5263 150.602 -37.2661 149.689 -37.2661C148.777 -37.2661 148.037 -36.5263 148.037 -35.6137C148.037 -34.7012 148.777 -33.9614 149.689 -33.9614Z" fill="#0075FF"/>
<path d="M149.689 -21.2146C150.602 -21.2146 151.342 -21.9544 151.342 -22.867C151.342 -23.7795 150.602 -24.5193 149.689 -24.5193C148.777 -24.5193 148.037 -23.7795 148.037 -22.867C148.037 -21.9544 148.777 -21.2146 149.689 -21.2146Z" fill="#0075FF"/>
<path d="M149.689 4.27896C150.602 4.27896 151.342 3.53917 151.342 2.62659C151.342 1.71402 150.602 0.974236 149.689 0.974236C148.777 0.974236 148.037 1.71402 148.037 2.62659C148.037 3.53917 148.777 4.27896 149.689 4.27896Z" fill="#0075FF"/>
<path d="M149.689 -8.46781C150.602 -8.46781 151.342 -9.20761 151.342 -10.1202C151.342 -11.0328 150.602 -11.7725 149.689 -11.7725C148.777 -11.7725 148.037 -11.0328 148.037 -10.1202C148.037 -9.20761 148.777 -8.46781 149.689 -8.46781Z" fill="#0075FF"/>
<path d="M149.689 17.0257C150.602 17.0257 151.342 16.286 151.342 15.3734C151.342 14.4608 150.602 13.721 149.689 13.721C148.777 13.721 148.037 14.4608 148.037 15.3734C148.037 16.286 148.777 17.0257 149.689 17.0257Z" fill="#0075FF"/>
<path d="M187.93 -97.6953C188.842 -97.6953 189.582 -98.4351 189.582 -99.3476C189.582 -100.26 188.842 -101 187.93 -101C187.017 -101 186.277 -100.26 186.277 -99.3476C186.277 -98.4351 187.017 -97.6953 187.93 -97.6953Z" fill="#0075FF"/>
<path d="M187.93 -84.9485C188.842 -84.9485 189.582 -85.6883 189.582 -86.6009C189.582 -87.5134 188.842 -88.2532 187.93 -88.2532C187.017 -88.2532 186.277 -87.5134 186.277 -86.6009C186.277 -85.6883 187.017 -84.9485 187.93 -84.9485Z" fill="#0075FF"/>
<path d="M187.93 -72.2017C188.842 -72.2017 189.582 -72.9415 189.582 -73.8541C189.582 -74.7667 188.842 -75.5064 187.93 -75.5064C187.017 -75.5064 186.277 -74.7667 186.277 -73.8541C186.277 -72.9415 187.017 -72.2017 187.93 -72.2017Z" fill="#0075FF"/>
<path d="M187.93 -59.4549C188.842 -59.4549 189.582 -60.1947 189.582 -61.1073C189.582 -62.0199 188.842 -62.7597 187.93 -62.7597C187.017 -62.7597 186.277 -62.0199 186.277 -61.1073C186.277 -60.1947 187.017 -59.4549 187.93 -59.4549Z" fill="#0075FF"/>
<path d="M187.93 -46.7082C188.842 -46.7082 189.582 -47.4479 189.582 -48.3605C189.582 -49.2731 188.842 -50.0129 187.93 -50.0129C187.017 -50.0129 186.277 -49.2731 186.277 -48.3605C186.277 -47.4479 187.017 -46.7082 187.93 -46.7082Z" fill="#0075FF"/>
<path d="M187.93 -33.9614C188.842 -33.9614 189.582 -34.7012 189.582 -35.6137C189.582 -36.5263 188.842 -37.2661 187.93 -37.2661C187.017 -37.2661 186.277 -36.5263 186.277 -35.6137C186.277 -34.7012 187.017 -33.9614 187.93 -33.9614Z" fill="#0075FF"/>
<path d="M187.93 -21.2146C188.842 -21.2146 189.582 -21.9544 189.582 -22.867C189.582 -23.7795 188.842 -24.5193 187.93 -24.5193C187.017 -24.5193 186.277 -23.7795 186.277 -22.867C186.277 -21.9544 187.017 -21.2146 187.93 -21.2146Z" fill="#0075FF"/>
<path d="M187.93 4.27896C188.842 4.27896 189.582 3.53917 189.582 2.62659C189.582 1.71402 188.842 0.974236 187.93 0.974236C187.017 0.974236 186.277 1.71402 186.277 2.62659C186.277 3.53917 187.017 4.27896 187.93 4.27896Z" fill="#0075FF"/>
<path d="M187.93 -8.46781C188.842 -8.46781 189.582 -9.20761 189.582 -10.1202C189.582 -11.0328 188.842 -11.7725 187.93 -11.7725C187.017 -11.7725 186.277 -11.0328 186.277 -10.1202C186.277 -9.20761 187.017 -8.46781 187.93 -8.46781Z" fill="#0075FF"/>
<path d="M187.93 17.0257C188.842 17.0257 189.582 16.286 189.582 15.3734C189.582 14.4608 188.842 13.721 187.93 13.721C187.017 13.721 186.277 14.4608 186.277 15.3734C186.277 16.286 187.017 17.0257 187.93 17.0257Z" fill="#0075FF"/>
<path d="M226.17 -97.6953C227.082 -97.6953 227.822 -98.4351 227.822 -99.3476C227.822 -100.26 227.082 -101 226.17 -101C225.257 -101 224.518 -100.26 224.518 -99.3476C224.518 -98.4351 225.257 -97.6953 226.17 -97.6953Z" fill="#0075FF"/>
<path d="M226.17 -84.9485C227.082 -84.9485 227.822 -85.6883 227.822 -86.6009C227.822 -87.5134 227.082 -88.2532 226.17 -88.2532C225.257 -88.2532 224.518 -87.5134 224.518 -86.6009C224.518 -85.6883 225.257 -84.9485 226.17 -84.9485Z" fill="#0075FF"/>
<path d="M226.17 -72.2017C227.082 -72.2017 227.822 -72.9415 227.822 -73.8541C227.822 -74.7667 227.082 -75.5064 226.17 -75.5064C225.257 -75.5064 224.518 -74.7667 224.518 -73.8541C224.518 -72.9415 225.257 -72.2017 226.17 -72.2017Z" fill="#0075FF"/>
<path d="M226.17 -59.4549C227.082 -59.4549 227.822 -60.1947 227.822 -61.1073C227.822 -62.0199 227.082 -62.7597 226.17 -62.7597C225.257 -62.7597 224.518 -62.0199 224.518 -61.1073C224.518 -60.1947 225.257 -59.4549 226.17 -59.4549Z" fill="#0075FF"/>
<path d="M226.17 -46.7082C227.082 -46.7082 227.822 -47.4479 227.822 -48.3605C227.822 -49.2731 227.082 -50.0129 226.17 -50.0129C225.257 -50.0129 224.518 -49.2731 224.518 -48.3605C224.518 -47.4479 225.257 -46.7082 226.17 -46.7082Z" fill="#0075FF"/>
<path d="M226.17 -33.9614C227.082 -33.9614 227.822 -34.7012 227.822 -35.6137C227.822 -36.5263 227.082 -37.2661 226.17 -37.2661C225.257 -37.2661 224.518 -36.5263 224.518 -35.6137C224.518 -34.7012 225.257 -33.9614 226.17 -33.9614Z" fill="#0075FF"/>
<path d="M226.17 -21.2146C227.082 -21.2146 227.822 -21.9544 227.822 -22.867C227.822 -23.7795 227.082 -24.5193 226.17 -24.5193C225.257 -24.5193 224.518 -23.7795 224.518 -22.867C224.518 -21.9544 225.257 -21.2146 226.17 -21.2146Z" fill="#0075FF"/>
<path d="M226.17 4.27896C227.082 4.27896 227.822 3.53917 227.822 2.62659C227.822 1.71402 227.082 0.974236 226.17 0.974236C225.257 0.974236 224.518 1.71402 224.518 2.62659C224.518 3.53917 225.257 4.27896 226.17 4.27896Z" fill="#0075FF"/>
<path d="M226.17 -8.46781C227.082 -8.46781 227.822 -9.20761 227.822 -10.1202C227.822 -11.0328 227.082 -11.7725 226.17 -11.7725C225.257 -11.7725 224.518 -11.0328 224.518 -10.1202C224.518 -9.20761 225.257 -8.46781 226.17 -8.46781Z" fill="#0075FF"/>
<path d="M226.17 17.0257C227.082 17.0257 227.822 16.286 227.822 15.3734C227.822 14.4608 227.082 13.721 226.17 13.721C225.257 13.721 224.518 14.4608 224.518 15.3734C224.518 16.286 225.257 17.0257 226.17 17.0257Z" fill="#0075FF"/>
<path d="M164.088 28.1202C164.088 29.0327 163.349 29.7725 162.436 29.7725C161.523 29.7725 160.784 29.0327 160.784 28.1202C160.784 27.2076 161.523 26.4678 162.436 26.4678C163.349 26.4678 164.088 27.2076 164.088 28.1202Z" fill="#0075FF"/>
<path d="M164.088 40.8669C164.088 41.7795 163.349 42.5193 162.436 42.5193C161.523 42.5193 160.784 41.7795 160.784 40.8669C160.784 39.9544 161.523 39.2146 162.436 39.2146C163.349 39.2146 164.088 39.9544 164.088 40.8669Z" fill="#0075FF"/>
<path d="M164.088 53.6137C164.088 54.5263 163.349 55.2661 162.436 55.2661C161.523 55.2661 160.784 54.5263 160.784 53.6137C160.784 52.7012 161.523 51.9614 162.436 51.9614C163.349 51.9614 164.088 52.7012 164.088 53.6137Z" fill="#0075FF"/>
<path d="M202.329 28.1202C202.329 29.0327 201.589 29.7725 200.676 29.7725C199.764 29.7725 199.024 29.0327 199.024 28.1202C199.024 27.2076 199.764 26.4678 200.676 26.4678C201.589 26.4678 202.329 27.2076 202.329 28.1202Z" fill="#0075FF"/>
<path d="M202.329 40.8669C202.329 41.7795 201.589 42.5193 200.676 42.5193C199.764 42.5193 199.024 41.7795 199.024 40.8669C199.024 39.9544 199.764 39.2146 200.676 39.2146C201.589 39.2146 202.329 39.9544 202.329 40.8669Z" fill="#0075FF"/>
<path d="M202.329 53.6137C202.329 54.5263 201.589 55.2661 200.676 55.2661C199.764 55.2661 199.024 54.5263 199.024 53.6137C199.024 52.7012 199.764 51.9614 200.676 51.9614C201.589 51.9614 202.329 52.7012 202.329 53.6137Z" fill="#0075FF"/>
<path d="M202.329 66.3605C202.329 67.2731 201.589 68.0129 200.676 68.0129C199.764 68.0129 199.024 67.2731 199.024 66.3605C199.024 65.4479 199.764 64.7081 200.676 64.7081C201.589 64.7081 202.329 65.4479 202.329 66.3605Z" fill="#0075FF"/>
<path d="M202.329 79.1073C202.329 80.0198 201.589 80.7596 200.676 80.7596C199.764 80.7596 199.024 80.0198 199.024 79.1073C199.024 78.1947 199.764 77.4549 200.676 77.4549C201.589 77.4549 202.329 78.1947 202.329 79.1073Z" fill="#0075FF"/>
<path d="M202.329 91.854C202.329 92.7666 201.589 93.5064 200.676 93.5064C199.764 93.5064 199.024 92.7666 199.024 91.854C199.024 90.9415 199.764 90.2017 200.676 90.2017C201.589 90.2017 202.329 90.9415 202.329 91.854Z" fill="#0075FF"/>
<path d="M138.595 28.1202C138.595 29.0327 137.855 29.7725 136.942 29.7725C136.03 29.7725 135.29 29.0327 135.29 28.1202C135.29 27.2076 136.03 26.4678 136.942 26.4678C137.855 26.4678 138.595 27.2076 138.595 28.1202Z" fill="#0075FF"/>
<path d="M176.835 28.1202C176.835 29.0327 176.095 29.7725 175.183 29.7725C174.27 29.7725 173.53 29.0327 173.53 28.1202C173.53 27.2076 174.27 26.4678 175.183 26.4678C176.095 26.4678 176.835 27.2076 176.835 28.1202Z" fill="#0075FF"/>
<path d="M176.835 40.8669C176.835 41.7795 176.095 42.5193 175.183 42.5193C174.27 42.5193 173.53 41.7795 173.53 40.8669C173.53 39.9544 174.27 39.2146 175.183 39.2146C176.095 39.2146 176.835 39.9544 176.835 40.8669Z" fill="#0075FF"/>
<path d="M176.835 53.6137C176.835 54.5263 176.095 55.2661 175.183 55.2661C174.27 55.2661 173.53 54.5263 173.53 53.6137C173.53 52.7012 174.27 51.9614 175.183 51.9614C176.095 51.9614 176.835 52.7012 176.835 53.6137Z" fill="#0075FF"/>
<path d="M176.835 66.3605C176.835 67.2731 176.095 68.0129 175.183 68.0129C174.27 68.0129 173.53 67.2731 173.53 66.3605C173.53 65.4479 174.27 64.7081 175.183 64.7081C176.095 64.7081 176.835 65.4479 176.835 66.3605Z" fill="#0075FF"/>
<path d="M215.076 28.1202C215.076 29.0327 214.336 29.7725 213.423 29.7725C212.511 29.7725 211.771 29.0327 211.771 28.1202C211.771 27.2076 212.511 26.4678 213.423 26.4678C214.336 26.4678 215.076 27.2076 215.076 28.1202Z" fill="#0075FF"/>
<path d="M215.076 40.8669C215.076 41.7795 214.336 42.5193 213.423 42.5193C212.511 42.5193 211.771 41.7795 211.771 40.8669C211.771 39.9544 212.511 39.2146 213.423 39.2146C214.336 39.2146 215.076 39.9544 215.076 40.8669Z" fill="#0075FF"/>
<path d="M215.076 53.6137C215.076 54.5263 214.336 55.2661 213.423 55.2661C212.511 55.2661 211.771 54.5263 211.771 53.6137C211.771 52.7012 212.511 51.9614 213.423 51.9614C214.336 51.9614 215.076 52.7012 215.076 53.6137Z" fill="#0075FF"/>
<path d="M215.076 66.3605C215.076 67.2731 214.336 68.0129 213.423 68.0129C212.511 68.0129 211.771 67.2731 211.771 66.3605C211.771 65.4479 212.511 64.7081 213.423 64.7081C214.336 64.7081 215.076 65.4479 215.076 66.3605Z" fill="#0075FF"/>
<path d="M215.076 79.1073C215.076 80.0198 214.336 80.7596 213.423 80.7596C212.511 80.7596 211.771 80.0198 211.771 79.1073C211.771 78.1947 212.511 77.4549 213.423 77.4549C214.336 77.4549 215.076 78.1947 215.076 79.1073Z" fill="#0075FF"/>
<path d="M215.076 91.854C215.076 92.7666 214.336 93.5064 213.423 93.5064C212.511 93.5064 211.771 92.7666 211.771 91.854C211.771 90.9415 212.511 90.2017 213.423 90.2017C214.336 90.2017 215.076 90.9415 215.076 91.854Z" fill="#0075FF"/>
<path d="M215.076 104.601C215.076 105.513 214.336 106.253 213.423 106.253C212.511 106.253 211.771 105.513 211.771 104.601C211.771 103.688 212.511 102.948 213.423 102.948C214.336 102.948 215.076 103.688 215.076 104.601Z" fill="#0075FF"/>
<path d="M151.342 28.1202C151.342 29.0327 150.602 29.7725 149.689 29.7725C148.777 29.7725 148.037 29.0327 148.037 28.1202C148.037 27.2076 148.777 26.4678 149.689 26.4678C150.602 26.4678 151.342 27.2076 151.342 28.1202Z" fill="#0075FF"/>
<path d="M151.342 40.8669C151.342 41.7795 150.602 42.5193 149.689 42.5193C148.777 42.5193 148.037 41.7795 148.037 40.8669C148.037 39.9544 148.777 39.2146 149.689 39.2146C150.602 39.2146 151.342 39.9544 151.342 40.8669Z" fill="#0075FF"/>
<path d="M189.582 28.1202C189.582 29.0327 188.842 29.7725 187.93 29.7725C187.017 29.7725 186.277 29.0327 186.277 28.1202C186.277 27.2076 187.017 26.4678 187.93 26.4678C188.842 26.4678 189.582 27.2076 189.582 28.1202Z" fill="#0075FF"/>
<path d="M189.582 40.8669C189.582 41.7795 188.842 42.5193 187.93 42.5193C187.017 42.5193 186.277 41.7795 186.277 40.8669C186.277 39.9544 187.017 39.2146 187.93 39.2146C188.842 39.2146 189.582 39.9544 189.582 40.8669Z" fill="#0075FF"/>
<path d="M189.582 53.6137C189.582 54.5263 188.842 55.2661 187.93 55.2661C187.017 55.2661 186.277 54.5263 186.277 53.6137C186.277 52.7012 187.017 51.9614 187.93 51.9614C188.842 51.9614 189.582 52.7012 189.582 53.6137Z" fill="#0075FF"/>
<path d="M189.582 66.3605C189.582 67.2731 188.842 68.0129 187.93 68.0129C187.017 68.0129 186.277 67.2731 186.277 66.3605C186.277 65.4479 187.017 64.7081 187.93 64.7081C188.842 64.7081 189.582 65.4479 189.582 66.3605Z" fill="#0075FF"/>
<path d="M189.582 79.1073C189.582 80.0198 188.842 80.7596 187.93 80.7596C187.017 80.7596 186.277 80.0198 186.277 79.1073C186.277 78.1947 187.017 77.4549 187.93 77.4549C188.842 77.4549 189.582 78.1947 189.582 79.1073Z" fill="#0075FF"/>
<path d="M227.822 28.1202C227.822 29.0327 227.082 29.7725 226.17 29.7725C225.257 29.7725 224.518 29.0327 224.518 28.1202C224.518 27.2076 225.257 26.4678 226.17 26.4678C227.082 26.4678 227.822 27.2076 227.822 28.1202Z" fill="#0075FF"/>
<path d="M227.822 40.8669C227.822 41.7795 227.082 42.5193 226.17 42.5193C225.257 42.5193 224.518 41.7795 224.518 40.8669C224.518 39.9544 225.257 39.2146 226.17 39.2146C227.082 39.2146 227.822 39.9544 227.822 40.8669Z" fill="#0075FF"/>
<path d="M227.822 53.6137C227.822 54.5263 227.082 55.2661 226.17 55.2661C225.257 55.2661 224.518 54.5263 224.518 53.6137C224.518 52.7012 225.257 51.9614 226.17 51.9614C227.082 51.9614 227.822 52.7012 227.822 53.6137Z" fill="#0075FF"/>
<path d="M227.822 66.3605C227.822 67.2731 227.082 68.0129 226.17 68.0129C225.257 68.0129 224.518 67.2731 224.518 66.3605C224.518 65.4479 225.257 64.7081 226.17 64.7081C227.082 64.7081 227.822 65.4479 227.822 66.3605Z" fill="#0075FF"/>
<path d="M227.822 79.1073C227.822 80.0198 227.082 80.7596 226.17 80.7596C225.257 80.7596 224.518 80.0198 224.518 79.1073C224.518 78.1947 225.257 77.4549 226.17 77.4549C227.082 77.4549 227.822 78.1947 227.822 79.1073Z" fill="#0075FF"/>
<path d="M227.822 91.854C227.822 92.7666 227.082 93.5064 226.17 93.5064C225.257 93.5064 224.518 92.7666 224.518 91.854C224.518 90.9415 225.257 90.2017 226.17 90.2017C227.082 90.2017 227.822 90.9415 227.822 91.854Z" fill="#0075FF"/>
<path d="M227.822 104.601C227.822 105.513 227.082 106.253 226.17 106.253C225.257 106.253 224.518 105.513 224.518 104.601C224.518 103.688 225.257 102.948 226.17 102.948C227.082 102.948 227.822 103.688 227.822 104.601Z" fill="#0075FF"/>
<path d="M227.822 117.348C227.822 118.26 227.082 119 226.17 119C225.257 119 224.518 118.26 224.518 117.348C224.518 116.435 225.257 115.695 226.17 115.695C227.082 115.695 227.822 116.435 227.822 117.348Z" fill="#0075FF"/>
</g>
<g opacity="0.7">
<path d="M211.195 117.348C211.195 116.435 211.935 115.695 212.848 115.695C213.76 115.695 214.5 116.435 214.5 117.348C214.5 118.26 213.76 119 212.848 119C211.935 119 211.195 118.26 211.195 117.348Z" fill="#0075FF"/>
<path d="M172.955 117.348C172.955 116.435 173.695 115.695 174.607 115.695C175.52 115.695 176.26 116.435 176.26 117.348C176.26 118.26 175.52 119 174.607 119C173.695 119 172.955 118.26 172.955 117.348Z" fill="#0075FF"/>
<path d="M172.955 104.601C172.955 103.688 173.695 102.948 174.607 102.948C175.52 102.948 176.26 103.688 176.26 104.601C176.26 105.513 175.52 106.253 174.607 106.253C173.695 106.253 172.955 105.513 172.955 104.601Z" fill="#0075FF"/>
<path d="M172.955 91.8541C172.955 90.9415 173.695 90.2017 174.607 90.2017C175.52 90.2017 176.26 90.9415 176.26 91.8541C176.26 92.7667 175.52 93.5064 174.607 93.5064C173.695 93.5064 172.955 92.7667 172.955 91.8541Z" fill="#0075FF"/>
<path d="M172.955 79.1073C172.955 78.1947 173.695 77.4549 174.607 77.4549C175.52 77.4549 176.26 78.1947 176.26 79.1073C176.26 80.0199 175.52 80.7597 174.607 80.7597C173.695 80.7597 172.955 80.0199 172.955 79.1073Z" fill="#0075FF"/>
<path d="M134.715 117.348C134.715 116.435 135.454 115.695 136.367 115.695C137.28 115.695 138.019 116.435 138.019 117.348C138.019 118.26 137.28 119 136.367 119C135.454 119 134.715 118.26 134.715 117.348Z" fill="#0075FF"/>
<path d="M134.715 104.601C134.715 103.688 135.454 102.948 136.367 102.948C137.28 102.948 138.019 103.688 138.019 104.601C138.019 105.513 137.28 106.253 136.367 106.253C135.454 106.253 134.715 105.513 134.715 104.601Z" fill="#0075FF"/>
<path d="M134.715 91.8541C134.715 90.9415 135.454 90.2017 136.367 90.2017C137.28 90.2017 138.019 90.9415 138.019 91.8541C138.019 92.7667 137.28 93.5064 136.367 93.5064C135.454 93.5064 134.715 92.7667 134.715 91.8541Z" fill="#0075FF"/>
<path d="M134.715 79.1073C134.715 78.1947 135.454 77.4549 136.367 77.4549C137.28 77.4549 138.019 78.1947 138.019 79.1073C138.019 80.0199 137.28 80.7597 136.367 80.7597C135.454 80.7597 134.715 80.0199 134.715 79.1073Z" fill="#0075FF"/>
<path d="M134.715 66.3605C134.715 65.4479 135.454 64.7082 136.367 64.7082C137.28 64.7082 138.019 65.4479 138.019 66.3605C138.019 67.2731 137.28 68.0129 136.367 68.0129C135.454 68.0129 134.715 67.2731 134.715 66.3605Z" fill="#0075FF"/>
<path d="M134.715 53.6137C134.715 52.7012 135.454 51.9614 136.367 51.9614C137.28 51.9614 138.019 52.7012 138.019 53.6137C138.019 54.5263 137.28 55.2661 136.367 55.2661C135.454 55.2661 134.715 54.5263 134.715 53.6137Z" fill="#0075FF"/>
<path d="M134.715 40.867C134.715 39.9544 135.454 39.2146 136.367 39.2146C137.28 39.2146 138.019 39.9544 138.019 40.867C138.019 41.7795 137.28 42.5193 136.367 42.5193C135.454 42.5193 134.715 41.7795 134.715 40.867Z" fill="#0075FF"/>
<path d="M198.448 117.348C198.448 116.435 199.188 115.695 200.101 115.695C201.013 115.695 201.753 116.435 201.753 117.348C201.753 118.26 201.013 119 200.101 119C199.188 119 198.448 118.26 198.448 117.348Z" fill="#0075FF"/>
<path d="M198.448 104.601C198.448 103.688 199.188 102.948 200.101 102.948C201.013 102.948 201.753 103.688 201.753 104.601C201.753 105.513 201.013 106.253 200.101 106.253C199.188 106.253 198.448 105.513 198.448 104.601Z" fill="#0075FF"/>
<path d="M160.208 117.348C160.208 116.435 160.948 115.695 161.861 115.695C162.773 115.695 163.513 116.435 163.513 117.348C163.513 118.26 162.773 119 161.861 119C160.948 119 160.208 118.26 160.208 117.348Z" fill="#0075FF"/>
<path d="M160.208 104.601C160.208 103.688 160.948 102.948 161.861 102.948C162.773 102.948 163.513 103.688 163.513 104.601C163.513 105.513 162.773 106.253 161.861 106.253C160.948 106.253 160.208 105.513 160.208 104.601Z" fill="#0075FF"/>
<path d="M160.208 91.8541C160.208 90.9415 160.948 90.2017 161.861 90.2017C162.773 90.2017 163.513 90.9415 163.513 91.8541C163.513 92.7667 162.773 93.5064 161.861 93.5064C160.948 93.5064 160.208 92.7667 160.208 91.8541Z" fill="#0075FF"/>
<path d="M160.208 79.1073C160.208 78.1947 160.948 77.4549 161.861 77.4549C162.773 77.4549 163.513 78.1947 163.513 79.1073C163.513 80.0199 162.773 80.7597 161.861 80.7597C160.948 80.7597 160.208 80.0199 160.208 79.1073Z" fill="#0075FF"/>
<path d="M160.208 66.3605C160.208 65.4479 160.948 64.7082 161.861 64.7082C162.773 64.7082 163.513 65.4479 163.513 66.3605C163.513 67.2731 162.773 68.0129 161.861 68.0129C160.948 68.0129 160.208 67.2731 160.208 66.3605Z" fill="#0075FF"/>
<path d="M121.968 117.348C121.968 116.435 122.708 115.695 123.62 115.695C124.533 115.695 125.273 116.435 125.273 117.348C125.273 118.26 124.533 119 123.62 119C122.708 119 121.968 118.26 121.968 117.348Z" fill="#0075FF"/>
<path d="M121.968 104.601C121.968 103.688 122.708 102.948 123.62 102.948C124.533 102.948 125.273 103.688 125.273 104.601C125.273 105.513 124.533 106.253 123.62 106.253C122.708 106.253 121.968 105.513 121.968 104.601Z" fill="#0075FF"/>
<path d="M121.968 91.8541C121.968 90.9415 122.708 90.2017 123.62 90.2017C124.533 90.2017 125.273 90.9415 125.273 91.8541C125.273 92.7667 124.533 93.5064 123.62 93.5064C122.708 93.5064 121.968 92.7667 121.968 91.8541Z" fill="#0075FF"/>
<path d="M121.968 79.1073C121.968 78.1947 122.708 77.4549 123.62 77.4549C124.533 77.4549 125.273 78.1947 125.273 79.1073C125.273 80.0199 124.533 80.7597 123.62 80.7597C122.708 80.7597 121.968 80.0199 121.968 79.1073Z" fill="#0075FF"/>
<path d="M121.968 66.3605C121.968 65.4479 122.708 64.7082 123.62 64.7082C124.533 64.7082 125.273 65.4479 125.273 66.3605C125.273 67.2731 124.533 68.0129 123.62 68.0129C122.708 68.0129 121.968 67.2731 121.968 66.3605Z" fill="#0075FF"/>
<path d="M121.968 53.6137C121.968 52.7012 122.708 51.9614 123.62 51.9614C124.533 51.9614 125.273 52.7012 125.273 53.6137C125.273 54.5263 124.533 55.2661 123.62 55.2661C122.708 55.2661 121.968 54.5263 121.968 53.6137Z" fill="#0075FF"/>
<path d="M121.968 40.867C121.968 39.9544 122.708 39.2146 123.62 39.2146C124.533 39.2146 125.273 39.9544 125.273 40.867C125.273 41.7795 124.533 42.5193 123.62 42.5193C122.708 42.5193 121.968 41.7795 121.968 40.867Z" fill="#0075FF"/>
<path d="M121.968 28.1202C121.968 27.2076 122.708 26.4678 123.62 26.4678C124.533 26.4678 125.273 27.2076 125.273 28.1202C125.273 29.0328 124.533 29.7725 123.62 29.7725C122.708 29.7725 121.968 29.0328 121.968 28.1202Z" fill="#0075FF"/>
<path d="M185.702 117.348C185.702 116.435 186.442 115.695 187.354 115.695C188.267 115.695 189.006 116.435 189.006 117.348C189.006 118.26 188.267 119 187.354 119C186.442 119 185.702 118.26 185.702 117.348Z" fill="#0075FF"/>
<path d="M185.702 104.601C185.702 103.688 186.442 102.948 187.354 102.948C188.267 102.948 189.006 103.688 189.006 104.601C189.006 105.513 188.267 106.253 187.354 106.253C186.442 106.253 185.702 105.513 185.702 104.601Z" fill="#0075FF"/>
<path d="M185.702 91.8541C185.702 90.9415 186.442 90.2017 187.354 90.2017C188.267 90.2017 189.006 90.9415 189.006 91.8541C189.006 92.7667 188.267 93.5064 187.354 93.5064C186.442 93.5064 185.702 92.7667 185.702 91.8541Z" fill="#0075FF"/>
<path d="M147.461 117.348C147.461 116.435 148.201 115.695 149.114 115.695C150.026 115.695 150.766 116.435 150.766 117.348C150.766 118.26 150.026 119 149.114 119C148.201 119 147.461 118.26 147.461 117.348Z" fill="#0075FF"/>
<path d="M147.461 104.601C147.461 103.688 148.201 102.948 149.114 102.948C150.026 102.948 150.766 103.688 150.766 104.601C150.766 105.513 150.026 106.253 149.114 106.253C148.201 106.253 147.461 105.513 147.461 104.601Z" fill="#0075FF"/>
<path d="M147.461 91.8541C147.461 90.9415 148.201 90.2017 149.114 90.2017C150.026 90.2017 150.766 90.9415 150.766 91.8541C150.766 92.7667 150.026 93.5064 149.114 93.5064C148.201 93.5064 147.461 92.7667 147.461 91.8541Z" fill="#0075FF"/>
<path d="M147.461 79.1073C147.461 78.1947 148.201 77.4549 149.114 77.4549C150.026 77.4549 150.766 78.1947 150.766 79.1073C150.766 80.0199 150.026 80.7597 149.114 80.7597C148.201 80.7597 147.461 80.0199 147.461 79.1073Z" fill="#0075FF"/>
<path d="M147.461 66.3605C147.461 65.4479 148.201 64.7082 149.114 64.7082C150.026 64.7082 150.766 65.4479 150.766 66.3605C150.766 67.2731 150.026 68.0129 149.114 68.0129C148.201 68.0129 147.461 67.2731 147.461 66.3605Z" fill="#0075FF"/>
<path d="M147.461 53.6137C147.461 52.7012 148.201 51.9614 149.114 51.9614C150.026 51.9614 150.766 52.7012 150.766 53.6137C150.766 54.5263 150.026 55.2661 149.114 55.2661C148.201 55.2661 147.461 54.5263 147.461 53.6137Z" fill="#0075FF"/>
<path d="M109.221 117.348C109.221 116.435 109.961 115.695 110.873 115.695C111.786 115.695 112.526 116.435 112.526 117.348C112.526 118.26 111.786 119 110.873 119C109.961 119 109.221 118.26 109.221 117.348Z" fill="#0075FF"/>
<path d="M109.221 104.601C109.221 103.688 109.961 102.948 110.873 102.948C111.786 102.948 112.526 103.688 112.526 104.601C112.526 105.513 111.786 106.253 110.873 106.253C109.961 106.253 109.221 105.513 109.221 104.601Z" fill="#0075FF"/>
<path d="M109.221 91.8541C109.221 90.9415 109.961 90.2017 110.873 90.2017C111.786 90.2017 112.526 90.9415 112.526 91.8541C112.526 92.7667 111.786 93.5064 110.873 93.5064C109.961 93.5064 109.221 92.7667 109.221 91.8541Z" fill="#0075FF"/>
<path d="M109.221 79.1073C109.221 78.1947 109.961 77.4549 110.873 77.4549C111.786 77.4549 112.526 78.1947 112.526 79.1073C112.526 80.0199 111.786 80.7597 110.873 80.7597C109.961 80.7597 109.221 80.0199 109.221 79.1073Z" fill="#0075FF"/>
<path d="M109.221 66.3605C109.221 65.4479 109.961 64.7082 110.873 64.7082C111.786 64.7082 112.526 65.4479 112.526 66.3605C112.526 67.2731 111.786 68.0129 110.873 68.0129C109.961 68.0129 109.221 67.2731 109.221 66.3605Z" fill="#0075FF"/>
<path d="M109.221 53.6137C109.221 52.7012 109.961 51.9614 110.873 51.9614C111.786 51.9614 112.526 52.7012 112.526 53.6137C112.526 54.5263 111.786 55.2661 110.873 55.2661C109.961 55.2661 109.221 54.5263 109.221 53.6137Z" fill="#0075FF"/>
<path d="M109.221 40.867C109.221 39.9544 109.961 39.2146 110.873 39.2146C111.786 39.2146 112.526 39.9544 112.526 40.867C112.526 41.7795 111.786 42.5193 110.873 42.5193C109.961 42.5193 109.221 41.7795 109.221 40.867Z" fill="#0075FF"/>
<path d="M109.221 15.3734C109.221 14.4608 109.961 13.721 110.873 13.721C111.786 13.721 112.526 14.4608 112.526 15.3734C112.526 16.286 111.786 17.0258 110.873 17.0258C109.961 17.0258 109.221 16.286 109.221 15.3734Z" fill="#0075FF"/>
<path d="M109.221 28.1202C109.221 27.2076 109.961 26.4678 110.873 26.4678C111.786 26.4678 112.526 27.2076 112.526 28.1202C112.526 29.0328 111.786 29.7725 110.873 29.7725C109.961 29.7725 109.221 29.0328 109.221 28.1202Z" fill="#0075FF"/>
<path d="M98.1266 115.695C97.214 115.695 96.4743 116.435 96.4743 117.348C96.4743 118.26 97.214 119 98.1266 119C99.0392 119 99.779 118.26 99.779 117.348C99.779 116.435 99.0392 115.695 98.1266 115.695Z" fill="#0075FF"/>
<path d="M98.1266 102.948C97.214 102.948 96.4743 103.688 96.4743 104.601C96.4743 105.513 97.214 106.253 98.1266 106.253C99.0392 106.253 99.779 105.513 99.779 104.601C99.779 103.688 99.0392 102.948 98.1266 102.948Z" fill="#0075FF"/>
<path d="M98.1266 90.2017C97.214 90.2017 96.4743 90.9415 96.4743 91.8541C96.4743 92.7667 97.214 93.5064 98.1266 93.5064C99.0392 93.5064 99.779 92.7667 99.779 91.8541C99.779 90.9415 99.0392 90.2017 98.1266 90.2017Z" fill="#0075FF"/>
<path d="M98.1266 77.4549C97.214 77.4549 96.4743 78.1947 96.4743 79.1073C96.4743 80.0199 97.214 80.7597 98.1266 80.7597C99.0392 80.7597 99.779 80.0199 99.779 79.1073C99.779 78.1947 99.0392 77.4549 98.1266 77.4549Z" fill="#0075FF"/>
<path d="M98.1266 64.7082C97.214 64.7082 96.4743 65.4479 96.4743 66.3605C96.4743 67.2731 97.214 68.0129 98.1266 68.0129C99.0392 68.0129 99.779 67.2731 99.779 66.3605C99.779 65.4479 99.0392 64.7082 98.1266 64.7082Z" fill="#0075FF"/>
<path d="M98.1266 51.9614C97.214 51.9614 96.4743 52.7012 96.4743 53.6137C96.4743 54.5263 97.214 55.2661 98.1266 55.2661C99.0392 55.2661 99.779 54.5263 99.779 53.6137C99.779 52.7012 99.0392 51.9614 98.1266 51.9614Z" fill="#0075FF"/>
<path d="M98.1266 39.2146C97.214 39.2146 96.4743 39.9544 96.4743 40.867C96.4743 41.7795 97.214 42.5193 98.1266 42.5193C99.0392 42.5193 99.779 41.7795 99.779 40.867C99.779 39.9544 99.0392 39.2146 98.1266 39.2146Z" fill="#0075FF"/>
<path d="M98.1266 13.721C97.214 13.721 96.4743 14.4608 96.4743 15.3734C96.4743 16.286 97.214 17.0258 98.1266 17.0258C99.0392 17.0258 99.779 16.286 99.779 15.3734C99.779 14.4608 99.0392 13.721 98.1266 13.721Z" fill="#0075FF"/>
<path d="M98.1266 26.4678C97.214 26.4678 96.4743 27.2076 96.4743 28.1202C96.4743 29.0328 97.214 29.7725 98.1266 29.7725C99.0392 29.7725 99.779 29.0328 99.779 28.1202C99.779 27.2076 99.0392 26.4678 98.1266 26.4678Z" fill="#0075FF"/>
<path d="M98.1266 0.974258C97.214 0.974258 96.4743 1.71404 96.4743 2.62662C96.4743 3.53919 97.214 4.27898 98.1266 4.27898C99.0392 4.27898 99.779 3.53919 99.779 2.62662C99.779 1.71404 99.0392 0.974258 98.1266 0.974258Z" fill="#0075FF"/>
<path d="M59.8863 115.695C58.9737 115.695 58.2339 116.435 58.2339 117.348C58.2339 118.26 58.9737 119 59.8863 119C60.7988 119 61.5386 118.26 61.5386 117.348C61.5386 116.435 60.7988 115.695 59.8863 115.695Z" fill="#0075FF"/>
<path d="M59.8863 102.948C58.9737 102.948 58.2339 103.688 58.2339 104.601C58.2339 105.513 58.9737 106.253 59.8863 106.253C60.7988 106.253 61.5386 105.513 61.5386 104.601C61.5386 103.688 60.7988 102.948 59.8863 102.948Z" fill="#0075FF"/>
<path d="M59.8863 90.2017C58.9737 90.2017 58.2339 90.9415 58.2339 91.8541C58.2339 92.7667 58.9737 93.5064 59.8863 93.5064C60.7988 93.5064 61.5386 92.7667 61.5386 91.8541C61.5386 90.9415 60.7988 90.2017 59.8863 90.2017Z" fill="#0075FF"/>
<path d="M59.8863 77.4549C58.9737 77.4549 58.2339 78.1947 58.2339 79.1073C58.2339 80.0199 58.9737 80.7597 59.8863 80.7597C60.7988 80.7597 61.5386 80.0199 61.5386 79.1073C61.5386 78.1947 60.7988 77.4549 59.8863 77.4549Z" fill="#0075FF"/>
<path d="M59.8863 64.7082C58.9737 64.7082 58.2339 65.4479 58.2339 66.3605C58.2339 67.2731 58.9737 68.0129 59.8863 68.0129C60.7988 68.0129 61.5386 67.2731 61.5386 66.3605C61.5386 65.4479 60.7988 64.7082 59.8863 64.7082Z" fill="#0075FF"/>
<path d="M59.8863 51.9614C58.9737 51.9614 58.2339 52.7012 58.2339 53.6137C58.2339 54.5263 58.9737 55.2661 59.8863 55.2661C60.7988 55.2661 61.5386 54.5263 61.5386 53.6137C61.5386 52.7012 60.7988 51.9614 59.8863 51.9614Z" fill="#0075FF"/>
<path d="M59.8863 39.2146C58.9737 39.2146 58.2339 39.9544 58.2339 40.867C58.2339 41.7795 58.9737 42.5193 59.8863 42.5193C60.7988 42.5193 61.5386 41.7795 61.5386 40.867C61.5386 39.9544 60.7988 39.2146 59.8863 39.2146Z" fill="#0075FF"/>
<path d="M59.8863 13.721C58.9737 13.721 58.2339 14.4608 58.2339 15.3734C58.2339 16.286 58.9737 17.0258 59.8863 17.0258C60.7988 17.0258 61.5386 16.286 61.5386 15.3734C61.5386 14.4608 60.7988 13.721 59.8863 13.721Z" fill="#0075FF"/>
<path d="M59.8863 26.4678C58.9737 26.4678 58.2339 27.2076 58.2339 28.1202C58.2339 29.0328 58.9737 29.7725 59.8863 29.7725C60.7988 29.7725 61.5386 29.0328 61.5386 28.1202C61.5386 27.2076 60.7988 26.4678 59.8863 26.4678Z" fill="#0075FF"/>
<path d="M59.8863 0.974258C58.9737 0.974258 58.2339 1.71404 58.2339 2.62662C58.2339 3.53919 58.9737 4.27898 59.8863 4.27898C60.7988 4.27898 61.5386 3.53919 61.5386 2.62662C61.5386 1.71404 60.7988 0.974258 59.8863 0.974258Z" fill="#0075FF"/>
<path d="M21.6459 115.695C20.7334 115.695 19.9936 116.435 19.9936 117.348C19.9936 118.26 20.7334 119 21.6459 119C22.5585 119 23.2983 118.26 23.2983 117.348C23.2983 116.435 22.5585 115.695 21.6459 115.695Z" fill="#0075FF"/>
<path d="M21.6459 102.948C20.7334 102.948 19.9936 103.688 19.9936 104.601C19.9936 105.513 20.7334 106.253 21.6459 106.253C22.5585 106.253 23.2983 105.513 23.2983 104.601C23.2983 103.688 22.5585 102.948 21.6459 102.948Z" fill="#0075FF"/>
<path d="M21.6459 90.2017C20.7334 90.2017 19.9936 90.9415 19.9936 91.8541C19.9936 92.7667 20.7334 93.5064 21.6459 93.5064C22.5585 93.5064 23.2983 92.7667 23.2983 91.8541C23.2983 90.9415 22.5585 90.2017 21.6459 90.2017Z" fill="#0075FF"/>
<path d="M21.6459 77.4549C20.7334 77.4549 19.9936 78.1947 19.9936 79.1073C19.9936 80.0199 20.7334 80.7597 21.6459 80.7597C22.5585 80.7597 23.2983 80.0199 23.2983 79.1073C23.2983 78.1947 22.5585 77.4549 21.6459 77.4549Z" fill="#0075FF"/>
<path d="M21.6459 64.7082C20.7334 64.7082 19.9936 65.4479 19.9936 66.3605C19.9936 67.2731 20.7334 68.0129 21.6459 68.0129C22.5585 68.0129 23.2983 67.2731 23.2983 66.3605C23.2983 65.4479 22.5585 64.7082 21.6459 64.7082Z" fill="#0075FF"/>
<path d="M21.6459 51.9614C20.7334 51.9614 19.9936 52.7012 19.9936 53.6137C19.9936 54.5263 20.7334 55.2661 21.6459 55.2661C22.5585 55.2661 23.2983 54.5263 23.2983 53.6137C23.2983 52.7012 22.5585 51.9614 21.6459 51.9614Z" fill="#0075FF"/>
<path d="M21.6459 39.2146C20.7334 39.2146 19.9936 39.9544 19.9936 40.867C19.9936 41.7795 20.7334 42.5193 21.6459 42.5193C22.5585 42.5193 23.2983 41.7795 23.2983 40.867C23.2983 39.9544 22.5585 39.2146 21.6459 39.2146Z" fill="#0075FF"/>
<path d="M21.6459 13.721C20.7334 13.721 19.9936 14.4608 19.9936 15.3734C19.9936 16.286 20.7334 17.0258 21.6459 17.0258C22.5585 17.0258 23.2983 16.286 23.2983 15.3734C23.2983 14.4608 22.5585 13.721 21.6459 13.721Z" fill="#0075FF"/>
<path d="M21.6459 26.4678C20.7334 26.4678 19.9936 27.2076 19.9936 28.1202C19.9936 29.0328 20.7334 29.7725 21.6459 29.7725C22.5585 29.7725 23.2983 29.0328 23.2983 28.1202C23.2983 27.2076 22.5585 26.4678 21.6459 26.4678Z" fill="#0075FF"/>
<path d="M21.6459 0.974258C20.7334 0.974258 19.9936 1.71404 19.9936 2.62662C19.9936 3.53919 20.7334 4.27898 21.6459 4.27898C22.5585 4.27898 23.2983 3.53919 23.2983 2.62662C23.2983 1.71404 22.5585 0.974258 21.6459 0.974258Z" fill="#0075FF"/>
<path d="M85.3798 115.695C84.4673 115.695 83.7275 116.435 83.7275 117.348C83.7275 118.26 84.4673 119 85.3798 119C86.2924 119 87.0322 118.26 87.0322 117.348C87.0322 116.435 86.2924 115.695 85.3798 115.695Z" fill="#0075FF"/>
<path d="M85.3798 102.948C84.4673 102.948 83.7275 103.688 83.7275 104.601C83.7275 105.513 84.4673 106.253 85.3798 106.253C86.2924 106.253 87.0322 105.513 87.0322 104.601C87.0322 103.688 86.2924 102.948 85.3798 102.948Z" fill="#0075FF"/>
<path d="M85.3798 90.2017C84.4673 90.2017 83.7275 90.9415 83.7275 91.8541C83.7275 92.7667 84.4673 93.5064 85.3798 93.5064C86.2924 93.5064 87.0322 92.7667 87.0322 91.8541C87.0322 90.9415 86.2924 90.2017 85.3798 90.2017Z" fill="#0075FF"/>
<path d="M85.3798 77.4549C84.4673 77.4549 83.7275 78.1947 83.7275 79.1073C83.7275 80.0199 84.4673 80.7597 85.3798 80.7597C86.2924 80.7597 87.0322 80.0199 87.0322 79.1073C87.0322 78.1947 86.2924 77.4549 85.3798 77.4549Z" fill="#0075FF"/>
<path d="M85.3798 64.7082C84.4673 64.7082 83.7275 65.4479 83.7275 66.3605C83.7275 67.2731 84.4673 68.0129 85.3798 68.0129C86.2924 68.0129 87.0322 67.2731 87.0322 66.3605C87.0322 65.4479 86.2924 64.7082 85.3798 64.7082Z" fill="#0075FF"/>
<path d="M85.3798 51.9614C84.4673 51.9614 83.7275 52.7012 83.7275 53.6137C83.7275 54.5263 84.4673 55.2661 85.3798 55.2661C86.2924 55.2661 87.0322 54.5263 87.0322 53.6137C87.0322 52.7012 86.2924 51.9614 85.3798 51.9614Z" fill="#0075FF"/>
<path d="M85.3798 39.2146C84.4673 39.2146 83.7275 39.9544 83.7275 40.867C83.7275 41.7795 84.4673 42.5193 85.3798 42.5193C86.2924 42.5193 87.0322 41.7795 87.0322 40.867C87.0322 39.9544 86.2924 39.2146 85.3798 39.2146Z" fill="#0075FF"/>
<path d="M85.3798 13.721C84.4673 13.721 83.7275 14.4608 83.7275 15.3734C83.7275 16.286 84.4673 17.0258 85.3798 17.0258C86.2924 17.0258 87.0322 16.286 87.0322 15.3734C87.0322 14.4608 86.2924 13.721 85.3798 13.721Z" fill="#0075FF"/>
<path d="M85.3798 26.4678C84.4673 26.4678 83.7275 27.2076 83.7275 28.1202C83.7275 29.0328 84.4673 29.7725 85.3798 29.7725C86.2924 29.7725 87.0322 29.0328 87.0322 28.1202C87.0322 27.2076 86.2924 26.4678 85.3798 26.4678Z" fill="#0075FF"/>
<path d="M85.3798 0.974258C84.4673 0.974258 83.7275 1.71404 83.7275 2.62662C83.7275 3.53919 84.4673 4.27898 85.3798 4.27898C86.2924 4.27898 87.0322 3.53919 87.0322 2.62662C87.0322 1.71404 86.2924 0.974258 85.3798 0.974258Z" fill="#0075FF"/>
<path d="M47.1395 115.695C46.2269 115.695 45.4871 116.435 45.4871 117.348C45.4871 118.26 46.2269 119 47.1395 119C48.052 119 48.7918 118.26 48.7918 117.348C48.7918 116.435 48.052 115.695 47.1395 115.695Z" fill="#0075FF"/>
<path d="M47.1395 102.948C46.2269 102.948 45.4871 103.688 45.4871 104.601C45.4871 105.513 46.2269 106.253 47.1395 106.253C48.052 106.253 48.7918 105.513 48.7918 104.601C48.7918 103.688 48.052 102.948 47.1395 102.948Z" fill="#0075FF"/>
<path d="M47.1395 90.2017C46.2269 90.2017 45.4871 90.9415 45.4871 91.8541C45.4871 92.7667 46.2269 93.5064 47.1395 93.5064C48.052 93.5064 48.7918 92.7667 48.7918 91.8541C48.7918 90.9415 48.052 90.2017 47.1395 90.2017Z" fill="#0075FF"/>
<path d="M47.1395 77.4549C46.2269 77.4549 45.4871 78.1947 45.4871 79.1073C45.4871 80.0199 46.2269 80.7597 47.1395 80.7597C48.052 80.7597 48.7918 80.0199 48.7918 79.1073C48.7918 78.1947 48.052 77.4549 47.1395 77.4549Z" fill="#0075FF"/>
<path d="M47.1395 64.7082C46.2269 64.7082 45.4871 65.4479 45.4871 66.3605C45.4871 67.2731 46.2269 68.0129 47.1395 68.0129C48.052 68.0129 48.7918 67.2731 48.7918 66.3605C48.7918 65.4479 48.052 64.7082 47.1395 64.7082Z" fill="#0075FF"/>
<path d="M47.1395 51.9614C46.2269 51.9614 45.4871 52.7012 45.4871 53.6137C45.4871 54.5263 46.2269 55.2661 47.1395 55.2661C48.052 55.2661 48.7918 54.5263 48.7918 53.6137C48.7918 52.7012 48.052 51.9614 47.1395 51.9614Z" fill="#0075FF"/>
<path d="M47.1395 39.2146C46.2269 39.2146 45.4871 39.9544 45.4871 40.867C45.4871 41.7795 46.2269 42.5193 47.1395 42.5193C48.052 42.5193 48.7918 41.7795 48.7918 40.867C48.7918 39.9544 48.052 39.2146 47.1395 39.2146Z" fill="#0075FF"/>
<path d="M47.1395 13.721C46.2269 13.721 45.4871 14.4608 45.4871 15.3734C45.4871 16.286 46.2269 17.0258 47.1395 17.0258C48.052 17.0258 48.7918 16.286 48.7918 15.3734C48.7918 14.4608 48.052 13.721 47.1395 13.721Z" fill="#0075FF"/>
<path d="M47.1395 26.4678C46.2269 26.4678 45.4871 27.2076 45.4871 28.1202C45.4871 29.0328 46.2269 29.7725 47.1395 29.7725C48.052 29.7725 48.7918 29.0328 48.7918 28.1202C48.7918 27.2076 48.052 26.4678 47.1395 26.4678Z" fill="#0075FF"/>
<path d="M47.1395 0.974258C46.2269 0.974258 45.4871 1.71404 45.4871 2.62662C45.4871 3.53919 46.2269 4.27898 47.1395 4.27898C48.052 4.27898 48.7918 3.53919 48.7918 2.62662C48.7918 1.71404 48.052 0.974258 47.1395 0.974258Z" fill="#0075FF"/>
<path d="M8.89914 115.695C7.98657 115.695 7.24677 116.435 7.24677 117.348C7.24677 118.26 7.98657 119 8.89914 119C9.81171 119 10.5515 118.26 10.5515 117.348C10.5515 116.435 9.81171 115.695 8.89914 115.695Z" fill="#0075FF"/>
<path d="M8.89914 102.948C7.98657 102.948 7.24677 103.688 7.24677 104.601C7.24677 105.513 7.98657 106.253 8.89914 106.253C9.81171 106.253 10.5515 105.513 10.5515 104.601C10.5515 103.688 9.81171 102.948 8.89914 102.948Z" fill="#0075FF"/>
<path d="M8.89914 90.2017C7.98657 90.2017 7.24677 90.9415 7.24677 91.8541C7.24677 92.7667 7.98657 93.5064 8.89914 93.5064C9.81171 93.5064 10.5515 92.7667 10.5515 91.8541C10.5515 90.9415 9.81171 90.2017 8.89914 90.2017Z" fill="#0075FF"/>
<path d="M8.89914 77.4549C7.98657 77.4549 7.24677 78.1947 7.24677 79.1073C7.24677 80.0199 7.98657 80.7597 8.89914 80.7597C9.81171 80.7597 10.5515 80.0199 10.5515 79.1073C10.5515 78.1947 9.81171 77.4549 8.89914 77.4549Z" fill="#0075FF"/>
<path d="M8.89914 64.7082C7.98657 64.7082 7.24677 65.4479 7.24677 66.3605C7.24677 67.2731 7.98657 68.0129 8.89914 68.0129C9.81171 68.0129 10.5515 67.2731 10.5515 66.3605C10.5515 65.4479 9.81171 64.7082 8.89914 64.7082Z" fill="#0075FF"/>
<path d="M8.89914 51.9614C7.98657 51.9614 7.24677 52.7012 7.24677 53.6137C7.24677 54.5263 7.98657 55.2661 8.89914 55.2661C9.81171 55.2661 10.5515 54.5263 10.5515 53.6137C10.5515 52.7012 9.81171 51.9614 8.89914 51.9614Z" fill="#0075FF"/>
<path d="M8.89914 39.2146C7.98657 39.2146 7.24677 39.9544 7.24677 40.867C7.24677 41.7795 7.98657 42.5193 8.89914 42.5193C9.81171 42.5193 10.5515 41.7795 10.5515 40.867C10.5515 39.9544 9.81171 39.2146 8.89914 39.2146Z" fill="#0075FF"/>
<path d="M8.89914 13.721C7.98657 13.721 7.24677 14.4608 7.24677 15.3734C7.24677 16.286 7.98657 17.0258 8.89914 17.0258C9.81171 17.0258 10.5515 16.286 10.5515 15.3734C10.5515 14.4608 9.81171 13.721 8.89914 13.721Z" fill="#0075FF"/>
<path d="M8.89914 26.4678C7.98657 26.4678 7.24677 27.2076 7.24677 28.1202C7.24677 29.0328 7.98657 29.7725 8.89914 29.7725C9.81171 29.7725 10.5515 29.0328 10.5515 28.1202C10.5515 27.2076 9.81171 26.4678 8.89914 26.4678Z" fill="#0075FF"/>
<path d="M8.89914 0.974258C7.98657 0.974258 7.24677 1.71404 7.24677 2.62662C7.24677 3.53919 7.98657 4.27898 8.89914 4.27898C9.81171 4.27898 10.5515 3.53919 10.5515 2.62662C10.5515 1.71404 9.81171 0.974258 8.89914 0.974258Z" fill="#0075FF"/>
<path d="M72.6331 115.695C71.7205 115.695 70.9807 116.435 70.9807 117.348C70.9807 118.26 71.7205 119 72.6331 119C73.5456 119 74.2854 118.26 74.2854 117.348C74.2854 116.435 73.5456 115.695 72.6331 115.695Z" fill="#0075FF"/>
<path d="M72.6331 102.948C71.7205 102.948 70.9807 103.688 70.9807 104.601C70.9807 105.513 71.7205 106.253 72.6331 106.253C73.5456 106.253 74.2854 105.513 74.2854 104.601C74.2854 103.688 73.5456 102.948 72.6331 102.948Z" fill="#0075FF"/>
<path d="M72.6331 90.2017C71.7205 90.2017 70.9807 90.9415 70.9807 91.8541C70.9807 92.7667 71.7205 93.5064 72.6331 93.5064C73.5456 93.5064 74.2854 92.7667 74.2854 91.8541C74.2854 90.9415 73.5456 90.2017 72.6331 90.2017Z" fill="#0075FF"/>
<path d="M72.6331 77.4549C71.7205 77.4549 70.9807 78.1947 70.9807 79.1073C70.9807 80.0199 71.7205 80.7597 72.6331 80.7597C73.5456 80.7597 74.2854 80.0199 74.2854 79.1073C74.2854 78.1947 73.5456 77.4549 72.6331 77.4549Z" fill="#0075FF"/>
<path d="M72.6331 64.7082C71.7205 64.7082 70.9807 65.4479 70.9807 66.3605C70.9807 67.2731 71.7205 68.0129 72.6331 68.0129C73.5456 68.0129 74.2854 67.2731 74.2854 66.3605C74.2854 65.4479 73.5456 64.7082 72.6331 64.7082Z" fill="#0075FF"/>
<path d="M72.6331 51.9614C71.7205 51.9614 70.9807 52.7012 70.9807 53.6137C70.9807 54.5263 71.7205 55.2661 72.6331 55.2661C73.5456 55.2661 74.2854 54.5263 74.2854 53.6137C74.2854 52.7012 73.5456 51.9614 72.6331 51.9614Z" fill="#0075FF"/>
<path d="M72.6331 39.2146C71.7205 39.2146 70.9807 39.9544 70.9807 40.867C70.9807 41.7795 71.7205 42.5193 72.6331 42.5193C73.5456 42.5193 74.2854 41.7795 74.2854 40.867C74.2854 39.9544 73.5456 39.2146 72.6331 39.2146Z" fill="#0075FF"/>
<path d="M72.6331 13.721C71.7205 13.721 70.9807 14.4608 70.9807 15.3734C70.9807 16.286 71.7205 17.0258 72.6331 17.0258C73.5456 17.0258 74.2854 16.286 74.2854 15.3734C74.2854 14.4608 73.5456 13.721 72.6331 13.721Z" fill="#0075FF"/>
<path d="M72.6331 26.4678C71.7205 26.4678 70.9807 27.2076 70.9807 28.1202C70.9807 29.0328 71.7205 29.7725 72.6331 29.7725C73.5456 29.7725 74.2854 29.0328 74.2854 28.1202C74.2854 27.2076 73.5456 26.4678 72.6331 26.4678Z" fill="#0075FF"/>
<path d="M72.6331 0.974258C71.7205 0.974258 70.9807 1.71404 70.9807 2.62662C70.9807 3.53919 71.7205 4.27898 72.6331 4.27898C73.5456 4.27898 74.2854 3.53919 74.2854 2.62662C74.2854 1.71404 73.5456 0.974258 72.6331 0.974258Z" fill="#0075FF"/>
<path d="M34.3927 115.695C33.4801 115.695 32.7403 116.435 32.7403 117.348C32.7403 118.26 33.4801 119 34.3927 119C35.3053 119 36.0451 118.26 36.0451 117.348C36.0451 116.435 35.3053 115.695 34.3927 115.695Z" fill="#0075FF"/>
<path d="M34.3927 102.948C33.4801 102.948 32.7403 103.688 32.7403 104.601C32.7403 105.513 33.4801 106.253 34.3927 106.253C35.3053 106.253 36.0451 105.513 36.0451 104.601C36.0451 103.688 35.3053 102.948 34.3927 102.948Z" fill="#0075FF"/>
<path d="M34.3927 90.2017C33.4801 90.2017 32.7403 90.9415 32.7403 91.8541C32.7403 92.7667 33.4801 93.5064 34.3927 93.5064C35.3053 93.5064 36.0451 92.7667 36.0451 91.8541C36.0451 90.9415 35.3053 90.2017 34.3927 90.2017Z" fill="#0075FF"/>
<path d="M34.3927 77.4549C33.4801 77.4549 32.7403 78.1947 32.7403 79.1073C32.7403 80.0199 33.4801 80.7597 34.3927 80.7597C35.3053 80.7597 36.0451 80.0199 36.0451 79.1073C36.0451 78.1947 35.3053 77.4549 34.3927 77.4549Z" fill="#0075FF"/>
<path d="M34.3927 64.7082C33.4801 64.7082 32.7403 65.4479 32.7403 66.3605C32.7403 67.2731 33.4801 68.0129 34.3927 68.0129C35.3053 68.0129 36.0451 67.2731 36.0451 66.3605C36.0451 65.4479 35.3053 64.7082 34.3927 64.7082Z" fill="#0075FF"/>
<path d="M34.3927 51.9614C33.4801 51.9614 32.7403 52.7012 32.7403 53.6137C32.7403 54.5263 33.4801 55.2661 34.3927 55.2661C35.3053 55.2661 36.0451 54.5263 36.0451 53.6137C36.0451 52.7012 35.3053 51.9614 34.3927 51.9614Z" fill="#0075FF"/>
<path d="M34.3927 39.2146C33.4801 39.2146 32.7403 39.9544 32.7403 40.867C32.7403 41.7795 33.4801 42.5193 34.3927 42.5193C35.3053 42.5193 36.0451 41.7795 36.0451 40.867C36.0451 39.9544 35.3053 39.2146 34.3927 39.2146Z" fill="#0075FF"/>
<path d="M34.3927 13.721C33.4801 13.721 32.7403 14.4608 32.7403 15.3734C32.7403 16.286 33.4801 17.0258 34.3927 17.0258C35.3053 17.0258 36.0451 16.286 36.0451 15.3734C36.0451 14.4608 35.3053 13.721 34.3927 13.721Z" fill="#0075FF"/>
<path d="M34.3927 26.4678C33.4801 26.4678 32.7403 27.2076 32.7403 28.1202C32.7403 29.0328 33.4801 29.7725 34.3927 29.7725C35.3053 29.7725 36.0451 29.0328 36.0451 28.1202C36.0451 27.2076 35.3053 26.4678 34.3927 26.4678Z" fill="#0075FF"/>
<path d="M34.3927 0.974258C33.4801 0.974258 32.7403 1.71404 32.7403 2.62662C32.7403 3.53919 33.4801 4.27898 34.3927 4.27898C35.3053 4.27898 36.0451 3.53919 36.0451 2.62662C36.0451 1.71404 35.3053 0.974258 34.3927 0.974258Z" fill="#0075FF"/>
<path d="M-3.84763 115.695C-4.76019 115.695 -5.5 116.435 -5.5 117.348C-5.5 118.26 -4.76019 119 -3.84763 119C-2.93506 119 -2.19528 118.26 -2.19528 117.348C-2.19528 116.435 -2.93506 115.695 -3.84763 115.695Z" fill="#0075FF"/>
<path d="M-3.84763 102.948C-4.76019 102.948 -5.5 103.688 -5.5 104.601C-5.5 105.513 -4.76019 106.253 -3.84763 106.253C-2.93506 106.253 -2.19528 105.513 -2.19528 104.601C-2.19528 103.688 -2.93506 102.948 -3.84763 102.948Z" fill="#0075FF"/>
<path d="M-3.84763 90.2017C-4.76019 90.2017 -5.5 90.9415 -5.5 91.8541C-5.5 92.7667 -4.76019 93.5064 -3.84763 93.5064C-2.93506 93.5064 -2.19528 92.7667 -2.19528 91.8541C-2.19528 90.9415 -2.93506 90.2017 -3.84763 90.2017Z" fill="#0075FF"/>
<path d="M-3.84763 77.4549C-4.76019 77.4549 -5.5 78.1947 -5.5 79.1073C-5.5 80.0199 -4.76019 80.7597 -3.84763 80.7597C-2.93506 80.7597 -2.19528 80.0199 -2.19528 79.1073C-2.19528 78.1947 -2.93506 77.4549 -3.84763 77.4549Z" fill="#0075FF"/>
<path d="M-3.84763 64.7082C-4.76019 64.7082 -5.5 65.4479 -5.5 66.3605C-5.5 67.2731 -4.76019 68.0129 -3.84763 68.0129C-2.93506 68.0129 -2.19528 67.2731 -2.19528 66.3605C-2.19528 65.4479 -2.93506 64.7082 -3.84763 64.7082Z" fill="#0075FF"/>
<path d="M-3.84763 51.9614C-4.76019 51.9614 -5.5 52.7012 -5.5 53.6137C-5.5 54.5263 -4.76019 55.2661 -3.84763 55.2661C-2.93506 55.2661 -2.19528 54.5263 -2.19528 53.6137C-2.19528 52.7012 -2.93506 51.9614 -3.84763 51.9614Z" fill="#0075FF"/>
<path d="M-3.84763 39.2146C-4.76019 39.2146 -5.5 39.9544 -5.5 40.867C-5.5 41.7795 -4.76019 42.5193 -3.84763 42.5193C-2.93506 42.5193 -2.19528 41.7795 -2.19528 40.867C-2.19528 39.9544 -2.93506 39.2146 -3.84763 39.2146Z" fill="#0075FF"/>
<path d="M-3.84763 13.721C-4.76019 13.721 -5.5 14.4608 -5.5 15.3734C-5.5 16.286 -4.76019 17.0258 -3.84763 17.0258C-2.93506 17.0258 -2.19528 16.286 -2.19528 15.3734C-2.19528 14.4608 -2.93506 13.721 -3.84763 13.721Z" fill="#0075FF"/>
<path d="M-3.84763 26.4678C-4.76019 26.4678 -5.5 27.2076 -5.5 28.1202C-5.5 29.0328 -4.76019 29.7725 -3.84763 29.7725C-2.93506 29.7725 -2.19528 29.0328 -2.19528 28.1202C-2.19528 27.2076 -2.93506 26.4678 -3.84763 26.4678Z" fill="#0075FF"/>
<path d="M-3.84763 0.974258C-4.76019 0.974258 -5.5 1.71404 -5.5 2.62662C-5.5 3.53919 -4.76019 4.27898 -3.84763 4.27898C-2.93506 4.27898 -2.19528 3.53919 -2.19528 2.62662C-2.19528 1.71404 -2.93506 0.974258 -3.84763 0.974258Z" fill="#0075FF"/>
<path d="M58.2339 -10.1202C58.2339 -11.0327 58.9737 -11.7725 59.8863 -11.7725C60.7988 -11.7725 61.5386 -11.0327 61.5386 -10.1202C61.5386 -9.2076 60.7988 -8.4678 59.8863 -8.4678C58.9737 -8.4678 58.2339 -9.2076 58.2339 -10.1202Z" fill="#0075FF"/>
<path d="M58.2339 -22.8669C58.2339 -23.7795 58.9737 -24.5193 59.8863 -24.5193C60.7988 -24.5193 61.5386 -23.7795 61.5386 -22.8669C61.5386 -21.9544 60.7988 -21.2146 59.8863 -21.2146C58.9737 -21.2146 58.2339 -21.9544 58.2339 -22.8669Z" fill="#0075FF"/>
<path d="M58.2339 -35.6137C58.2339 -36.5263 58.9737 -37.2661 59.8863 -37.2661C60.7988 -37.2661 61.5386 -36.5263 61.5386 -35.6137C61.5386 -34.7012 60.7988 -33.9614 59.8863 -33.9614C58.9737 -33.9614 58.2339 -34.7012 58.2339 -35.6137Z" fill="#0075FF"/>
<path d="M19.9936 -10.1202C19.9936 -11.0327 20.7334 -11.7725 21.6459 -11.7725C22.5585 -11.7725 23.2983 -11.0327 23.2983 -10.1202C23.2983 -9.2076 22.5585 -8.4678 21.6459 -8.4678C20.7334 -8.4678 19.9936 -9.2076 19.9936 -10.1202Z" fill="#0075FF"/>
<path d="M19.9936 -22.8669C19.9936 -23.7795 20.7334 -24.5193 21.6459 -24.5193C22.5585 -24.5193 23.2983 -23.7795 23.2983 -22.8669C23.2983 -21.9544 22.5585 -21.2146 21.6459 -21.2146C20.7334 -21.2146 19.9936 -21.9544 19.9936 -22.8669Z" fill="#0075FF"/>
<path d="M19.9936 -35.6137C19.9936 -36.5263 20.7334 -37.2661 21.6459 -37.2661C22.5585 -37.2661 23.2983 -36.5263 23.2983 -35.6137C23.2983 -34.7012 22.5585 -33.9614 21.6459 -33.9614C20.7334 -33.9614 19.9936 -34.7012 19.9936 -35.6137Z" fill="#0075FF"/>
<path d="M19.9936 -48.3605C19.9936 -49.2731 20.7334 -50.0129 21.6459 -50.0129C22.5585 -50.0129 23.2983 -49.2731 23.2983 -48.3605C23.2983 -47.4479 22.5585 -46.7081 21.6459 -46.7081C20.7334 -46.7081 19.9936 -47.4479 19.9936 -48.3605Z" fill="#0075FF"/>
<path d="M19.9936 -61.1073C19.9936 -62.0198 20.7334 -62.7596 21.6459 -62.7596C22.5585 -62.7596 23.2983 -62.0198 23.2983 -61.1073C23.2983 -60.1947 22.5585 -59.4549 21.6459 -59.4549C20.7334 -59.4549 19.9936 -60.1947 19.9936 -61.1073Z" fill="#0075FF"/>
<path d="M19.9936 -73.854C19.9936 -74.7666 20.7334 -75.5064 21.6459 -75.5064C22.5585 -75.5064 23.2983 -74.7666 23.2983 -73.854C23.2983 -72.9415 22.5585 -72.2017 21.6459 -72.2017C20.7334 -72.2017 19.9936 -72.9415 19.9936 -73.854Z" fill="#0075FF"/>
<path d="M83.7275 -10.1202C83.7275 -11.0327 84.4673 -11.7725 85.3798 -11.7725C86.2924 -11.7725 87.0322 -11.0327 87.0322 -10.1202C87.0322 -9.2076 86.2924 -8.4678 85.3798 -8.4678C84.4673 -8.4678 83.7275 -9.2076 83.7275 -10.1202Z" fill="#0075FF"/>
<path d="M45.4871 -10.1202C45.4871 -11.0327 46.2269 -11.7725 47.1395 -11.7725C48.052 -11.7725 48.7918 -11.0327 48.7918 -10.1202C48.7918 -9.2076 48.052 -8.4678 47.1395 -8.4678C46.2269 -8.4678 45.4871 -9.2076 45.4871 -10.1202Z" fill="#0075FF"/>
<path d="M45.4871 -22.8669C45.4871 -23.7795 46.2269 -24.5193 47.1395 -24.5193C48.052 -24.5193 48.7918 -23.7795 48.7918 -22.8669C48.7918 -21.9544 48.052 -21.2146 47.1395 -21.2146C46.2269 -21.2146 45.4871 -21.9544 45.4871 -22.8669Z" fill="#0075FF"/>
<path d="M45.4871 -35.6137C45.4871 -36.5263 46.2269 -37.2661 47.1395 -37.2661C48.052 -37.2661 48.7918 -36.5263 48.7918 -35.6137C48.7918 -34.7012 48.052 -33.9614 47.1395 -33.9614C46.2269 -33.9614 45.4871 -34.7012 45.4871 -35.6137Z" fill="#0075FF"/>
<path d="M45.4871 -48.3605C45.4871 -49.2731 46.2269 -50.0129 47.1395 -50.0129C48.052 -50.0129 48.7918 -49.2731 48.7918 -48.3605C48.7918 -47.4479 48.052 -46.7081 47.1395 -46.7081C46.2269 -46.7081 45.4871 -47.4479 45.4871 -48.3605Z" fill="#0075FF"/>
<path d="M7.24677 -10.1202C7.24677 -11.0327 7.98657 -11.7725 8.89914 -11.7725C9.81171 -11.7725 10.5515 -11.0327 10.5515 -10.1202C10.5515 -9.2076 9.81171 -8.4678 8.89914 -8.4678C7.98657 -8.4678 7.24677 -9.2076 7.24677 -10.1202Z" fill="#0075FF"/>
<path d="M7.24677 -22.8669C7.24677 -23.7795 7.98657 -24.5193 8.89914 -24.5193C9.81171 -24.5193 10.5515 -23.7795 10.5515 -22.8669C10.5515 -21.9544 9.81171 -21.2146 8.89914 -21.2146C7.98657 -21.2146 7.24677 -21.9544 7.24677 -22.8669Z" fill="#0075FF"/>
<path d="M7.24677 -35.6137C7.24677 -36.5263 7.98657 -37.2661 8.89914 -37.2661C9.81171 -37.2661 10.5515 -36.5263 10.5515 -35.6137C10.5515 -34.7012 9.81171 -33.9614 8.89914 -33.9614C7.98657 -33.9614 7.24677 -34.7012 7.24677 -35.6137Z" fill="#0075FF"/>
<path d="M7.24677 -48.3605C7.24677 -49.2731 7.98657 -50.0129 8.89914 -50.0129C9.81171 -50.0129 10.5515 -49.2731 10.5515 -48.3605C10.5515 -47.4479 9.81171 -46.7081 8.89914 -46.7081C7.98657 -46.7081 7.24677 -47.4479 7.24677 -48.3605Z" fill="#0075FF"/>
<path d="M7.24677 -61.1073C7.24677 -62.0198 7.98657 -62.7596 8.89914 -62.7596C9.81171 -62.7596 10.5515 -62.0198 10.5515 -61.1073C10.5515 -60.1947 9.81171 -59.4549 8.89914 -59.4549C7.98657 -59.4549 7.24677 -60.1947 7.24677 -61.1073Z" fill="#0075FF"/>
<path d="M7.24677 -73.854C7.24677 -74.7666 7.98657 -75.5064 8.89914 -75.5064C9.81171 -75.5064 10.5515 -74.7666 10.5515 -73.854C10.5515 -72.9415 9.81171 -72.2017 8.89914 -72.2017C7.98657 -72.2017 7.24677 -72.9415 7.24677 -73.854Z" fill="#0075FF"/>
<path d="M7.24677 -86.6008C7.24677 -87.5134 7.98657 -88.2532 8.89914 -88.2532C9.81171 -88.2532 10.5515 -87.5134 10.5515 -86.6008C10.5515 -85.6883 9.81171 -84.9485 8.89914 -84.9485C7.98657 -84.9485 7.24677 -85.6883 7.24677 -86.6008Z" fill="#0075FF"/>
<path d="M70.9807 -10.1202C70.9807 -11.0327 71.7205 -11.7725 72.6331 -11.7725C73.5456 -11.7725 74.2854 -11.0327 74.2854 -10.1202C74.2854 -9.2076 73.5456 -8.4678 72.6331 -8.4678C71.7205 -8.4678 70.9807 -9.2076 70.9807 -10.1202Z" fill="#0075FF"/>
<path d="M70.9807 -22.8669C70.9807 -23.7795 71.7205 -24.5193 72.6331 -24.5193C73.5456 -24.5193 74.2854 -23.7795 74.2854 -22.8669C74.2854 -21.9544 73.5456 -21.2146 72.6331 -21.2146C71.7205 -21.2146 70.9807 -21.9544 70.9807 -22.8669Z" fill="#0075FF"/>
<path d="M32.7403 -10.1202C32.7403 -11.0327 33.4801 -11.7725 34.3927 -11.7725C35.3053 -11.7725 36.0451 -11.0327 36.0451 -10.1202C36.0451 -9.2076 35.3053 -8.4678 34.3927 -8.4678C33.4801 -8.4678 32.7403 -9.2076 32.7403 -10.1202Z" fill="#0075FF"/>
<path d="M32.7403 -22.8669C32.7403 -23.7795 33.4801 -24.5193 34.3927 -24.5193C35.3053 -24.5193 36.0451 -23.7795 36.0451 -22.8669C36.0451 -21.9544 35.3053 -21.2146 34.3927 -21.2146C33.4801 -21.2146 32.7403 -21.9544 32.7403 -22.8669Z" fill="#0075FF"/>
<path d="M32.7403 -35.6137C32.7403 -36.5263 33.4801 -37.2661 34.3927 -37.2661C35.3053 -37.2661 36.0451 -36.5263 36.0451 -35.6137C36.0451 -34.7012 35.3053 -33.9614 34.3927 -33.9614C33.4801 -33.9614 32.7403 -34.7012 32.7403 -35.6137Z" fill="#0075FF"/>
<path d="M32.7403 -48.3605C32.7403 -49.2731 33.4801 -50.0129 34.3927 -50.0129C35.3053 -50.0129 36.0451 -49.2731 36.0451 -48.3605C36.0451 -47.4479 35.3053 -46.7081 34.3927 -46.7081C33.4801 -46.7081 32.7403 -47.4479 32.7403 -48.3605Z" fill="#0075FF"/>
<path d="M32.7403 -61.1073C32.7403 -62.0198 33.4801 -62.7596 34.3927 -62.7596C35.3053 -62.7596 36.0451 -62.0198 36.0451 -61.1073C36.0451 -60.1947 35.3053 -59.4549 34.3927 -59.4549C33.4801 -59.4549 32.7403 -60.1947 32.7403 -61.1073Z" fill="#0075FF"/>
<path d="M-5.5 -10.1202C-5.5 -11.0327 -4.76019 -11.7725 -3.84763 -11.7725C-2.93506 -11.7725 -2.19528 -11.0327 -2.19528 -10.1202C-2.19528 -9.2076 -2.93506 -8.4678 -3.84763 -8.4678C-4.76019 -8.4678 -5.5 -9.2076 -5.5 -10.1202Z" fill="#0075FF"/>
<path d="M-5.5 -22.8669C-5.5 -23.7795 -4.76019 -24.5193 -3.84763 -24.5193C-2.93506 -24.5193 -2.19528 -23.7795 -2.19528 -22.8669C-2.19528 -21.9544 -2.93506 -21.2146 -3.84763 -21.2146C-4.76019 -21.2146 -5.5 -21.9544 -5.5 -22.8669Z" fill="#0075FF"/>
<path d="M-5.5 -35.6137C-5.5 -36.5263 -4.76019 -37.2661 -3.84763 -37.2661C-2.93506 -37.2661 -2.19528 -36.5263 -2.19528 -35.6137C-2.19528 -34.7012 -2.93506 -33.9614 -3.84763 -33.9614C-4.76019 -33.9614 -5.5 -34.7012 -5.5 -35.6137Z" fill="#0075FF"/>
<path d="M-5.5 -48.3605C-5.5 -49.2731 -4.76019 -50.0129 -3.84763 -50.0129C-2.93506 -50.0129 -2.19528 -49.2731 -2.19528 -48.3605C-2.19528 -47.4479 -2.93506 -46.7081 -3.84763 -46.7081C-4.76019 -46.7081 -5.5 -47.4479 -5.5 -48.3605Z" fill="#0075FF"/>
<path d="M-5.5 -61.1073C-5.5 -62.0198 -4.76019 -62.7596 -3.84763 -62.7596C-2.93506 -62.7596 -2.19528 -62.0198 -2.19528 -61.1073C-2.19528 -60.1947 -2.93506 -59.4549 -3.84763 -59.4549C-4.76019 -59.4549 -5.5 -60.1947 -5.5 -61.1073Z" fill="#0075FF"/>
<path d="M-5.5 -73.854C-5.5 -74.7666 -4.76019 -75.5064 -3.84763 -75.5064C-2.93506 -75.5064 -2.19528 -74.7666 -2.19528 -73.854C-2.19528 -72.9415 -2.93506 -72.2017 -3.84763 -72.2017C-4.76019 -72.2017 -5.5 -72.9415 -5.5 -73.854Z" fill="#0075FF"/>
<path d="M-5.5 -86.6008C-5.5 -87.5134 -4.76019 -88.2532 -3.84763 -88.2532C-2.93506 -88.2532 -2.19528 -87.5134 -2.19528 -86.6008C-2.19528 -85.6883 -2.93506 -84.9485 -3.84763 -84.9485C-4.76019 -84.9485 -5.5 -85.6883 -5.5 -86.6008Z" fill="#0075FF"/>
<path d="M-5.5 -99.3476C-5.5 -100.26 -4.76019 -101 -3.84763 -101C-2.93506 -101 -2.19528 -100.26 -2.19528 -99.3476C-2.19528 -98.435 -2.93506 -97.6953 -3.84763 -97.6953C-4.76019 -97.6953 -5.5 -98.435 -5.5 -99.3476Z" fill="#0075FF"/>
</g>
</g>
</g>
<defs>
<clipPath id="clip0_2812_886">
<rect width="220" height="119" fill="white"/>
</clipPath>
</defs>
</svg>
