<svg width="98" height="112" viewBox="0 0 98 112" fill="none" xmlns="http://www.w3.org/2000/svg">
<path d="M77.8986 22.584C75.0203 20.4558 73.3073 16.7528 73.3073 12.6601C73.3073 6.40024 77.7442 1.16936 83.6011 1.46173e-05L14.3996 2.51771e-06C20.2641 1.16935 24.6934 6.40802 24.6934 12.6835C24.6934 16.7372 22.9032 20.4947 19.9015 22.7399C6.87603 32.4533 -0.547238 47.9978 0.0314956 64.3218C0.949753 90.18 22.5482 111.571 48.1669 112C48.4447 112 48.7302 112 49.008 112C61.9486 112 74.1175 106.972 83.3541 97.7886C92.7914 88.4104 98 75.875 98 62.4977C98 46.7973 90.4842 31.8764 77.8986 22.5762L77.8986 22.584Z" fill="black"/>
</svg>
