<svg width="535" height="68" viewBox="0 0 535 68" fill="none" xmlns="http://www.w3.org/2000/svg">
<g clip-path="url(#clip0_5013_225)">
<path d="M0 0C0 0 122.1 98.5 314.7 34.4C317.7 33.4 320.6 32.5 323.5 31.6C324.4 31.3 325.2 31.1 326.1 30.8C327.5 30.4 328.9 30 330.2 29.6C331 29.4 331.7 29.2 332.4 28.9C333.6 28.6 334.7 28.2 335.8 27.9C336.5 27.7 337.2 27.5 337.9 27.3C340.4 26.6 343 25.9 345.5 25.3C346.5 25.1 347.5 24.8 348.4 24.6C351.3 23.9 354.1 23.2 356.9 22.6C359.4 22 361.9 21.5 364.3 21C364.8 20.9 365.3 20.8 365.8 20.7C370.2 19.8 374.5 19 378.7 18.2C378.9 18.2 379 18.2 379.2 18.1C380.1 18 380.9 17.8 381.8 17.7C383.4 17.4 385 17.2 386.6 16.9C386.8 16.9 386.9 16.9 387.1 16.8C389.3 16.5 391.5 16.2 393.7 15.9C396 15.6 398.3 15.3 400.5 15.1C402.8 14.9 405 14.6 407.2 14.4C408.4 14.3 409.6 14.2 410.8 14.1C411 14.1 411.2 14.1 411.4 14.1C413.7 13.9 416 13.7 418.2 13.6C418.4 13.6 418.7 13.6 418.9 13.6C420.3 13.5 421.7 13.4 423 13.4C423.1 13.4 423.2 13.4 423.4 13.4C424.9 13.3 426.4 13.3 427.8 13.2C430.1 13.1 432.3 13.1 434.6 13H434.7C435 13 435.4 13 435.7 13C436.9 13 438.1 13 439.2 13H439.3C439.6 13 439.9 13 440.2 13C441.4 13 442.5 13 443.7 13C444 13 444.4 13 444.7 13C445.8 13 446.9 13 448 13.1C448.4 13.1 448.8 13.1 449.2 13.1C449.6 13.1 449.9 13.1 450.2 13.1C451.3 13.1 452.5 13.2 453.6 13.3C453.8 13.3 454.1 13.3 454.4 13.3C455.6 13.4 456.8 13.4 458 13.5C458.2 13.5 458.3 13.5 458.5 13.5C458.7 13.5 458.9 13.5 459.1 13.5C460.2 13.6 461.3 13.7 462.4 13.7C464.1 13.8 465.7 14 467.3 14.1C468.8 14.3 470.4 14.4 471.9 14.6C473 14.7 474.1 14.9 475.2 15C475.3 15 475.4 15 475.6 15C475.8 15 476.1 15.1 476.3 15.1C477.2 15.2 478.2 15.3 479.1 15.5C479.4 15.5 479.6 15.6 479.9 15.6C480.2 15.6 480.5 15.7 480.8 15.7C483.9 16.2 486.9 16.7 489.8 17.2C490.8 17.4 491.8 17.6 492.7 17.8C493.8 18 494.8 18.2 495.8 18.4C496.5 18.5 497.3 18.7 498 18.9C498.8 19.1 499.5 19.2 500.2 19.4C500.4 19.4 500.6 19.5 500.8 19.5C501.4 19.6 502 19.8 502.5 19.9C503.3 20.1 504 20.3 504.8 20.5C505.4 20.7 506 20.8 506.6 21C507.2 21.2 507.9 21.3 508.5 21.5C510.2 22 511.8 22.4 513.4 22.9C513.7 23 514 23.1 514.2 23.1C514.4 23.2 514.6 23.2 514.8 23.3C515.3 23.5 515.8 23.6 516.3 23.8C517.2 24.1 518.1 24.4 518.9 24.7C520 25.1 521 25.4 521.9 25.7H522C522.5 25.9 523.1 26.1 523.6 26.3C526.9 27.5 529.6 28.7 531.4 29.5C531.6 29.6 531.8 29.7 532 29.8C532.6 30.1 533.2 30.3 533.6 30.6C533.7 30.6 533.8 30.7 533.9 30.8C534.5 31.1 534.8 31.3 534.8 31.3V0H0Z" fill="black"/>
</g>
<defs>
<clipPath id="clip0_5013_225">
<rect width="535" height="68" fill="white"/>
</clipPath>
</defs>
</svg>
