<svg width="535" height="68" viewBox="0 0 535 68" fill="none" xmlns="http://www.w3.org/2000/svg">
<path d="M349.461 24.2822C338.323 27.042 326.73 30.382 314.694 34.3867C122.094 98.4718 0 0 0 0V26.5723C0.162181 26.6677 122.222 98.4302 314.694 34.3877C326.73 30.3829 338.323 27.042 349.461 24.2822ZM533.019 30.2793C533.764 30.6314 534.3 30.9027 534.625 31.0693C534.3 30.9027 533.764 30.6314 533.019 30.2793ZM533.019 30.2793C532.975 30.2585 532.93 30.2362 532.885 30.2148C532.93 30.2362 532.975 30.2585 533.019 30.2793ZM531.447 29.5576C531.987 29.7994 532.467 30.0186 532.885 30.2148C532.467 30.0186 531.987 29.7994 531.447 29.5576ZM519.064 24.7773C524.288 26.5367 528.257 28.1498 530.928 29.3271C528.257 28.1498 524.288 26.5367 519.064 24.7773ZM519.064 24.7773C518.83 24.6985 518.595 24.6175 518.355 24.5381C518.595 24.6175 518.83 24.6985 519.064 24.7773ZM517.553 24.2773C517.173 24.1533 516.788 24.0255 516.396 23.9004C516.788 24.0255 517.173 24.1533 517.553 24.2773ZM353.815 23.2305C352.876 23.4528 351.934 23.6795 350.988 23.9102C351.934 23.6795 352.876 23.4528 353.815 23.2305ZM360.377 21.7314C358.208 22.2088 356.021 22.7082 353.815 23.2305C356.021 22.7082 358.208 22.2088 360.377 21.7314ZM513.128 22.8926C512.777 22.7875 512.423 22.6795 512.064 22.5742C512.423 22.6795 512.777 22.7875 513.128 22.8926ZM511.323 22.3613C510.817 22.2148 510.303 22.0655 509.78 21.9189C510.303 22.0655 510.817 22.2148 511.323 22.3613ZM509.065 21.7197C508.194 21.4788 507.302 21.2378 506.389 20.998C507.302 21.2378 508.194 21.4787 509.065 21.7197ZM366.371 20.458C364.745 20.7909 363.107 21.1341 361.459 21.4922C363.107 21.1341 364.745 20.7909 366.371 20.458ZM506.389 20.998C506.298 20.9743 506.207 20.9505 506.116 20.9268C506.207 20.9505 506.298 20.9743 506.389 20.998ZM503.511 20.2646C504.243 20.4462 504.964 20.6284 505.672 20.8115C504.964 20.6284 504.243 20.4462 503.511 20.2646ZM367.951 20.1367C367.426 20.2421 366.899 20.35 366.371 20.458C366.899 20.35 367.426 20.2421 367.951 20.1367ZM502.286 19.9648C502.048 19.9074 501.81 19.8502 501.569 19.793C501.81 19.8502 502.048 19.9074 502.286 19.9648ZM386.349 16.8926C380.38 17.7987 374.247 18.874 367.951 20.1367C374.247 18.874 380.38 17.7987 386.349 16.8926ZM500.607 19.5654C500.93 19.6408 501.251 19.7171 501.569 19.793C501.251 19.7171 500.93 19.6408 500.607 19.5654ZM489.346 17.2275C492.933 17.8832 496.318 18.583 499.496 19.3086C496.318 18.583 492.933 17.8832 489.346 17.2275ZM489.346 17.2275C489.253 17.2105 489.16 17.1927 489.066 17.1758C489.16 17.1927 489.253 17.2105 489.346 17.2275ZM486.976 16.8057C487.476 16.8921 487.972 16.9801 488.465 17.0684C487.972 16.9801 487.476 16.8921 486.976 16.8057ZM387.664 16.6953C392.84 15.9278 397.891 15.2868 402.814 14.7627C397.891 15.2868 392.84 15.9278 387.664 16.6953ZM484.996 16.4727C484.721 16.4274 484.445 16.3806 484.168 16.3359C484.445 16.3806 484.721 16.4274 484.996 16.4727ZM482.585 16.0859C482.202 16.0266 481.816 15.9693 481.429 15.9111C481.816 15.9693 482.202 16.0266 482.585 16.0859ZM481.429 15.9111C481.226 15.8807 481.023 15.8494 480.819 15.8193C481.023 15.8494 481.226 15.8807 481.429 15.9111ZM480.24 15.7354C479.851 15.6788 479.46 15.6218 479.067 15.5664C479.46 15.6218 479.851 15.6788 480.24 15.7354ZM477.572 15.3613C477.085 15.2955 476.595 15.2308 476.102 15.167C476.595 15.2308 477.085 15.2955 477.572 15.3613ZM476.102 15.167C475.93 15.1448 475.758 15.1216 475.585 15.0996C475.758 15.1216 475.93 15.1448 476.102 15.167ZM472.562 14.7334C473.358 14.8257 474.146 14.9209 474.928 15.0186C474.146 14.9209 473.358 14.8257 472.562 14.7334ZM403.839 14.6562C404.987 14.5373 406.129 14.4248 407.264 14.3184C406.129 14.4248 404.987 14.5373 403.839 14.6562ZM470.684 14.5215C471.314 14.5902 471.94 14.6613 472.562 14.7334C471.94 14.6613 471.314 14.5902 470.684 14.5215ZM470.684 14.5215C470.491 14.5005 470.297 14.4787 470.104 14.458C470.297 14.4787 470.491 14.5005 470.684 14.5215ZM469.084 14.3525C468.482 14.2905 467.877 14.2297 467.268 14.1709C467.877 14.2297 468.482 14.2905 469.084 14.3525ZM464.404 13.9082C465.368 13.9913 466.322 14.0797 467.268 14.1709C466.322 14.0797 465.368 13.9913 464.404 13.9082ZM411.543 13.9424C412.751 13.8438 413.952 13.7528 415.144 13.668C413.952 13.7528 412.751 13.8438 411.543 13.9424ZM459.046 13.498C460.863 13.6205 462.649 13.7569 464.404 13.9082C462.649 13.7569 460.863 13.6205 459.046 13.498ZM417.585 13.5029C418.314 13.4562 419.041 13.4127 419.764 13.3711C419.041 13.4127 418.314 13.4562 417.585 13.5029ZM459.046 13.498C458.859 13.4854 458.671 13.4713 458.483 13.459C458.671 13.4713 458.859 13.4854 459.046 13.498ZM457.687 13.4092C457.265 13.3827 456.842 13.3558 456.417 13.3311C456.842 13.3558 457.265 13.3827 457.687 13.4092ZM454.658 13.2354C454.093 13.2058 453.526 13.178 452.955 13.1514C453.526 13.178 454.093 13.2058 454.658 13.2354ZM421.677 13.2656C422.62 13.2167 423.557 13.1724 424.489 13.1318C423.557 13.1724 422.62 13.2167 421.677 13.2656ZM452.955 13.1514C452.746 13.1416 452.538 13.1304 452.328 13.1211C452.538 13.1304 452.746 13.1416 452.955 13.1514ZM427.545 13.0117C428.143 12.9912 428.739 12.9732 429.333 12.9561C428.739 12.9732 428.143 12.9912 427.545 13.0117ZM447.311 12.9414C448.719 12.9807 450.112 13.0295 451.489 13.0869C450.112 13.0295 448.719 12.9807 447.311 12.9414ZM431.994 12.8896C432.735 12.8743 433.472 12.8617 434.205 12.8516C433.472 12.8617 432.735 12.8743 431.994 12.8896ZM443.48 12.8574C444.11 12.8672 444.737 12.8801 445.361 12.8936C444.737 12.8801 444.11 12.8672 443.48 12.8574ZM435.526 12.8359C435.29 12.8382 435.053 12.839 434.816 12.8418C435.053 12.839 435.29 12.8382 435.526 12.8359ZM439.317 12.8203C438.065 12.8176 436.802 12.8235 435.526 12.8359C436.802 12.8235 438.065 12.8176 439.317 12.8203ZM439.317 12.8203C439.698 12.8211 440.078 12.824 440.457 12.8262C440.078 12.824 439.698 12.8211 439.317 12.8203ZM530.928 29.3271C531.037 29.3752 531.144 29.4212 531.249 29.4678C531.144 29.4212 531.037 29.3752 530.928 29.3271ZM503.511 20.2646C503.106 20.1644 502.698 20.0644 502.286 19.9648C502.698 20.0644 503.106 20.1644 503.511 20.2646ZM500.607 19.5654C500.24 19.4796 499.869 19.3938 499.496 19.3086C499.869 19.3938 500.24 19.4796 500.607 19.5654ZM486.976 16.8057C486.607 16.7421 486.237 16.6788 485.865 16.6162C486.237 16.6788 486.607 16.7421 486.976 16.8057ZM484.168 16.3359C483.644 16.2515 483.116 16.1682 482.585 16.0859C483.116 16.1682 483.644 16.2515 484.168 16.3359ZM479.067 15.5664C478.572 15.4967 478.074 15.429 477.572 15.3613C478.074 15.4291 478.572 15.4966 479.067 15.5664ZM470.104 14.458C469.765 14.4218 469.425 14.3877 469.084 14.3525C469.425 14.3877 469.765 14.4218 470.104 14.458ZM408.234 14.2266C408.658 14.1879 409.082 14.1521 409.504 14.1152C409.082 14.1521 408.658 14.1879 408.234 14.2266ZM417.585 13.5029C416.976 13.5419 416.365 13.5805 415.752 13.623C416.365 13.5805 416.976 13.5419 417.585 13.5029ZM456.417 13.3311C455.834 13.297 455.247 13.2662 454.658 13.2354C455.247 13.2662 455.834 13.297 456.417 13.3311ZM427.545 13.0117C426.867 13.035 426.187 13.0593 425.503 13.0869C426.187 13.0593 426.867 13.035 427.545 13.0117ZM431.994 12.8896C431.402 12.9019 430.808 12.9141 430.212 12.9297C430.808 12.9141 431.402 12.9019 431.994 12.8896ZM443.48 12.8574C442.855 12.8477 442.227 12.839 441.596 12.833C442.227 12.839 442.855 12.8477 443.48 12.8574Z" fill="#051229"/>
</svg>
