<svg width="112" height="98" viewBox="0 0 112 98" fill="none" xmlns="http://www.w3.org/2000/svg">
<path d="M89.416 77.8986C91.5442 75.0203 95.2472 73.3073 99.3399 73.3073C105.6 73.3073 110.831 77.7442 112 83.6011L112 14.3996C110.831 20.2641 105.592 24.6934 99.3165 24.6934C95.2628 24.6934 91.5053 22.9032 89.2601 19.9015C79.5467 6.87603 64.0022 -0.547232 47.6782 0.031504C21.82 0.949765 0.428772 22.5482 1.04448e-05 48.1669C1.04327e-05 48.4447 1.04202e-05 48.7302 1.0408e-05 49.008C9.84239e-06 61.9486 5.0282 74.1175 14.2115 83.3541C23.5896 92.7914 36.125 98 49.5023 98C65.2028 98 80.1236 90.4842 89.4238 77.8986L89.416 77.8986Z" fill="black"/>
</svg>
