<svg width="98" height="112" viewBox="0 0 98 112" fill="none" xmlns="http://www.w3.org/2000/svg">
<path d="M20.1014 89.416C22.9797 91.5442 24.6927 95.2472 24.6927 99.3399C24.6927 105.6 20.2558 110.831 14.3989 112L83.6004 112C77.7359 110.831 73.3066 105.592 73.3066 99.3165C73.3066 95.2628 75.0968 91.5053 78.0985 89.2601C91.124 79.5467 98.5472 64.0022 97.9685 47.6782C97.0502 21.82 75.4518 0.428771 49.8331 8.33936e-06C49.5553 8.31507e-06 49.2698 8.29011e-06 48.992 8.26583e-06C36.0514 7.13453e-06 23.8825 5.02819 14.6459 14.2115C5.20862 23.5896 -1.30388e-05 36.125 -1.42083e-05 49.5023C-1.55809e-05 65.2028 7.51584 80.1236 20.1014 89.4238L20.1014 89.416Z" fill="black"/>
</svg>
