<svg width="4" height="214" viewBox="0 0 4 214" fill="none" xmlns="http://www.w3.org/2000/svg">
<rect width="4" height="4" rx="2" transform="matrix(4.37114e-08 -1 -1 -4.37114e-08 4 4)" fill="black"/>
<rect width="4" height="4" rx="2" transform="matrix(4.37114e-08 -1 -1 -4.37114e-08 4 10)" fill="black"/>
<rect width="4" height="4" rx="2" transform="matrix(4.37114e-08 -1 -1 -4.37114e-08 4 16)" fill="black"/>
<rect width="4" height="4" rx="2" transform="matrix(4.37114e-08 -1 -1 -4.37114e-08 3.99902 22)" fill="black"/>
<rect width="4" height="4" rx="2" transform="matrix(4.37114e-08 -1 -1 -4.37114e-08 3.99902 28)" fill="black"/>
<rect width="4" height="4" rx="2" transform="matrix(4.37114e-08 -1 -1 -4.37114e-08 3.99902 34)" fill="black"/>
<rect width="4" height="4" rx="2" transform="matrix(4.37114e-08 -1 -1 -4.37114e-08 3.99902 40)" fill="black"/>
<rect width="4" height="4" rx="2" transform="matrix(4.37114e-08 -1 -1 -4.37114e-08 3.99902 46)" fill="black"/>
<rect width="4" height="4" rx="2" transform="matrix(4.37114e-08 -1 -1 -4.37114e-08 3.99902 52)" fill="black"/>
<rect width="4" height="4" rx="2" transform="matrix(4.37114e-08 -1 -1 -4.37114e-08 3.99902 58)" fill="black"/>
<rect width="4" height="4" rx="2" transform="matrix(4.37114e-08 -1 -1 -4.37114e-08 3.99902 64)" fill="black"/>
<rect width="4" height="4" rx="2" transform="matrix(4.37114e-08 -1 -1 -4.37114e-08 3.99902 70)" fill="black"/>
<rect width="4" height="4" rx="2" transform="matrix(4.37114e-08 -1 -1 -4.37114e-08 3.99902 76)" fill="black"/>
<rect width="4" height="4" rx="2" transform="matrix(4.37114e-08 -1 -1 -4.37114e-08 3.99902 82)" fill="black"/>
<rect width="4" height="4" rx="2" transform="matrix(4.37114e-08 -1 -1 -4.37114e-08 3.99902 88)" fill="black"/>
<rect width="4" height="4" rx="2" transform="matrix(4.37114e-08 -1 -1 -4.37114e-08 3.99902 94)" fill="black"/>
<rect width="4" height="4" rx="2" transform="matrix(4.37114e-08 -1 -1 -4.37114e-08 3.99902 100)" fill="black"/>
<rect width="4" height="4" rx="2" transform="matrix(4.37114e-08 -1 -1 -4.37114e-08 3.99902 106)" fill="black"/>
<rect width="4" height="4" rx="2" transform="matrix(4.37114e-08 -1 -1 -4.37114e-08 3.99902 112)" fill="black"/>
<rect width="4" height="4" rx="2" transform="matrix(4.37114e-08 -1 -1 -4.37114e-08 3.99902 118)" fill="black"/>
<rect width="4" height="4" rx="2" transform="matrix(4.37114e-08 -1 -1 -4.37114e-08 3.99902 124)" fill="black"/>
<rect width="4" height="4" rx="2" transform="matrix(4.37114e-08 -1 -1 -4.37114e-08 3.99902 130)" fill="black"/>
<rect width="4" height="4" rx="2" transform="matrix(4.37114e-08 -1 -1 -4.37114e-08 3.99902 136)" fill="black"/>
<rect width="4" height="4" rx="2" transform="matrix(4.37114e-08 -1 -1 -4.37114e-08 3.99902 142)" fill="black"/>
<rect width="4" height="4" rx="2" transform="matrix(4.37114e-08 -1 -1 -4.37114e-08 3.99902 148)" fill="black"/>
<rect width="4" height="4" rx="2" transform="matrix(4.37114e-08 -1 -1 -4.37114e-08 3.99902 154)" fill="black"/>
<rect width="4" height="4" rx="2" transform="matrix(4.37114e-08 -1 -1 -4.37114e-08 3.99902 160)" fill="black"/>
<rect width="4" height="4" rx="2" transform="matrix(4.37114e-08 -1 -1 -4.37114e-08 3.99902 166)" fill="black"/>
<rect width="4" height="4" rx="2" transform="matrix(4.37114e-08 -1 -1 -4.37114e-08 3.99902 172)" fill="black"/>
<rect width="4" height="4" rx="2" transform="matrix(4.37114e-08 -1 -1 -4.37114e-08 3.99902 178)" fill="black"/>
<rect width="4" height="4" rx="2" transform="matrix(4.37114e-08 -1 -1 -4.37114e-08 3.99902 184)" fill="black"/>
<rect width="4" height="4" rx="2" transform="matrix(4.37114e-08 -1 -1 -4.37114e-08 3.99902 190)" fill="black"/>
<rect width="4" height="4" rx="2" transform="matrix(4.37114e-08 -1 -1 -4.37114e-08 3.99902 196)" fill="black"/>
<rect width="4" height="4" rx="2" transform="matrix(4.37114e-08 -1 -1 -4.37114e-08 3.99902 202)" fill="black"/>
<rect width="4" height="4" rx="2" transform="matrix(4.37114e-08 -1 -1 -4.37114e-08 3.99902 208)" fill="black"/>
<rect width="4" height="4" rx="2" transform="matrix(4.37114e-08 -1 -1 -4.37114e-08 3.99902 214)" fill="black"/>
<rect width="4" height="4" rx="2" transform="matrix(4.37114e-08 -1 -1 -4.37114e-08 3.99902 106)" fill="black"/>
<rect width="4" height="4" rx="2" transform="matrix(4.37114e-08 -1 -1 -4.37114e-08 3.99902 112)" fill="black"/>
<rect width="4" height="4" rx="2" transform="matrix(4.37114e-08 -1 -1 -4.37114e-08 3.99902 118)" fill="black"/>
</svg>
