<svg width="129" height="134" viewBox="0 0 129 134" fill="none" xmlns="http://www.w3.org/2000/svg">
<g clip-path="url(#clip0_2812_896)">
<path d="M2.37323 26.2021H0V0H25.9319V2.36836H2.37323V26.2021Z" fill="#051229"/>
<path d="M129 26.2021H126.626V2.36836H102.83V0H129V26.2021Z" fill="#051229"/>
<path d="M25.9319 134H0V107.206H2.37323V131.632H25.9319V134Z" fill="#051229"/>
<path d="M129 134H102.83V131.632H126.626V107.206H129V134Z" fill="#051229"/>
<path d="M15.2096 55.8203H10.7285V60.2922H15.2096V55.8203Z" fill="#051229"/>
<path d="M15.2096 60.2922H10.7285V64.7641H15.2096V60.2922Z" fill="#051229"/>
<path d="M15.2096 64.7639H10.7285V69.2358H15.2096V64.7639Z" fill="#051229"/>
<path d="M15.2096 69.2358H10.7285V73.7077H15.2096V69.2358Z" fill="#051229"/>
<path d="M15.2096 73.7078H10.7285V78.1796H15.2096V73.7078Z" fill="#051229"/>
<path d="M19.691 55.8203H15.21V60.2922H19.691V55.8203Z" fill="#051229"/>
<path d="M19.691 73.7078H15.21V78.1796H19.691V73.7078Z" fill="#051229"/>
<path d="M19.691 78.1794H15.21V82.6513H19.691V78.1794Z" fill="#051229"/>
<path d="M24.1715 46.8765H19.6904V51.3483H24.1715V46.8765Z" fill="#051229"/>
<path d="M24.1715 51.3484H19.6904V55.8202H24.1715V51.3484Z" fill="#051229"/>
<path d="M24.1715 64.7639H19.6904V69.2358H24.1715V64.7639Z" fill="#051229"/>
<path d="M24.1715 78.1794H19.6904V82.6513H24.1715V78.1794Z" fill="#051229"/>
<path d="M24.1715 82.6514H19.6904V87.1232H24.1715V82.6514Z" fill="#051229"/>
<path d="M28.6519 46.8765H24.1709V51.3483H28.6519V46.8765Z" fill="#051229"/>
<path d="M28.6519 51.3484H24.1709V55.8202H28.6519V51.3484Z" fill="#051229"/>
<path d="M28.6519 55.8203H24.1709V60.2922H28.6519V55.8203Z" fill="#051229"/>
<path d="M28.6519 60.2922H24.1709V64.7641H28.6519V60.2922Z" fill="#051229"/>
<path d="M28.6519 73.7078H24.1709V78.1796H28.6519V73.7078Z" fill="#051229"/>
<path d="M33.1334 55.8203H28.6523V60.2922H33.1334V55.8203Z" fill="#051229"/>
<path d="M33.1334 60.2922H28.6523V64.7641H33.1334V60.2922Z" fill="#051229"/>
<path d="M33.1334 64.7639H28.6523V69.2358H33.1334V64.7639Z" fill="#051229"/>
<path d="M33.1334 73.7078H28.6523V78.1796H33.1334V73.7078Z" fill="#051229"/>
<path d="M37.6139 46.8765H33.1328V51.3483H37.6139V46.8765Z" fill="#051229"/>
<path d="M37.6139 51.3484H33.1328V55.8202H37.6139V51.3484Z" fill="#051229"/>
<path d="M37.6139 60.2922H33.1328V64.7641H37.6139V60.2922Z" fill="#051229"/>
<path d="M37.6139 64.7639H33.1328V69.2358H37.6139V64.7639Z" fill="#051229"/>
<path d="M37.6139 82.6514H33.1328V87.1232H37.6139V82.6514Z" fill="#051229"/>
<path d="M42.0953 46.8765H37.6143V51.3483H42.0953V46.8765Z" fill="#051229"/>
<path d="M42.0953 55.8203H37.6143V60.2922H42.0953V55.8203Z" fill="#051229"/>
<path d="M42.0953 69.2358H37.6143V73.7077H42.0953V69.2358Z" fill="#051229"/>
<path d="M42.0953 73.7078H37.6143V78.1796H42.0953V73.7078Z" fill="#051229"/>
<path d="M42.0953 78.1794H37.6143V82.6513H42.0953V78.1794Z" fill="#051229"/>
<path d="M46.5758 51.3484H42.0947V55.8202H46.5758V51.3484Z" fill="#051229"/>
<path d="M46.5758 64.7639H42.0947V69.2358H46.5758V64.7639Z" fill="#051229"/>
<path d="M46.5758 73.7078H42.0947V78.1796H46.5758V73.7078Z" fill="#051229"/>
<path d="M46.5758 78.1794H42.0947V82.6513H46.5758V78.1794Z" fill="#051229"/>
<path d="M51.0572 11.1025H46.5762V15.5744H51.0572V11.1025Z" fill="#051229"/>
<path d="M51.0572 15.5745H46.5762V20.0463H51.0572V15.5745Z" fill="#051229"/>
<path d="M51.0572 24.5181H46.5762V28.9899H51.0572V24.5181Z" fill="#051229"/>
<path d="M51.0572 42.4055H46.5762V46.8774H51.0572V42.4055Z" fill="#051229"/>
<path d="M51.0572 46.8765H46.5762V51.3483H51.0572V46.8765Z" fill="#051229"/>
<path d="M51.0572 55.8203H46.5762V60.2922H51.0572V55.8203Z" fill="#051229"/>
<path d="M51.0572 60.2922H46.5762V64.7641H51.0572V60.2922Z" fill="#051229"/>
<path d="M51.0572 64.7639H46.5762V69.2358H51.0572V64.7639Z" fill="#051229"/>
<path d="M51.0572 82.6514H46.5762V87.1232H51.0572V82.6514Z" fill="#051229"/>
<path d="M51.0572 96.0669H46.5762V100.539H51.0572V96.0669Z" fill="#051229"/>
<path d="M51.0572 105.011H46.5762V109.483H51.0572V105.011Z" fill="#051229"/>
<path d="M51.0572 109.482H46.5762V113.954H51.0572V109.482Z" fill="#051229"/>
<path d="M51.0572 113.954H46.5762V118.426H51.0572V113.954Z" fill="#051229"/>
<path d="M51.0572 118.426H46.5762V122.898H51.0572V118.426Z" fill="#051229"/>
<path d="M55.5387 15.5745H51.0576V20.0463H55.5387V15.5745Z" fill="#051229"/>
<path d="M55.5387 20.0461H51.0576V24.518H55.5387V20.0461Z" fill="#051229"/>
<path d="M55.5387 24.5181H51.0576V28.9899H55.5387V24.5181Z" fill="#051229"/>
<path d="M55.5387 28.99H51.0576V33.4618H55.5387V28.99Z" fill="#051229"/>
<path d="M55.5387 37.9336H51.0576V42.4054H55.5387V37.9336Z" fill="#051229"/>
<path d="M55.5387 51.3484H51.0576V55.8202H55.5387V51.3484Z" fill="#051229"/>
<path d="M55.5387 55.8203H51.0576V60.2922H55.5387V55.8203Z" fill="#051229"/>
<path d="M55.5387 64.7639H51.0576V69.2358H55.5387V64.7639Z" fill="#051229"/>
<path d="M55.5387 69.2358H51.0576V73.7077H55.5387V69.2358Z" fill="#051229"/>
<path d="M55.5387 73.7078H51.0576V78.1796H55.5387V73.7078Z" fill="#051229"/>
<path d="M55.5387 78.1794H51.0576V82.6513H55.5387V78.1794Z" fill="#051229"/>
<path d="M55.5387 82.6514H51.0576V87.1232H55.5387V82.6514Z" fill="#051229"/>
<path d="M55.5387 105.011H51.0576V109.483H55.5387V105.011Z" fill="#051229"/>
<path d="M55.5387 109.482H51.0576V113.954H55.5387V109.482Z" fill="#051229"/>
<path d="M55.5387 113.954H51.0576V118.426H55.5387V113.954Z" fill="#051229"/>
<path d="M60.0191 11.1025H55.5381V15.5744H60.0191V11.1025Z" fill="#051229"/>
<path d="M60.0191 15.5745H55.5381V20.0463H60.0191V15.5745Z" fill="#051229"/>
<path d="M60.0191 28.99H55.5381V33.4618H60.0191V28.99Z" fill="#051229"/>
<path d="M60.0191 33.4619H55.5381V37.9338H60.0191V33.4619Z" fill="#051229"/>
<path d="M60.0191 60.2922H55.5381V64.7641H60.0191V60.2922Z" fill="#051229"/>
<path d="M60.0191 69.2358H55.5381V73.7077H60.0191V69.2358Z" fill="#051229"/>
<path d="M60.0191 73.7078H55.5381V78.1796H60.0191V73.7078Z" fill="#051229"/>
<path d="M60.0191 78.1794H55.5381V82.6513H60.0191V78.1794Z" fill="#051229"/>
<path d="M60.0191 82.6514H55.5381V87.1232H60.0191V82.6514Z" fill="#051229"/>
<path d="M60.0191 96.0669H55.5381V100.539H60.0191V96.0669Z" fill="#051229"/>
<path d="M60.0191 109.482H55.5381V113.954H60.0191V109.482Z" fill="#051229"/>
<path d="M64.5006 15.5745H60.0195V20.0463H64.5006V15.5745Z" fill="#051229"/>
<path d="M64.5006 37.9336H60.0195V42.4054H64.5006V37.9336Z" fill="#051229"/>
<path d="M64.5006 42.4055H60.0195V46.8774H64.5006V42.4055Z" fill="#051229"/>
<path d="M64.5006 46.8765H60.0195V51.3483H64.5006V46.8765Z" fill="#051229"/>
<path d="M64.5006 51.3484H60.0195V55.8202H64.5006V51.3484Z" fill="#051229"/>
<path d="M64.5006 64.7639H60.0195V69.2358H64.5006V64.7639Z" fill="#051229"/>
<path d="M64.5006 69.2358H60.0195V73.7077H64.5006V69.2358Z" fill="#051229"/>
<path d="M64.5006 73.7078H60.0195V78.1796H64.5006V73.7078Z" fill="#051229"/>
<path d="M64.5006 78.1794H60.0195V82.6513H64.5006V78.1794Z" fill="#051229"/>
<path d="M64.5006 82.6514H60.0195V87.1232H64.5006V82.6514Z" fill="#051229"/>
<path d="M64.5006 87.1233H60.0195V91.5951H64.5006V87.1233Z" fill="#051229"/>
<path d="M64.5006 91.5952H60.0195V96.0671H64.5006V91.5952Z" fill="#051229"/>
<path d="M64.5006 105.011H60.0195V109.483H64.5006V105.011Z" fill="#051229"/>
<path d="M64.5006 109.482H60.0195V113.954H64.5006V109.482Z" fill="#051229"/>
<path d="M64.5006 113.954H60.0195V118.426H64.5006V113.954Z" fill="#051229"/>
<path d="M64.5006 118.426H60.0195V122.898H64.5006V118.426Z" fill="#051229"/>
<path d="M68.9811 11.1025H64.5V15.5744H68.9811V11.1025Z" fill="#051229"/>
<path d="M68.9811 15.5745H64.5V20.0463H68.9811V15.5745Z" fill="#051229"/>
<path d="M68.9811 20.0461H64.5V24.518H68.9811V20.0461Z" fill="#051229"/>
<path d="M68.9811 37.9336H64.5V42.4054H68.9811V37.9336Z" fill="#051229"/>
<path d="M68.9811 42.4055H64.5V46.8774H68.9811V42.4055Z" fill="#051229"/>
<path d="M68.9811 51.3484H64.5V55.8202H68.9811V51.3484Z" fill="#051229"/>
<path d="M68.9811 69.2358H64.5V73.7077H68.9811V69.2358Z" fill="#051229"/>
<path d="M68.9811 73.7078H64.5V78.1796H68.9811V73.7078Z" fill="#051229"/>
<path d="M68.9811 91.5952H64.5V96.0671H68.9811V91.5952Z" fill="#051229"/>
<path d="M68.9811 96.0669H64.5V100.539H68.9811V96.0669Z" fill="#051229"/>
<path d="M68.9811 105.011H64.5V109.483H68.9811V105.011Z" fill="#051229"/>
<path d="M68.9811 118.426H64.5V122.898H68.9811V118.426Z" fill="#051229"/>
<path d="M73.4625 11.1025H68.9814V15.5744H73.4625V11.1025Z" fill="#051229"/>
<path d="M73.4625 28.99H68.9814V33.4618H73.4625V28.99Z" fill="#051229"/>
<path d="M73.4625 33.4619H68.9814V37.9338H73.4625V33.4619Z" fill="#051229"/>
<path d="M73.4625 37.9336H68.9814V42.4054H73.4625V37.9336Z" fill="#051229"/>
<path d="M73.4625 42.4055H68.9814V46.8774H73.4625V42.4055Z" fill="#051229"/>
<path d="M73.4625 46.8765H68.9814V51.3483H73.4625V46.8765Z" fill="#051229"/>
<path d="M73.4625 51.3484H68.9814V55.8202H73.4625V51.3484Z" fill="#051229"/>
<path d="M73.4625 60.2922H68.9814V64.7641H73.4625V60.2922Z" fill="#051229"/>
<path d="M73.4625 64.7639H68.9814V69.2358H73.4625V64.7639Z" fill="#051229"/>
<path d="M73.4625 87.1233H68.9814V91.5951H73.4625V87.1233Z" fill="#051229"/>
<path d="M73.4625 96.0669H68.9814V100.539H73.4625V96.0669Z" fill="#051229"/>
<path d="M73.4625 113.954H68.9814V118.426H73.4625V113.954Z" fill="#051229"/>
<path d="M77.9439 24.5181H73.4629V28.9899H77.9439V24.5181Z" fill="#051229"/>
<path d="M77.9439 28.99H73.4629V33.4618H77.9439V28.99Z" fill="#051229"/>
<path d="M77.9439 37.9336H73.4629V42.4054H77.9439V37.9336Z" fill="#051229"/>
<path d="M77.9439 46.8765H73.4629V51.3483H77.9439V46.8765Z" fill="#051229"/>
<path d="M77.9439 51.3484H73.4629V55.8202H77.9439V51.3484Z" fill="#051229"/>
<path d="M77.9439 55.8203H73.4629V60.2922H77.9439V55.8203Z" fill="#051229"/>
<path d="M77.9439 60.2922H73.4629V64.7641H77.9439V60.2922Z" fill="#051229"/>
<path d="M77.9439 69.2358H73.4629V73.7077H77.9439V69.2358Z" fill="#051229"/>
<path d="M77.9439 73.7078H73.4629V78.1796H77.9439V73.7078Z" fill="#051229"/>
<path d="M77.9439 87.1233H73.4629V91.5951H77.9439V87.1233Z" fill="#051229"/>
<path d="M77.9439 105.011H73.4629V109.483H77.9439V105.011Z" fill="#051229"/>
<path d="M77.9439 113.954H73.4629V118.426H77.9439V113.954Z" fill="#051229"/>
<path d="M77.9439 118.426H73.4629V122.898H77.9439V118.426Z" fill="#051229"/>
<path d="M82.4244 11.1025H77.9434V15.5744H82.4244V11.1025Z" fill="#051229"/>
<path d="M82.4244 28.99H77.9434V33.4618H82.4244V28.99Z" fill="#051229"/>
<path d="M82.4244 37.9336H77.9434V42.4054H82.4244V37.9336Z" fill="#051229"/>
<path d="M82.4244 42.4055H77.9434V46.8774H82.4244V42.4055Z" fill="#051229"/>
<path d="M82.4244 46.8765H77.9434V51.3483H82.4244V46.8765Z" fill="#051229"/>
<path d="M82.4244 51.3484H77.9434V55.8202H82.4244V51.3484Z" fill="#051229"/>
<path d="M82.4244 60.2922H77.9434V64.7641H82.4244V60.2922Z" fill="#051229"/>
<path d="M82.4244 100.539H77.9434V105.011H82.4244V100.539Z" fill="#051229"/>
<path d="M82.4244 105.011H77.9434V109.483H82.4244V105.011Z" fill="#051229"/>
<path d="M86.9059 55.8203H82.4248V60.2922H86.9059V55.8203Z" fill="#051229"/>
<path d="M86.9059 73.7078H82.4248V78.1796H86.9059V73.7078Z" fill="#051229"/>
<path d="M86.9059 78.1794H82.4248V82.6513H86.9059V78.1794Z" fill="#051229"/>
<path d="M86.9059 87.1233H82.4248V91.5951H86.9059V87.1233Z" fill="#051229"/>
<path d="M86.9059 100.539H82.4248V105.011H86.9059V100.539Z" fill="#051229"/>
<path d="M86.9059 105.011H82.4248V109.483H86.9059V105.011Z" fill="#051229"/>
<path d="M86.9059 109.482H82.4248V113.954H86.9059V109.482Z" fill="#051229"/>
<path d="M91.3863 55.8203H86.9053V60.2922H91.3863V55.8203Z" fill="#051229"/>
<path d="M91.3863 64.7639H86.9053V69.2358H91.3863V64.7639Z" fill="#051229"/>
<path d="M91.3863 73.7078H86.9053V78.1796H91.3863V73.7078Z" fill="#051229"/>
<path d="M91.3863 78.1794H86.9053V82.6513H91.3863V78.1794Z" fill="#051229"/>
<path d="M91.3863 96.0669H86.9053V100.539H91.3863V96.0669Z" fill="#051229"/>
<path d="M91.3863 100.539H86.9053V105.011H91.3863V100.539Z" fill="#051229"/>
<path d="M91.3863 109.482H86.9053V113.954H91.3863V109.482Z" fill="#051229"/>
<path d="M95.8678 46.8765H91.3867V51.3483H95.8678V46.8765Z" fill="#051229"/>
<path d="M95.8678 51.3484H91.3867V55.8202H95.8678V51.3484Z" fill="#051229"/>
<path d="M95.8678 55.8203H91.3867V60.2922H95.8678V55.8203Z" fill="#051229"/>
<path d="M95.8678 60.2922H91.3867V64.7641H95.8678V60.2922Z" fill="#051229"/>
<path d="M95.8678 73.7078H91.3867V78.1796H95.8678V73.7078Z" fill="#051229"/>
<path d="M95.8678 87.1233H91.3867V91.5951H95.8678V87.1233Z" fill="#051229"/>
<path d="M95.8678 118.426H91.3867V122.898H95.8678V118.426Z" fill="#051229"/>
<path d="M100.349 55.8203H95.8682V60.2922H100.349V55.8203Z" fill="#051229"/>
<path d="M100.349 60.2922H95.8682V64.7641H100.349V60.2922Z" fill="#051229"/>
<path d="M100.349 73.7078H95.8682V78.1796H100.349V73.7078Z" fill="#051229"/>
<path d="M100.349 78.1794H95.8682V82.6513H100.349V78.1794Z" fill="#051229"/>
<path d="M100.349 82.6514H95.8682V87.1232H100.349V82.6514Z" fill="#051229"/>
<path d="M100.349 91.5952H95.8682V96.0671H100.349V91.5952Z" fill="#051229"/>
<path d="M100.349 96.0669H95.8682V100.539H100.349V96.0669Z" fill="#051229"/>
<path d="M100.349 100.539H95.8682V105.011H100.349V100.539Z" fill="#051229"/>
<path d="M100.349 105.011H95.8682V109.483H100.349V105.011Z" fill="#051229"/>
<path d="M100.349 109.482H95.8682V113.954H100.349V109.482Z" fill="#051229"/>
<path d="M100.349 118.426H95.8682V122.898H100.349V118.426Z" fill="#051229"/>
<path d="M104.83 55.8203H100.349V60.2922H104.83V55.8203Z" fill="#051229"/>
<path d="M104.83 69.2358H100.349V73.7077H104.83V69.2358Z" fill="#051229"/>
<path d="M104.83 73.7078H100.349V78.1796H104.83V73.7078Z" fill="#051229"/>
<path d="M104.83 82.6514H100.349V87.1232H104.83V82.6514Z" fill="#051229"/>
<path d="M104.83 87.1233H100.349V91.5951H104.83V87.1233Z" fill="#051229"/>
<path d="M104.83 96.0669H100.349V100.539H104.83V96.0669Z" fill="#051229"/>
<path d="M104.83 118.426H100.349V122.898H104.83V118.426Z" fill="#051229"/>
<path d="M109.311 55.8203H104.83V60.2922H109.311V55.8203Z" fill="#051229"/>
<path d="M109.311 64.7639H104.83V69.2358H109.311V64.7639Z" fill="#051229"/>
<path d="M109.311 73.7078H104.83V78.1796H109.311V73.7078Z" fill="#051229"/>
<path d="M109.311 78.1794H104.83V82.6513H109.311V78.1794Z" fill="#051229"/>
<path d="M109.311 82.6514H104.83V87.1232H109.311V82.6514Z" fill="#051229"/>
<path d="M109.311 96.0669H104.83V100.539H109.311V96.0669Z" fill="#051229"/>
<path d="M109.311 105.011H104.83V109.483H109.311V105.011Z" fill="#051229"/>
<path d="M109.311 113.954H104.83V118.426H109.311V113.954Z" fill="#051229"/>
<path d="M109.311 118.426H104.83V122.898H109.311V118.426Z" fill="#051229"/>
<path d="M113.792 51.3484H109.311V55.8202H113.792V51.3484Z" fill="#051229"/>
<path d="M113.792 55.8203H109.311V60.2922H113.792V55.8203Z" fill="#051229"/>
<path d="M113.792 60.2922H109.311V64.7641H113.792V60.2922Z" fill="#051229"/>
<path d="M113.792 73.7078H109.311V78.1796H113.792V73.7078Z" fill="#051229"/>
<path d="M113.792 78.1794H109.311V82.6513H113.792V78.1794Z" fill="#051229"/>
<path d="M113.792 87.1233H109.311V91.5951H113.792V87.1233Z" fill="#051229"/>
<path d="M113.792 91.5952H109.311V96.0671H113.792V91.5952Z" fill="#051229"/>
<path d="M113.792 100.539H109.311V105.011H113.792V100.539Z" fill="#051229"/>
<path d="M113.792 109.482H109.311V113.954H113.792V109.482Z" fill="#051229"/>
<path d="M113.792 118.426H109.311V122.898H113.792V118.426Z" fill="#051229"/>
<path d="M118.272 60.2922H113.791V64.7641H118.272V60.2922Z" fill="#051229"/>
<path d="M118.272 64.7639H113.791V69.2358H118.272V64.7639Z" fill="#051229"/>
<path d="M118.272 73.7078H113.791V78.1796H118.272V73.7078Z" fill="#051229"/>
<path d="M118.272 78.1794H113.791V82.6513H118.272V78.1794Z" fill="#051229"/>
<path d="M118.272 82.6514H113.791V87.1232H118.272V82.6514Z" fill="#051229"/>
<path d="M118.272 91.5952H113.791V96.0671H118.272V91.5952Z" fill="#051229"/>
<path d="M118.272 105.011H113.791V109.483H118.272V105.011Z" fill="#051229"/>
<path d="M118.272 113.954H113.791V118.426H118.272V113.954Z" fill="#051229"/>
<path d="M10.7285 11.1025V42.4055H42.0951V11.1025H10.7285ZM39.8546 40.1696H12.969V13.3385H39.8554V40.1696H39.8546Z" fill="#051229"/>
<path d="M12.9688 13.3384V40.1695H39.8551V13.3384H12.9688ZM37.934 38.2523H14.8891V15.2548H37.934V38.2523Z" fill="#051229"/>
<path d="M33.1336 20.0461H19.6904V33.4617H33.1336V20.0461Z" fill="#051229"/>
<path d="M10.7285 91.5952V122.898H42.0951V91.5952H10.7285ZM39.8546 120.662H12.969V93.8311H39.8554V120.662H39.8546Z" fill="#051229"/>
<path d="M12.9688 93.8311V120.662H39.8551V93.8311H12.9688ZM37.934 118.746H14.8891V95.7482H37.934V118.746Z" fill="#051229"/>
<path d="M33.1336 100.539H19.6904V113.954H33.1336V100.539Z" fill="#051229"/>
<path d="M86.9053 11.1025V42.4055H118.273V11.1025H86.9053ZM116.031 40.1696H89.145V13.3385H116.031V40.1696Z" fill="#051229"/>
<path d="M89.1455 13.3384V40.1695H116.032V13.3384H89.1455ZM114.111 38.2523H91.0658V15.2548H114.111V38.2523Z" fill="#051229"/>
<path d="M109.31 20.0461H95.8672V33.4617H109.31V20.0461Z" fill="#051229"/>
</g>
<defs>
<clipPath id="clip0_2812_896">
<rect width="129" height="134" fill="white"/>
</clipPath>
</defs>
</svg>
