<svg width="70" height="70" viewBox="0 0 70 70" fill="none" xmlns="http://www.w3.org/2000/svg">
<path d="M41.8593 25.8852C45.6505 22.094 45.6505 15.9473 41.8593 12.1561C38.0681 8.36488 31.9214 8.36488 28.1302 12.1561C24.339 15.9473 24.339 22.094 28.1302 25.8852C31.9214 29.6764 38.0681 29.6764 41.8593 25.8852Z" fill="#0075FF"/>
<path d="M28.0914 47.4055C29.3524 44.4243 30.996 41.6573 32.9946 39.1391C27.0264 32.6827 18.4855 28.6397 9 28.6397V61.3086H25.2835C25.2835 56.4883 26.2282 51.8106 28.0914 47.4055Z" fill="#0075FF"/>
<path d="M61.0009 61.3086V28.6397C42.9584 28.6397 28.332 43.2661 28.332 61.3086H61.0009Z" fill="#0075FF"/>
</svg>
