<svg width="74" height="64" viewBox="0 0 74 64" fill="none" xmlns="http://www.w3.org/2000/svg">
<path fill-rule="evenodd" clip-rule="evenodd" d="M11.3603 34.1123C13.5432 34.1123 15.319 32.3364 15.319 30.1541C15.319 29.519 15.1681 28.9194 14.9013 28.3871L25.6632 20.6158C26.3792 21.328 27.3658 21.7688 28.4534 21.7688C30.0383 21.7688 31.408 20.8325 32.04 19.4845L41.6131 22.1759C41.597 22.3205 41.588 22.4675 41.588 22.616C41.588 24.7991 43.3638 26.5751 45.5467 26.5751C47.7297 26.5751 49.5055 24.7991 49.5055 22.616C49.5055 21.7172 49.2037 20.8881 48.6975 20.2231L60.419 7.85471C61.0527 8.28569 61.8173 8.53842 62.6402 8.53842C64.823 8.53842 66.5988 6.76244 66.5988 4.58016C66.5988 2.39707 64.823 0.621094 62.6402 0.621094C60.457 0.621094 58.6812 2.39707 58.6812 4.58016C58.6812 5.47831 58.9829 6.30824 59.4895 6.97321L47.7679 19.3416C47.1342 18.9105 46.3696 18.6579 45.5467 18.6579C43.9618 18.6579 42.5922 19.5943 41.9605 20.943L32.3873 18.2509C32.4034 18.1063 32.4122 17.9601 32.4122 17.81C32.4122 15.6277 30.6364 13.8518 28.4534 13.8518C26.2705 13.8518 24.4947 15.6277 24.4947 17.81C24.4947 18.445 24.6455 19.0447 24.9124 19.577L14.1508 27.3491C13.4344 26.6361 12.4479 26.1953 11.3603 26.1953C9.17734 26.1953 7.40152 27.9713 7.40152 30.1544C7.40152 32.3362 9.17734 34.1123 11.3603 34.1123ZM73.0353 62.0982C73.3891 62.0982 73.6758 62.3846 73.6758 62.7383C73.6758 63.0923 73.3891 63.3793 73.0353 63.3793H0.965004C0.611219 63.3793 0.324219 63.0921 0.324219 62.7383C0.324219 62.3846 0.611219 62.0982 0.965004 62.0982H5.65982V40.636C5.65982 40.2822 5.94682 39.995 6.30061 39.995H16.4196C16.7734 39.995 17.0604 40.2822 17.0604 40.636V62.0982H22.7535V28.6148C22.7535 28.261 23.0401 27.9747 23.3939 27.9747H33.5129C33.8667 27.9747 34.1537 28.261 34.1537 28.6148V62.0982H39.8468V34.1692C39.8468 33.8154 40.1335 33.529 40.4872 33.529H50.6062C50.96 33.529 51.247 33.8154 51.247 34.1692V62.0982H56.9399V14.9556C56.9399 14.6018 57.2269 14.3153 57.5806 14.3153H67.6994C68.0535 14.3153 68.3402 14.6016 68.3402 14.9556V62.0982H73.0353Z" fill="#F7F7F7"/>
</svg>
