<svg width="53" height="53" viewBox="0 0 53 53" fill="none" xmlns="http://www.w3.org/2000/svg">
<path opacity="0.14" fill-rule="evenodd" clip-rule="evenodd" d="M25.4689 1.22652C25.5541 0.940245 25.8179 0.742676 26.1172 0.742676C26.4165 0.742676 26.6803 0.940245 26.7655 1.22652C26.7655 1.22652 27.952 5.20375 29.2238 9.46964C31.2502 16.266 36.5666 21.5824 43.363 23.6088C47.6288 24.8806 51.6061 26.0671 51.6061 26.0671C51.8924 26.1523 52.0899 26.4161 52.0899 26.7154C52.0899 27.0147 51.8924 27.2785 51.6061 27.3637C51.6061 27.3637 47.6288 28.5502 43.363 29.8219C36.5666 31.8484 31.2502 37.1648 29.2238 43.9611C27.952 48.227 26.7655 52.2042 26.7655 52.2042C26.6803 52.4905 26.4165 52.6881 26.1172 52.6881C25.8179 52.6881 25.5541 52.4905 25.4689 52.2042C25.4689 52.2042 24.2824 48.227 23.0107 43.9611C20.9842 37.1648 15.6678 31.8484 8.87148 29.8219C4.60561 28.5502 0.628373 27.3637 0.628373 27.3637C0.342083 27.2785 0.144531 27.0147 0.144531 26.7154C0.144531 26.4161 0.342083 26.1523 0.628373 26.0671C0.628373 26.0671 4.60561 24.8806 8.87148 23.6088C15.6678 21.5824 20.9842 16.266 23.0107 9.46964C24.2824 5.20375 25.4689 1.22652 25.4689 1.22652Z" fill="#F7F7F7"/>
</svg>
