<svg width="12" height="12" viewBox="0 0 12 12" fill="none" xmlns="http://www.w3.org/2000/svg">
<path d="M6.11001 7.61677C6.08589 7.56886 6.04971 7.54491 6.00148 7.54491C5.97736 7.54491 5.95325 7.56886 5.92913 7.61677L3.21598 11.8922C3.16775 11.9641 3.0954 12 2.99893 12C2.90246 12 2.81805 11.976 2.7457 11.9281L1.47957 11.0659C1.31075 10.9461 1.29869 10.7904 1.44339 10.5988L4.46839 6.85222C4.5014 6.81135 4.53318 6.75672 4.53603 6.70426V6.70426C4.53978 6.63529 4.51833 6.56399 4.4569 6.53241C4.43499 6.52115 4.40722 6.51134 4.37359 6.50299L0.177259 5.31736C0.00844087 5.26946 -0.0397928 5.12575 0.0325578 4.88623L0.502837 3.55689C0.599304 3.36527 0.731947 3.31737 0.900765 3.41317L4.88005 4.99401C4.9524 5.01796 5.01269 5.01796 5.06092 4.99401C5.13327 4.97006 5.16945 4.91018 5.16945 4.81437L4.84387 0.287426V0.287426C4.84387 0.155013 4.95163 0.0316843 5.08181 0.00745692C5.10852 0.00248564 5.13773 0 5.16945 0H6.86969C6.88861 0 6.90661 0.00138325 6.92369 0.00414974C7.05439 0.0253316 7.15909 0.155013 7.15909 0.287426V0.287426L6.86969 4.81437C6.86969 5.00599 6.94204 5.06587 7.08674 4.99401L11.1745 3.26946C11.3916 3.17365 11.5242 3.23353 11.5725 3.4491L11.9704 4.70659C12.0428 4.94611 11.9825 5.08982 11.7895 5.13772L7.66554 6.50299C7.64947 6.51097 7.63474 6.52028 7.62135 6.53092C7.56813 6.57319 7.55378 6.63649 7.56843 6.70286V6.70286C7.57993 6.7549 7.61059 6.81149 7.64453 6.8526L10.4699 10.2746C10.5295 10.3468 10.5905 10.4273 10.6038 10.5199V10.5199C10.6186 10.622 10.6047 10.7297 10.5491 10.8166C10.519 10.8638 10.4742 10.9109 10.4149 10.9581L9.25726 11.7485C9.18635 11.7908 9.11961 11.8206 9.05705 11.838C8.97572 11.8606 8.87636 11.8477 8.80112 11.8094V11.8094C8.73116 11.7738 8.69349 11.715 8.65163 11.6486L6.11001 7.61677Z" fill="#0075FF"/>
</svg>
