<svg width="28" height="46" viewBox="0 0 28 46" fill="none" xmlns="http://www.w3.org/2000/svg">
<path d="M14.7329 44.6066L14.7285 44.6487C14.6684 45.109 14.2789 45.4595 13.8102 45.4666C13.3309 45.4737 12.924 45.1193 12.8637 44.6453C12.8641 44.6477 12.8644 44.6497 12.8648 44.6515C12.8652 44.6537 12.8655 44.6556 12.8658 44.6571C12.8661 44.6585 12.8663 44.6597 12.8665 44.6606C12.8666 44.6611 12.8667 44.6615 12.8668 44.6619C12.8664 44.6599 12.8655 44.6558 12.8646 44.6506C12.8639 44.6468 12.8632 44.6422 12.8625 44.6371C12.8629 44.6398 12.8633 44.6426 12.8637 44.6453C12.8636 44.6447 12.8635 44.644 12.8634 44.6434C12.8631 44.6418 12.8629 44.6399 12.8626 44.638C12.8625 44.6369 12.8623 44.6357 12.8622 44.6344C12.862 44.6335 12.8619 44.6327 12.8618 44.6317V44.6314L12.8617 44.631C12.8617 44.6308 12.8617 44.6305 12.8616 44.6301C12.8615 44.6294 12.8614 44.6284 12.8613 44.6272C12.8609 44.624 12.8604 44.6187 12.8595 44.6112C12.8578 44.5969 12.8552 44.5749 12.8517 44.5457C12.8447 44.4874 12.8341 44.4007 12.8198 44.2889C12.7913 44.065 12.7481 43.7405 12.6897 43.3418C12.5728 42.5436 12.3958 41.452 12.1559 40.2758C11.9154 39.0971 11.6146 37.8479 11.2522 36.7299C10.884 35.5944 10.4752 34.6684 10.0478 34.0844C8.88474 32.4953 6.61429 31.1454 4.49397 30.1704C3.45665 29.6934 2.49697 29.3246 1.79658 29.0751C1.4469 28.9506 1.16317 28.8561 0.968351 28.7934C0.871082 28.7621 0.79585 28.7386 0.745762 28.7232C0.733747 28.7195 0.723225 28.7163 0.714237 28.7136H0.70077L0.655471 28.6956C0.168206 28.5407 -0.107082 28.0235 0.0392758 27.5315L0.0465449 27.5084C0.175824 27.1111 0.546928 26.8565 0.947233 26.8595L0.954578 26.8462L1.05466 26.8663C1.10039 26.8719 1.14625 26.881 1.19194 26.8937L1.19393 26.8941L1.2041 26.8971C1.20492 26.8974 1.20574 26.8976 1.20655 26.8978L1.30258 26.9261C1.34413 26.9383 1.39938 26.9544 1.46732 26.974C1.63628 27.0225 1.88323 27.0924 2.1924 27.1765C2.81123 27.3448 3.67753 27.5699 4.6656 27.7967C6.66024 28.2547 9.08294 28.7034 10.9674 28.7325C12.7394 28.7598 13.6919 28.8274 15.1791 28.5235C15.5421 26.9275 15.9517 25.427 16.4107 24.1584C16.5167 23.8653 16.6306 23.5644 16.7509 23.2578L9.59578 27.0083C9.20143 27.215 8.71827 27.1162 8.43623 26.7766L8.40953 26.743C8.13216 26.3766 8.16038 25.8633 8.47625 25.5294L11.7228 20.5076C12.3496 19.8004 13.1724 20.3097 13.1724 21.0149C13.4032 21.2334 10.7074 24.5056 10.665 24.798L17.7304 20.6213C17.7311 20.6209 17.7318 20.6205 17.7324 20.6201C17.7553 20.6059 17.7869 20.5866 17.8264 20.5631C17.854 20.5466 17.8857 20.528 17.921 20.5076C18.5194 19.1859 19.158 17.8713 19.7381 16.7151C20.3044 15.5865 20.8186 14.602 21.1912 13.8995C21.2413 13.805 21.2891 13.7157 21.3339 13.6317C21.3143 13.6322 21.2947 13.6327 21.2751 13.633L21.1832 13.6336C17.4184 13.6336 14.3664 10.5816 14.3664 6.81679C14.3664 3.05199 17.4184 1.27509e-05 21.1832 0C24.948 1.35458e-05 28 3.05199 28 6.81679C28 9.70068 26.2092 12.1654 23.6801 13.1615C23.6504 13.2308 23.6231 13.2934 23.5986 13.3486L23.6048 13.3516L23.4718 13.626L23.4713 13.6271C23.4709 13.6279 23.4702 13.6295 23.4692 13.6314L23.4685 13.633C23.4679 13.6342 23.4674 13.6352 23.467 13.636L23.4663 13.6376L23.4659 13.6383L23.4624 13.6458L23.4617 13.6467L23.4608 13.6488L23.4575 13.6555L23.4539 13.6621L23.4244 13.7163L23.4241 13.7165C23.4188 13.7263 23.4125 13.7378 23.4053 13.751C23.3784 13.8003 23.3387 13.8733 23.2874 13.968C23.1849 14.1576 23.0363 14.4342 22.8525 14.7806C22.4849 15.4737 21.9774 16.4453 21.4188 17.5585C21.1054 18.1832 20.7769 18.8505 20.4485 19.5367C20.5393 19.5224 20.631 19.5108 20.723 19.5026C21.243 19.4557 21.8658 19.5055 22.4194 19.8544C24.2804 21.0273 24.4257 23.0721 23.935 24.8006C23.7596 25.4185 23.373 25.9675 22.9752 26.4135C22.5682 26.8699 22.0911 27.2824 21.6507 27.6233C21.2075 27.9663 20.7831 28.2507 20.4707 28.4491C20.3718 28.5118 20.2835 28.5663 20.2086 28.6117L20.2126 28.6188L20.1417 28.658L20.1457 28.6683L19.9189 28.7817L19.9129 28.785L19.9054 28.7887L19.8316 28.8246L19.6584 28.9112L19.6574 28.9095L19.6038 28.9356L19.6014 28.9305C19.5685 28.9455 19.5333 28.9619 19.4956 28.9789C19.256 29.0876 18.9202 29.2362 18.5348 29.3962C18.0156 29.6118 17.3855 29.8566 16.7705 30.0517C16.2882 32.3629 15.8921 34.8455 15.5809 37.1072C15.2947 39.1875 15.0825 41.0636 14.942 42.4195C14.8717 43.0973 14.8195 43.6446 14.7848 44.0219C14.7675 44.2106 14.7544 44.3568 14.7459 44.4553C14.7416 44.5045 14.7384 44.5419 14.7363 44.5669L14.7361 44.5689C14.7354 44.5781 14.7348 44.5852 14.7343 44.591L14.7332 44.6037C14.7331 44.605 14.7331 44.6059 14.733 44.6064V44.6067L14.7329 44.6067V44.6066ZM8.86481 30.4633C9.90843 31.1857 10.8698 32.0234 11.5654 32.9738C12.1724 33.8032 12.6547 34.9584 13.041 36.1499C13.2338 36.7446 13.4082 37.367 13.5655 37.9908C13.6138 37.6192 13.6647 37.2386 13.718 36.8509C13.9939 34.8459 14.3399 32.6359 14.7599 30.5047C13.4303 30.6955 12.3723 30.635 10.9384 30.6128C10.2832 30.6027 9.58122 30.5476 8.86481 30.4633ZM0.639403 28.6891C0.63982 28.6893 0.640342 28.6895 0.640933 28.6897C0.639635 28.6892 0.638638 28.6887 0.638102 28.6885L0.637872 28.6884C0.638166 28.6885 0.638711 28.6888 0.639403 28.6891ZM21.4167 21.4453C21.3421 21.3982 21.186 21.3488 20.8917 21.3753C20.6027 21.4013 20.2667 21.4936 19.924 21.6247C19.7278 21.6998 19.5409 21.7834 19.3739 21.8644C18.9223 22.8852 18.5084 23.8874 18.1789 24.798C17.8514 25.7031 17.5467 26.7489 17.2648 27.8801C17.4532 27.8068 17.6378 27.7324 17.8137 27.6594C18.1764 27.5088 18.4933 27.3686 18.7191 27.2662C18.8319 27.215 18.9216 27.1735 18.9826 27.145C19.0086 27.1329 19.0292 27.1232 19.0442 27.1161C19.0444 27.116 19.0446 27.1159 19.0448 27.1158C19.0451 27.1156 19.0453 27.1155 19.0453 27.1155C19.0645 27.1044 19.0943 27.0872 19.1332 27.0642C19.2108 27.0181 19.3244 26.9494 19.463 26.8615C19.7415 26.6847 20.1152 26.4339 20.4998 26.1362C20.8873 25.8363 21.2681 25.5024 21.5718 25.1619C21.8848 24.811 22.0619 24.5124 22.1259 24.2869C22.3165 23.6155 22.3486 23.0354 22.2316 22.5628C22.1168 22.0988 21.8547 21.7213 21.4167 21.4453ZM23.4466 13.6752L23.4467 13.6753C23.4485 13.6719 23.4499 13.669 23.4509 13.6672C23.4518 13.6653 23.4526 13.6638 23.4529 13.663L23.4533 13.6624C23.4523 13.6643 23.4499 13.6691 23.4466 13.6752ZM19.5142 2.16988C17.609 2.85426 16.2469 4.67678 16.2469 6.81679C16.2469 9.54303 18.457 11.7531 21.1832 11.7531C21.5567 11.7531 21.9203 11.7116 22.2696 11.6331C22.4235 11.2258 22.5918 10.7395 22.743 10.2123C22.9549 9.4734 23.1274 8.67477 23.1866 7.91237C23.2464 7.14203 23.1856 6.46916 22.9845 5.94503L22.9507 5.85803C22.2498 4.08174 21.2086 2.96826 19.5142 2.16988ZM22.7593 2.13752C23.6104 2.97772 24.2548 4.00654 24.7401 5.27114C25.0788 6.15376 25.133 7.1364 25.0614 8.05791C25.0012 8.83329 24.8481 9.60883 24.6637 10.317C25.5631 9.42271 26.1195 8.18473 26.1195 6.81679C26.1195 4.64174 24.7126 2.79515 22.7593 2.13752Z" fill="#F1EFE7"/>
</svg>
