<svg xmlns="http://www.w3.org/2000/svg" xmlns:xlink="http://www.w3.org/1999/xlink" width="140" zoomAndPan="magnify" viewBox="0 0 104.88 104.999996" height="140" preserveAspectRatio="xMidYMid meet" version="1.0"><defs><clipPath id="83d6b74572"><path d="M 0 1.785156 L 85.75 1.785156 L 85.75 98.257812 L 0 98.257812 Z M 0 1.785156 " clip-rule="nonzero"/></clipPath><clipPath id="98297839f7"><path d="M 42.875 50.023438 C -30.550781 48.234375 4.644531 -12.503906 42.875 50.023438 Z M 42.875 50.023438 C 7.683594 114.335938 77.890625 114.335938 42.875 50.023438 Z M 42.875 50.023438 C -30.550781 51.808594 4.644531 112.550781 42.875 50.023438 Z M 42.875 50.023438 C 7.683594 -14.292969 77.890625 -14.292969 42.875 50.023438 Z M 42.875 50.023438 C 81.105469 112.550781 116.300781 51.808594 42.875 50.023438 Z M 42.875 50.023438 C 81.105469 -12.503906 116.300781 48.234375 42.875 50.023438 Z M 46.089844 50.023438 C 45.019531 50.023438 43.949219 50.023438 42.875 50.023438 C 43.410156 49.128906 43.949219 48.234375 44.484375 47.164062 C 43.949219 48.058594 43.410156 49.128906 42.875 50.023438 C 42.339844 49.128906 41.804688 48.058594 41.269531 47.164062 C 41.804688 48.058594 42.339844 49.128906 42.875 50.023438 C 41.804688 50.023438 40.730469 50.023438 39.660156 50.023438 C 40.730469 50.023438 41.804688 50.023438 42.875 50.023438 C 42.339844 50.914062 41.804688 51.808594 41.269531 52.878906 C 41.804688 51.988281 42.339844 50.914062 42.875 50.023438 C 43.410156 50.914062 43.949219 51.988281 44.484375 52.878906 C 43.949219 51.988281 43.410156 50.914062 42.875 50.023438 C 43.949219 50.023438 45.019531 50.023438 46.089844 50.023438 Z M 46.089844 50.023438 " clip-rule="nonzero"/></clipPath><clipPath id="650dd897aa"><path d="M 0 0.785156 L 85.75 0.785156 L 85.75 97.257812 L 0 97.257812 Z M 0 0.785156 " clip-rule="nonzero"/></clipPath><clipPath id="3eddf2f64d"><path d="M 42.875 49.023438 C -30.550781 47.234375 4.644531 -13.503906 42.875 49.023438 Z M 42.875 49.023438 C 7.683594 113.335938 77.890625 113.335938 42.875 49.023438 Z M 42.875 49.023438 C -30.550781 50.808594 4.644531 111.550781 42.875 49.023438 Z M 42.875 49.023438 C 7.683594 -15.292969 77.890625 -15.292969 42.875 49.023438 Z M 42.875 49.023438 C 81.105469 111.550781 116.300781 50.808594 42.875 49.023438 Z M 42.875 49.023438 C 81.105469 -13.503906 116.300781 47.234375 42.875 49.023438 Z M 46.089844 49.023438 C 45.019531 49.023438 43.949219 49.023438 42.875 49.023438 C 43.410156 48.128906 43.949219 47.234375 44.484375 46.164062 C 43.949219 47.058594 43.410156 48.128906 42.875 49.023438 C 42.339844 48.128906 41.804688 47.058594 41.269531 46.164062 C 41.804688 47.058594 42.339844 48.128906 42.875 49.023438 C 41.804688 49.023438 40.730469 49.023438 39.660156 49.023438 C 40.730469 49.023438 41.804688 49.023438 42.875 49.023438 C 42.339844 49.914062 41.804688 50.808594 41.269531 51.878906 C 41.804688 50.988281 42.339844 49.914062 42.875 49.023438 C 43.410156 49.914062 43.949219 50.988281 44.484375 51.878906 C 43.949219 50.988281 43.410156 49.914062 42.875 49.023438 C 43.949219 49.023438 45.019531 49.023438 46.089844 49.023438 Z M 46.089844 49.023438 " clip-rule="nonzero"/></clipPath><clipPath id="a2083108f0"><rect x="0" width="86" y="0" height="98"/></clipPath></defs><g clip-path="url(#83d6b74572)"><g clip-path="url(#98297839f7)"><g transform="matrix(1, 0, 0, 1, 0, 1)"><g clip-path="url(#a2083108f0)"><g clip-path="url(#650dd897aa)"><g clip-path="url(#3eddf2f64d)"><path fill="#a3e635" d="M 0 0.785156 L 85.75 0.785156 L 85.75 97.257812 L 0 97.257812 Z M 0 0.785156 " fill-opacity="1" fill-rule="nonzero"/></g></g></g></g></g></g></svg>