<svg width="18" height="18" viewBox="0 0 18 18" fill="none" xmlns="http://www.w3.org/2000/svg">
<path d="M9.96499 0.957611V1.33203C9.64819 1.28162 9.33139 1.25279 9.00017 1.25279H8.89215C8.59697 1.26 8.31616 1.28883 8.03535 1.33923V0.957611C8.03535 0.42482 8.46738 0 9.00017 0C9.53296 0 9.96499 0.42482 9.96499 0.957611ZM6.64575 16.2576C6.94819 17.2584 7.89139 18 9.00017 18C10.109 18 11.0522 17.2584 11.3546 16.2576H6.64575ZM15.797 15.1416C15.797 15.3576 15.6242 15.5376 15.4082 15.5376H2.59215C2.37616 15.5376 2.20337 15.3576 2.20337 15.1416C2.20337 14.6664 2.39058 14.2128 2.73616 13.8816C3.42738 13.2048 3.81616 12.2832 3.81616 11.3184V7.3296C3.81616 4.47122 6.04819 2.0232 8.90657 1.97279C11.8154 1.92243 14.1842 4.26243 14.1842 7.1568V11.3184C14.1842 12.2832 14.573 13.2048 15.2642 13.8816C15.6098 14.2128 15.797 14.6664 15.797 15.1416ZM12.7802 5.97604C12.4346 4.86 11.6066 3.96 10.5122 3.5064C10.325 3.42721 10.1162 3.52081 10.037 3.70081C9.96499 3.88802 10.0514 4.0968 10.2385 4.16883C11.1314 4.5432 11.8082 5.27761 12.0962 6.19203C12.1466 6.3504 12.2834 6.44401 12.4418 6.44401C12.4778 6.44401 12.5138 6.44401 12.5498 6.42959C12.737 6.37203 12.845 6.17041 12.7802 5.97604Z" fill="#F7F7F7"/>
</svg>
