<svg width="52" height="57" viewBox="0 0 52 57" fill="none" xmlns="http://www.w3.org/2000/svg">
<path d="M32.8593 20.8852C36.6505 17.094 36.6505 10.9473 32.8593 7.15607C29.0681 3.36488 22.9214 3.36488 19.1302 7.15607C15.339 10.9473 15.339 17.094 19.1302 20.8852C22.9214 24.6764 29.0681 24.6764 32.8593 20.8852Z" fill="#0075FF"/>
<path d="M19.0914 42.4055C20.3524 39.4243 21.996 36.6573 23.9946 34.1391C18.0264 27.6827 9.48549 23.6397 0 23.6397V56.3086H16.2835C16.2835 51.4883 17.2282 46.8106 19.0914 42.4055Z" fill="#0075FF"/>
<path d="M52.0009 56.3086V23.6397C33.9584 23.6397 19.332 38.2661 19.332 56.3086H52.0009Z" fill="#0075FF"/>
</svg>
