<svg width="54" height="65" viewBox="0 0 54 65" fill="none" xmlns="http://www.w3.org/2000/svg">
<path d="M5.39944 26.9982H0C0 47.8759 16.9224 64.8022 37.7993 64.8022V59.4017C19.9041 59.4017 5.39944 44.8941 5.39944 26.9982Z" fill="#0075FF"/>
<path d="M37.8043 5.40046V0C22.8915 0 10.8047 12.0873 10.8047 26.9984C10.8047 41.9118 22.8915 54.0023 37.8043 54.0023V48.6018C25.8739 48.6018 16.2049 38.93 16.2049 26.9992C16.2049 15.0723 25.8738 5.40046 37.8043 5.40046Z" fill="#0075FF"/>
<path d="M37.8015 10.8004C28.8526 10.8004 21.6016 18.0518 21.6016 26.9986C21.6016 35.9479 28.8526 43.2016 37.8015 43.2016V27.001L54.0014 26.9986C54.0014 18.0518 46.7511 10.8004 37.8015 10.8004Z" fill="#0075FF"/>
</svg>
