<svg width="80" height="68" viewBox="0 0 80 68" fill="none" xmlns="http://www.w3.org/2000/svg">
<path d="M79.9309 35.5256C79.8804 35.4839 79.807 35.4707 79.7498 35.4899C79.6801 35.5114 79.6161 35.53 79.5557 35.5477L79.5263 35.5563C79.3775 35.5998 79.2489 35.6371 79.1216 35.6883C77.11 36.4875 75.5263 37.8569 74.2799 39.8743C73.9721 40.3728 73.7336 40.8909 73.5438 41.4077C73.8552 39.6696 73.9274 38.9924 73.9825 37.0476C73.9851 36.966 73.9851 36.883 73.9851 36.8005C73.9851 36.5756 73.9851 36.363 74.0342 36.1691C74.0932 35.9393 74.2117 35.7101 74.3264 35.4883C74.3587 35.4256 74.3909 35.3628 74.4176 35.3077C74.4268 35.2968 74.4567 35.2786 74.4683 35.2768C75.0436 35.189 75.5524 34.9447 76.024 34.5303C76.4992 34.1106 76.89 33.5968 77.1858 33.0029C78.2473 30.8742 78.7785 28.5213 78.7651 26.0104C78.7639 25.7681 78.7354 25.5323 78.7041 25.2759C78.6899 25.161 78.6755 25.0435 78.6634 24.9217C78.6566 24.855 78.6155 24.7956 78.5559 24.7667C78.4972 24.7383 78.4262 24.7403 78.3669 24.7762C78.331 24.7986 78.3003 24.8169 78.2724 24.8331C78.2185 24.8652 78.1774 24.8903 78.1385 24.9183C77.2329 25.5674 76.4342 26.3755 75.7643 27.3196C74.6711 28.8626 74.0352 30.6073 73.864 32.5267C73.8469 32.3127 73.8297 32.0988 73.8124 31.8848L73.8064 31.8072C73.7393 30.9684 73.6699 30.101 73.6133 29.248C73.5991 29.032 73.5576 28.8219 73.5175 28.6185C73.4401 28.2277 73.3669 27.8586 73.484 27.4718C73.5107 27.3843 73.5331 27.2963 73.5556 27.2085C73.6109 26.9909 73.8782 26.6558 74.2887 26.2895L74.3041 26.2757C74.4555 26.1473 75.2331 25.4359 75.6743 24.0286C76.122 22.5989 76.0882 21.1051 76.0635 20.0142L76.0629 19.9851C76.03 18.4857 75.868 17.3557 75.5375 16.3208C75.4948 16.1885 75.4441 16.058 75.3903 15.9208C75.3625 15.8494 75.334 15.7756 75.3047 15.6984C75.2807 15.6331 75.2229 15.5855 75.1553 15.5743L75.1222 15.5713C75.0637 15.5713 75.009 15.5976 74.9719 15.6429L74.6508 16.0341C73.1116 17.9114 72.3555 20.1131 72.4028 22.5783C72.411 23.0124 72.4435 23.4578 72.5011 23.9175C72.1098 22.5674 71.651 21.2532 71.1293 19.989C71.1185 19.9613 71.1114 19.927 71.1106 19.8979L71.107 19.7251C71.1016 19.4756 71.096 19.2176 71.1066 18.9637C71.1082 18.9216 71.1355 18.846 71.1923 18.7716C71.2729 18.6651 71.3623 18.5611 71.4549 18.4528C71.6127 18.2691 71.7758 18.0794 71.9049 17.8628C72.3208 17.1662 72.5161 16.3433 72.5193 15.2727C72.5249 14.0125 72.3306 12.6862 71.9071 11.0987C71.6757 10.2327 71.3264 9.10755 70.6759 8.0875C70.6318 8.01893 70.5825 7.95436 70.5299 7.88598C70.5063 7.8557 70.4814 7.82342 70.4561 7.78873C70.4193 7.7392 70.3683 7.71033 70.2861 7.71033C70.2205 7.71514 70.162 7.75244 70.1293 7.81039C69.3128 9.28401 68.9061 10.8583 68.8869 12.6233C68.8704 14.0949 69.1002 15.3612 69.3884 16.362C68.6551 15.0223 67.8402 13.7279 66.9569 12.5001L66.9366 12.4723C66.9166 12.4456 66.9082 12.4326 66.9096 12.4418C66.854 12.0446 66.8155 11.7267 66.7888 11.45C66.7894 11.4458 66.7947 11.4226 66.836 11.3536C66.8943 11.2541 66.9583 11.1567 67.0263 11.0536C67.1626 10.8463 67.3034 10.6317 67.3936 10.3915C67.6659 9.6664 67.7271 8.84406 67.5801 7.87836C67.2575 5.74102 66.3152 3.81643 64.7002 1.99431C64.534 1.80722 64.3503 1.64179 64.156 1.46694L64.1023 1.41821C64.0263 1.34944 63.9483 1.27905 63.8695 1.20466C63.8193 1.15694 63.7476 1.13909 63.678 1.15954C63.6122 1.1804 63.5615 1.23494 63.5458 1.30271L63.5105 1.45752C63.4865 1.56018 63.4678 1.64119 63.454 1.7226C63.2366 3.01997 63.2525 4.40957 63.5027 5.97122C63.751 7.52003 64.2456 8.8559 65.0046 10.0163C63.8665 8.67523 62.7594 7.54911 61.6024 6.55112C61.5972 6.5443 61.5896 6.52365 61.589 6.51844C61.6794 5.73942 61.4873 5.00551 61.0012 4.27482C60.363 3.31453 59.4761 2.58263 58.3652 2.09978C57.7005 1.81143 57.0117 1.55617 56.3373 1.30612C56.0143 1.18621 55.6913 1.0667 55.3586 0.93857C55.0243 0.805626 54.8814 0.781964 54.8038 0.85375C54.7039 0.946792 54.728 1.0262 54.7715 1.17057L54.7855 1.21769C55.1932 2.59085 55.7342 3.67687 56.4398 4.5377C57.7352 6.1196 59.2501 6.92329 61.0688 6.99427C61.1326 6.99808 61.1831 7.01572 61.2038 7.03177C61.4598 7.22346 61.6483 7.37686 61.8149 7.52886C62.3419 8.0105 62.8609 8.52363 63.3686 9.06404C62.6134 8.59482 61.6904 8.38307 60.6509 8.43561C60.0821 8.46428 59.5174 8.5477 58.9714 8.62831L58.9505 8.63152C58.7891 8.65518 58.6285 8.67864 58.4683 8.7013C58.1174 8.74882 57.7636 8.81098 57.4512 8.86552C57.3247 8.88818 57.0225 8.95696 56.9529 9.10354C56.9289 9.15367 56.9309 9.20861 56.9582 9.25854C56.9822 9.30205 57.0087 9.34296 57.0376 9.38026C57.9393 10.5503 58.968 11.3209 60.1823 11.7358C61.6629 12.2443 63.0229 12.2024 64.2448 11.6042C64.4317 11.5014 64.6571 11.4492 64.9146 11.4492C65.1089 11.4492 65.2547 11.4799 65.303 11.4909C65.3754 11.503 65.4736 11.5435 65.4937 11.5695C66.2537 12.5687 66.9749 13.6359 67.6485 14.757C67.0794 14.2036 66.3373 13.8304 65.3263 13.5874C64.4402 13.3762 63.5342 13.3309 62.6583 13.2868L62.365 13.2719C62.0903 13.2579 61.8155 13.2405 61.5326 13.2226L61.0582 13.1933C60.9968 13.1933 60.9385 13.223 60.9028 13.2723C60.8633 13.3255 60.8539 13.3945 60.8771 13.4564C60.8962 13.5082 60.9309 13.5994 60.9487 13.6299C61.8725 15.1751 62.9573 16.2438 64.2647 16.8975C65.5428 17.536 66.6976 17.7048 67.8624 17.4263C67.9972 17.3938 68.1534 17.3766 68.3148 17.3766C68.8103 17.3766 69.1558 17.5278 69.2284 17.6677C69.8692 18.9898 70.4411 20.3635 70.9344 21.7648C70.417 21.0515 69.6936 20.4722 68.7776 20.0389C67.8676 19.6094 66.9202 19.2168 65.988 18.8304C65.5873 18.6647 65.1851 18.4985 64.7846 18.3285C64.7251 18.3024 64.6547 18.3078 64.5992 18.3445C64.5446 18.3808 64.5121 18.4413 64.5121 18.5065C64.5121 18.6316 65.8416 22.3214 67.7724 23.7754C68.56 24.3685 69.5301 24.9787 70.7535 25.0074C71.1197 25.0148 71.4983 25.0665 71.7842 25.3916C71.8279 25.4433 71.8859 25.4836 71.949 25.5051C72.0467 25.5371 72.0735 25.5969 72.1217 25.8006C72.5179 27.4641 72.8064 29.1788 72.9841 30.9199C72.9304 30.7432 72.868 30.5648 72.7964 30.3841C72.3643 29.2883 71.637 28.3294 70.5077 27.3663C69.9256 26.8678 69.316 26.3851 68.7265 25.9181L68.6984 25.8961C68.4299 25.6833 68.162 25.4714 67.8949 25.2568C67.8398 25.2125 67.786 25.1668 67.7237 25.1134L67.557 24.9707C67.4987 24.9213 67.4119 24.9111 67.3437 24.9452C67.2737 24.9807 67.2318 25.0541 67.2372 25.1325C67.2454 25.2502 67.252 25.3615 67.2583 25.4684L67.2615 25.5183C67.2747 25.7383 67.2871 25.9458 67.3094 26.1507C67.5183 28.1461 68.1117 29.812 69.1233 31.2435C69.7495 32.1284 70.6478 33.21 72.0487 33.7216C72.3896 33.8467 72.6368 34.0362 72.9017 34.3763C73.1515 34.6947 73.1981 34.9856 73.1924 35.3518C73.1686 36.8856 73.0593 38.4071 72.8666 39.8972C72.8215 39.4825 72.726 39.0556 72.5795 38.612C72.2761 37.6937 71.8032 36.8007 71.1337 35.8824C70.5558 35.0871 69.9544 34.289 69.3729 33.5168L69.3342 33.4653C69.1036 33.1595 68.8732 32.8533 68.6489 32.5537C68.6068 32.4922 68.546 32.4701 68.5109 32.4579C68.4612 32.4336 68.4018 32.4312 68.3491 32.4537C68.2973 32.4757 68.2576 32.5192 68.2402 32.5726L68.2334 32.5934C68.2238 32.6215 68.2161 32.6464 68.2121 32.6712C67.8111 35.0626 68.0571 37.2052 68.9641 39.222C69.407 40.2082 70.0012 41.3247 71.0487 42.128C71.5269 42.4947 71.9045 43.0092 72.1118 43.5765C72.1558 43.6986 72.1542 43.7516 72.1491 43.772C71.7058 45.6084 71.1267 47.3796 70.4227 49.0559C70.6039 48.1724 70.5915 47.2444 70.3846 46.2829C70.0908 44.9202 69.5859 43.5996 69.1355 42.4686L69.0006 42.13C68.7894 41.6 68.5769 41.0658 68.3573 40.5122C68.3294 40.4414 68.2623 40.3931 68.1726 40.3886C68.102 40.3886 68.0371 40.4289 68.0034 40.4943L67.9326 40.6275C67.9015 40.6858 67.8725 40.7402 67.8476 40.7963C66.9416 42.8404 66.6356 44.9358 66.9386 47.0244C67.1552 48.5179 67.5221 49.5873 68.1285 50.492C68.4423 50.9596 68.7405 51.4806 68.7946 52.1213C68.8075 52.2729 68.8015 52.3773 68.7339 52.4962C67.9691 53.8355 67.1117 55.0994 66.1726 56.2736C66.1762 56.2672 66.1797 56.2608 66.1833 56.2544C66.8588 55.0198 66.8793 53.6849 66.8103 52.5418C66.7507 51.5618 66.6385 50.5833 66.5304 49.6372L66.5242 49.5825C66.4806 49.2035 66.4373 48.8247 66.3978 48.4451C66.375 48.23 66.3495 48.0148 66.3232 47.7965L66.2885 47.5009C66.2809 47.4355 66.241 47.379 66.1837 47.3505C66.077 47.2948 65.9044 47.3808 65.7179 47.6013C64.4363 49.1171 63.6411 50.8299 63.3539 52.6925C63.0562 54.6238 63.2176 56.2764 63.848 57.745C63.8649 57.7841 63.8645 57.864 63.8643 57.8906L63.8304 58.7356C63.8254 58.7964 63.7933 58.8649 63.7668 58.8904C62.4871 60.1228 61.0782 61.1942 59.5663 62.0859C60.282 61.439 60.7965 60.595 61.13 59.5255C61.4995 58.34 61.6892 57.1062 61.8731 55.9099L61.8891 55.8034C61.9543 55.3831 62.0223 54.9636 62.0917 54.5349L62.1701 54.0503C62.1813 53.9797 62.1534 53.9091 62.0987 53.8668C62.0443 53.8235 61.9657 53.813 61.9032 53.8399L61.8348 53.8682C61.7618 53.8981 61.6982 53.9247 61.6383 53.9554C58.7801 55.3829 56.8986 58.7124 57.1645 61.8717C57.2062 62.3666 57.1609 62.8314 57.0257 63.2918C57.0131 63.3337 56.9726 63.3793 56.9562 63.3869C55.5986 63.9594 54.3079 64.377 53.0091 64.6638C52.9423 64.6792 52.8894 64.7269 52.8677 64.7913C52.8459 64.8561 52.8591 64.9265 52.9036 64.9794C53.0448 65.1466 53.1677 65.3265 53.2688 65.5148C53.3103 65.5918 53.4092 65.6313 53.4831 65.612C54.5413 65.3706 55.5718 65.058 56.5469 64.6822C56.6257 64.6505 56.6858 64.6355 56.7422 64.6447C56.9592 64.6736 57.1884 64.7181 57.4428 64.7813C57.4953 64.7941 57.5389 64.8184 57.5397 64.8162C58.0955 65.9242 59.0508 66.6301 60.461 66.9736C60.7678 67.0472 61.0843 67.1015 61.4015 67.1348C61.7335 67.1699 62.1039 67.1877 62.5019 67.1877C63.0534 67.1877 63.4466 67.1536 63.4514 67.1532C64.6738 67.0165 65.7177 66.7414 66.6423 66.312C67.0216 66.1362 67.454 65.8994 67.7862 65.4765C67.8498 65.3955 67.8392 65.2786 67.762 65.2106C66.8227 64.3819 65.8665 63.7797 64.838 63.3698C63.3142 62.7643 61.9262 62.6002 60.5657 62.8619C60.3624 62.9014 60.1639 62.9511 59.971 63.0083C61.2437 62.2475 62.4622 61.3534 63.613 60.3348C63.6351 60.3147 63.6714 60.2971 63.6996 60.292C63.8879 60.2608 64.138 60.2223 64.3938 60.2038C64.4175 60.2038 64.4476 60.2152 64.451 60.2164C65.1444 60.9925 66.0377 61.3696 67.1821 61.3696C67.2404 61.3696 67.299 61.3684 67.3573 61.3664C68.6015 61.3263 69.8524 60.9844 71.0758 60.3498C71.9649 59.886 72.8917 59.346 73.6432 58.5407C73.8098 58.3616 73.9586 58.1591 74.09 57.9805L74.1028 57.963C74.161 57.8842 74.2197 57.8048 74.2801 57.7264C74.3129 57.6841 74.3268 57.6295 74.3182 57.5746C74.3089 57.5217 74.2783 57.4745 74.2259 57.4405C74.2127 57.4332 73.8945 57.2626 73.6039 57.1501C71.6585 56.3984 69.6944 56.3214 67.8207 56.9251C67.2073 57.1222 66.63 57.4182 66.068 57.8273C67.1075 56.6189 68.07 55.2943 68.9438 53.869C68.9533 53.854 68.9781 53.8133 68.9861 53.8058C69.0625 53.7571 69.1407 53.711 69.2187 53.6655C69.3585 53.5835 69.5033 53.4986 69.6392 53.3976C69.7539 53.312 69.7862 53.3097 69.9021 53.3843C70.0661 53.4908 70.2568 53.5462 70.4231 53.5897C71.3956 53.8387 72.3759 53.7146 73.4603 53.2055C74.4509 52.7411 75.2125 52.007 75.8882 51.2831C76.8712 50.2272 77.5134 49.2745 77.9097 48.2847C77.9929 48.077 78.0522 47.8622 78.114 47.6376C78.1395 47.5434 78.1655 47.4492 78.1932 47.3565C78.2235 47.2571 78.1705 47.1518 78.0723 47.1171L77.9909 47.1109C77.59 47.1109 74.0144 47.1696 71.9229 49.1989C71.468 49.6404 71.0601 50.1096 70.6878 50.6234C71.5151 48.8712 72.2167 47.0246 72.7822 45.1079L72.7904 45.0798C72.7972 45.0563 72.8074 45.0209 72.8143 45.0112L73.3613 44.2601C73.3817 44.23 73.3841 44.23 73.4162 44.23C73.4305 44.23 73.4461 44.231 73.4639 44.232L73.5808 44.239C73.9879 44.2643 74.2275 44.2607 74.4246 44.2298C75.2035 44.1069 75.9065 43.7147 76.5736 43.0305C78.1339 41.4303 79.2078 39.434 79.8567 36.9279C79.9263 36.6594 79.9457 36.3883 79.9666 36.1007C79.9758 35.9704 79.9861 35.836 80.0009 35.6973C80.0071 35.6307 79.981 35.5671 79.9309 35.5256Z" fill="#F7F7F7"/>
<path d="M26.9924 64.6624C25.6948 64.3758 24.4043 63.9582 23.0464 63.3857C23.0301 63.3781 22.9898 63.3325 22.9772 63.2916C22.8418 62.8302 22.7965 62.3654 22.8382 61.8706C23.1041 58.711 21.2226 55.3817 18.365 53.9544C18.3043 53.9235 18.2409 53.8969 18.1679 53.867L18.1001 53.8389C18.0358 53.8115 17.9574 53.8229 17.9054 53.8646C17.8493 53.9079 17.8214 53.9785 17.8328 54.0493L17.911 54.5337C17.9804 54.9624 18.0484 55.3819 18.1136 55.8018L18.13 55.9117C18.3135 57.105 18.5032 58.339 18.8727 59.5245C19.2062 60.594 19.7207 61.438 20.4364 62.0847C18.9245 61.1932 17.5156 60.1218 16.2361 58.8896C16.2092 58.8638 16.1773 58.7952 16.1727 58.7386L16.1384 57.893C16.1382 57.863 16.1378 57.7832 16.1549 57.7437C16.7851 56.2754 16.9465 54.6228 16.6488 52.6916C16.3616 50.8289 15.5664 49.1161 14.2848 47.6004C14.1349 47.4229 14.0025 47.3331 13.8914 47.3331C13.8644 47.3331 13.8399 47.3385 13.8206 47.3485C13.7617 47.3778 13.7218 47.4345 13.714 47.5001L13.6797 47.7951C13.6532 48.014 13.6277 48.229 13.6049 48.4443C13.5654 48.8237 13.5221 49.2025 13.4785 49.5815L13.4723 49.6362C13.3641 50.5825 13.2518 51.561 13.1924 52.5408C13.1234 53.6837 13.1439 55.0186 13.8194 56.2534C13.823 56.2596 13.8263 56.2662 13.8299 56.2724C12.8908 55.0982 12.0336 53.8345 11.2688 52.4954C11.2012 52.3763 11.1954 52.2719 11.2081 52.1203C11.2624 51.4792 11.5604 50.9583 11.8742 50.4911C12.4804 49.5863 12.8473 48.5169 13.0641 47.0235C13.3671 44.9348 13.0611 42.8396 12.1551 40.7955C12.1303 40.7392 12.1012 40.6848 12.0701 40.6265L11.9993 40.4929C11.9654 40.4278 11.893 40.3848 11.8166 40.3883C11.7404 40.3923 11.6733 40.4406 11.6456 40.5108C11.4258 41.065 11.2133 41.599 11.0021 42.129L10.8672 42.4677C10.4168 43.5988 9.9117 44.9194 9.61814 46.2819C9.41121 47.2434 9.39857 48.1714 9.58004 49.0549C8.87582 47.3788 8.29692 45.6076 7.85357 43.771C7.84855 43.7506 7.84695 43.6976 7.89086 43.5755C8.0982 43.008 8.47578 42.4935 8.95422 42.1268C10.0015 41.3235 10.5957 40.207 11.0386 39.2208C11.9456 37.204 12.1916 35.0615 11.7906 32.6702C11.7864 32.6452 11.7787 32.6203 11.7697 32.5933L11.7625 32.5716C11.7451 32.5181 11.7054 32.4747 11.6528 32.4521C11.6015 32.4306 11.5369 32.4346 11.497 32.4543C11.4569 32.4689 11.3962 32.4912 11.3566 32.5491C11.1297 32.8523 10.8993 33.1583 10.6687 33.4641L10.63 33.5156C10.0485 34.2878 9.4471 35.0859 8.8692 35.881C8.19966 36.7996 7.72684 37.6925 7.42345 38.6109C7.27707 39.0544 7.18142 39.4813 7.13631 39.896C6.94361 38.4059 6.83432 36.8846 6.81046 35.3506C6.80485 34.9844 6.85137 34.6935 7.10142 34.3749C7.3661 34.0352 7.61334 33.8455 7.95423 33.7204C9.35486 33.2086 10.2534 32.1272 10.8796 31.2423C11.8912 29.8108 12.4846 28.1451 12.6935 26.1499C12.7158 25.9446 12.7284 25.7369 12.7414 25.5171L12.7446 25.4672C12.7509 25.3603 12.7575 25.249 12.7659 25.1311C12.7711 25.0529 12.7292 24.9795 12.6592 24.944C12.5914 24.9099 12.5046 24.92 12.4457 24.9699L12.2794 25.1123C12.2169 25.1656 12.1633 25.2113 12.1078 25.2558C11.8409 25.4702 11.573 25.6823 11.3045 25.8951L11.2764 25.9171C10.6871 26.384 10.0775 26.8666 9.49542 27.3651C8.36589 28.3284 7.63861 29.2873 7.20649 30.3831C7.1351 30.5638 7.07254 30.7425 7.0188 30.9193C7.19646 29.178 7.48501 27.4632 7.88124 25.7994C7.92936 25.5959 7.95623 25.5362 8.05509 25.5037C8.11725 25.4826 8.1752 25.4421 8.21751 25.392C8.50486 25.0653 8.88324 25.0136 9.24979 25.0062C10.473 24.9775 11.4431 24.3673 12.2305 23.7742C14.1613 22.32 15.4908 18.6304 15.4908 18.5053C15.4908 18.4402 15.4583 18.3794 15.4031 18.3427C15.3488 18.3068 15.2754 18.3018 15.2201 18.3265C14.8178 18.4971 14.4156 18.6633 13.9991 18.8356C13.0827 19.2156 12.1353 19.6082 11.2253 20.0375C10.3095 20.4708 9.58586 21.0503 9.06852 21.7634C9.56159 20.3623 10.1333 18.9888 10.7733 17.6688C10.8469 17.5264 11.1926 17.3752 11.6883 17.3752C11.8495 17.3752 12.0057 17.3924 12.1407 17.4249C13.3053 17.704 14.4601 17.5348 15.7382 16.8962C17.0458 16.2425 18.1306 15.1737 19.0546 13.6279C19.0723 13.598 19.1069 13.5068 19.1256 13.4556C19.149 13.3931 19.1396 13.3241 19.1007 13.2718C19.0646 13.222 19.0069 13.1924 18.9333 13.1924C18.9327 13.1924 18.9323 13.1924 18.9317 13.1924L18.4701 13.2214C18.1872 13.2393 17.9124 13.2567 17.6377 13.2708L17.3444 13.2856C16.4685 13.3297 15.5626 13.375 14.6763 13.5862C13.6654 13.8292 12.9233 14.2024 12.3542 14.7558C13.0278 13.6347 13.7491 12.5679 14.5088 11.5687C14.5293 11.5423 14.6273 11.5018 14.7077 11.4883C14.7478 11.4789 14.8938 11.4482 15.0879 11.4482C15.3454 11.4482 15.5708 11.5006 15.7619 11.6056C16.976 12.1994 18.3396 12.2435 19.82 11.735C21.0343 11.3201 22.0628 10.5495 22.9643 9.37987C22.9936 9.34217 23.0201 9.30106 23.0441 9.25775C23.0716 9.20782 23.0734 9.15288 23.0494 9.10275C22.9796 8.95637 22.6776 8.88759 22.5505 8.86473C22.2385 8.81019 21.8849 8.74803 21.5344 8.70051C21.3738 8.67805 21.213 8.65459 21.0518 8.63072L21.0311 8.62752C20.4849 8.54691 19.9202 8.46349 19.3514 8.43482C18.3119 8.38168 17.3889 8.59383 16.6335 9.06345C17.1414 8.52285 17.6604 8.00992 18.1874 7.52807C18.354 7.37607 18.5425 7.22288 18.7993 7.03058C18.8192 7.01534 18.8697 6.99749 18.9317 6.99388C20.7522 6.9227 22.2671 6.11901 23.5625 4.53731C24.2681 3.67628 24.8091 2.59027 25.2168 1.21711L25.2308 1.16998C25.2743 1.02561 25.2984 0.946202 25.1983 0.853161C25.1211 0.781375 24.9852 0.802631 24.6319 0.942593C24.311 1.06591 23.9882 1.18562 23.6567 1.30854C22.9908 1.55538 22.302 1.81064 21.6373 2.09899C20.5264 2.58184 19.6393 3.31374 19.0011 4.27403C18.515 5.00472 18.3229 5.73883 18.4133 6.51444C18.4127 6.52306 18.4051 6.54371 18.4039 6.54612C17.2443 7.54732 16.1358 8.67444 14.9977 10.0159C15.7567 8.85551 16.2513 7.51944 16.4996 5.97063C16.7498 4.40918 16.7657 3.01938 16.5483 1.72201C16.5345 1.6408 16.5158 1.55959 16.492 1.45793L16.4565 1.30132C16.4404 1.23415 16.3899 1.17981 16.3235 1.15895C16.2572 1.1393 16.1828 1.15675 16.1332 1.20387C16.0538 1.27866 15.976 1.34925 15.9 1.41783L15.8465 1.46615C15.652 1.64141 15.4683 1.80683 15.3021 1.99392C13.6869 3.81604 12.7448 5.74063 12.4222 7.87777C12.2752 8.84368 12.3362 9.66601 12.6087 10.3911C12.6989 10.6313 12.8397 10.8459 12.9799 11.0588C13.044 11.1561 13.1082 11.2537 13.1669 11.354C13.2103 11.426 13.2139 11.4446 13.2137 11.4412C13.187 11.727 13.1487 12.0454 13.097 12.4276C13.0948 12.4324 13.0875 12.4436 13.0645 12.4741L13.0458 12.5C12.1625 13.7277 11.3476 15.0221 10.6143 16.3618C10.9027 15.3612 11.1323 14.0947 11.116 12.6231C11.0964 10.8579 10.6899 9.28362 9.873 7.8096C9.84072 7.75225 9.78217 7.71495 9.70015 7.70934C9.6406 7.70934 9.58325 7.73881 9.54575 7.78914C9.52129 7.82323 9.49643 7.85532 9.47276 7.88579C9.42003 7.95397 9.3707 8.01854 9.32658 8.08752C8.6761 9.10756 8.32719 10.2323 8.09559 11.0983C7.6723 12.6866 7.47779 14.0129 7.48341 15.2723C7.48662 16.3429 7.68172 17.1659 8.0976 17.8623C8.22693 18.079 8.38976 18.2687 8.55338 18.4596C8.64021 18.5609 8.72944 18.6649 8.81025 18.7716C8.86679 18.8458 8.89406 18.9214 8.89567 18.9635C8.9063 19.2174 8.90068 19.4754 8.89527 19.7249L8.89146 19.8973C8.89086 19.927 8.88404 19.9611 8.87381 19.9872C8.35166 21.2522 7.89267 22.5671 7.50125 23.9174C7.5588 23.4576 7.59129 23.0124 7.59951 22.5781C7.64683 20.1129 6.89067 17.9114 5.35148 16.0339L5.03065 15.6431C4.99355 15.5972 4.93861 15.5711 4.88006 15.5711L4.84797 15.5739C4.7794 15.5854 4.72165 15.6329 4.69778 15.6976C4.66851 15.7756 4.63983 15.8492 4.61196 15.9204C4.55822 16.058 4.50749 16.1883 4.46458 16.3209C4.13432 17.3553 3.9723 18.4855 3.93942 19.9846L3.93882 20.0138C3.91415 21.1045 3.88026 22.5985 4.32823 24.0282C4.76917 25.4357 5.54679 26.1469 5.69758 26.2747L5.71362 26.2891C6.12408 26.6555 6.39138 26.9905 6.44672 27.2081C6.46898 27.2959 6.49164 27.3839 6.5181 27.471C6.63521 27.8582 6.56202 28.2271 6.48301 28.6256C6.44371 28.8267 6.40281 29.0344 6.38857 29.2476C6.33202 30.1006 6.26264 30.968 6.19547 31.8068L6.18945 31.8844C6.17221 32.0984 6.15496 32.3123 6.13792 32.5263C5.96667 30.6069 5.33103 28.8622 4.23739 27.3192C3.56765 26.3751 2.76918 25.5674 1.86364 24.9179C1.82454 24.8899 1.78343 24.8648 1.72849 24.8321C1.70182 24.8167 1.67094 24.7982 1.63344 24.7748C1.57689 24.7409 1.50431 24.7379 1.44595 24.7664C1.3862 24.7954 1.34509 24.8546 1.33827 24.9216C1.32604 25.0429 1.31181 25.1604 1.29677 25.2823C1.26649 25.5319 1.23781 25.7678 1.23661 26.01C1.22318 28.5209 1.75435 30.8738 2.81591 33.0025C3.11167 33.5965 3.50249 34.1102 3.97792 34.5301C4.44934 34.9441 4.95806 35.1884 5.53215 35.2762C5.54478 35.2784 5.57486 35.2967 5.57947 35.3003C5.61055 35.3626 5.64283 35.4252 5.67512 35.488C5.78982 35.7095 5.90832 35.9387 5.96728 36.1685C6.0164 36.3628 6.0164 36.5752 6.0164 36.8002C6.0164 36.8826 6.0164 36.9656 6.01901 37.047C6.07415 38.992 6.14654 39.6694 6.45775 41.4073C6.26786 40.8906 6.02944 40.3724 5.72164 39.8739C4.47521 37.8565 2.8917 36.4871 0.880689 35.6881C0.752757 35.6365 0.624424 35.5994 0.475639 35.5561L0.445962 35.5473C0.385605 35.5297 0.321639 35.5108 0.253262 35.49C0.191502 35.4697 0.121119 35.4835 0.0707889 35.5252C0.020659 35.5668 -0.00560914 35.6303 0.00100801 35.6965C0.0158465 35.8345 0.026073 35.9686 0.0354974 36.0995C0.056151 36.3867 0.0756014 36.6578 0.145182 36.9261C0.794064 39.4324 1.86805 41.4286 3.42829 43.0289C4.09542 43.7131 4.79845 44.1053 5.57747 44.2282C5.77397 44.2589 6.0142 44.2627 6.42085 44.2374L6.53796 44.2304C6.5558 44.2294 6.57144 44.2284 6.58568 44.2284C6.61776 44.2284 6.62037 44.2284 6.64263 44.2613L7.18744 45.0094C7.19446 45.0193 7.20468 45.0548 7.2117 45.0792L7.21972 45.1061C7.78519 47.0231 8.48681 48.8694 9.31415 50.6218C8.94179 50.1079 8.53373 49.6386 8.07895 49.1973C5.98753 47.168 2.41186 47.1093 2.01102 47.1093L1.96109 47.1097L1.92961 47.1155C1.83135 47.1504 1.77822 47.2555 1.80849 47.3543C1.83637 47.4476 1.86243 47.5418 1.89231 47.6525C1.94946 47.8604 2.00881 48.0752 2.09203 48.2829C2.48826 49.2731 3.13052 50.2256 4.11367 51.2815C4.78922 52.0054 5.5508 52.7395 6.54116 53.2037C7.62578 53.713 8.60511 53.8373 9.57904 53.5879C9.74467 53.5444 9.93516 53.4892 10.099 53.3829C10.2157 53.3082 10.2476 53.3106 10.3623 53.396C10.4982 53.497 10.6428 53.5819 10.7832 53.6641C10.8608 53.7096 10.939 53.7555 11.012 53.8016C11.0236 53.8115 11.0484 53.8522 11.0577 53.8672C11.9315 55.2925 12.8942 56.6171 13.9337 57.8255C13.3715 57.4164 12.7942 57.1204 12.181 56.9233C10.3071 56.3196 8.34304 56.3964 6.39779 57.1485C6.10744 57.261 5.78921 57.4314 5.76796 57.4435C5.72344 57.4727 5.69276 57.5201 5.68314 57.5744C5.67472 57.6278 5.68855 57.6823 5.72104 57.724C5.7818 57.803 5.84055 57.8824 5.8987 57.9612L5.91153 57.9785C6.04287 58.1573 6.19166 58.3596 6.35849 58.5389C7.10984 59.3444 8.03644 59.8844 8.92595 60.348C10.1491 60.9827 11.4 61.3245 12.644 61.3646C12.7025 61.3666 12.7611 61.3679 12.8194 61.3679C13.9638 61.3679 14.8571 60.9907 15.5457 60.2193C15.5541 60.2133 15.584 60.2018 15.6005 60.2016C15.8635 60.2205 16.1136 60.2588 16.3005 60.2899C16.3299 60.2951 16.3662 60.3127 16.3889 60.3332C17.5393 61.3516 18.7576 62.2455 20.0303 63.0063C19.8374 62.9491 19.6387 62.8994 19.4354 62.8595C18.0753 62.598 16.6873 62.7621 15.1631 63.3676C14.1349 63.7775 13.1786 64.3797 12.2395 65.2084C12.1621 65.2764 12.1513 65.3933 12.2151 65.4743C12.5473 65.8972 12.9797 66.134 13.3588 66.3097C14.2836 66.7394 15.3275 67.0145 16.5513 67.1512C16.5549 67.1514 16.9481 67.1855 17.4996 67.1855C17.8976 67.1855 18.268 67.1677 18.5998 67.1326C18.917 67.0993 19.2335 67.045 19.5405 66.9712C20.9505 66.6279 21.906 65.9221 22.4534 64.8262C22.4632 64.8168 22.5054 64.7923 22.5587 64.7793C22.8132 64.7161 23.0421 64.6716 23.2599 64.6425C23.3112 64.6343 23.3752 64.6482 23.4558 64.6806C24.4295 65.0558 25.46 65.3684 26.5166 65.6094C26.5314 65.6131 26.5468 65.6149 26.5623 65.6149C26.6333 65.6149 26.6986 65.5758 26.7331 65.512C26.834 65.3243 26.9569 65.1442 27.0983 64.9768C27.1426 64.9241 27.1558 64.8539 27.134 64.7889C27.1131 64.726 27.0602 64.6782 26.9924 64.6624Z" fill="#F7F7F7"/>
<path d="M49.5127 38.7847L57.5696 30.9312C57.8427 30.6649 57.9414 30.2662 57.8232 29.9035C57.7053 29.5404 57.3917 29.2757 57.014 29.2209L45.8805 27.6041L40.9006 17.5154C40.7317 17.1731 40.3832 16.9565 40.0016 16.9565C39.6201 16.9565 39.2714 17.1735 39.1027 17.5154L34.1246 27.6041L22.9893 29.2209C22.6118 29.2757 22.298 29.5406 22.18 29.9035C22.0619 30.2662 22.1604 30.6649 22.4337 30.9312L30.4906 38.7847L28.5897 49.8733C28.5251 50.2492 28.6797 50.6294 28.9885 50.8536C29.2969 51.078 29.706 51.1077 30.0442 50.93L40.0021 45.6954L49.9599 50.93C50.1064 51.0072 50.2667 51.0451 50.4261 51.0451C50.634 51.0451 50.8407 50.9805 51.0154 50.8536C51.3242 50.6296 51.479 50.2492 51.4142 49.8733L49.5127 38.7847Z" fill="#F7F7F7"/>
</svg>
