<svg width="20" height="20" viewBox="0 0 20 20" fill="none" xmlns="http://www.w3.org/2000/svg">
<rect x="5" y="5" width="10" height="10" fill="#F7F7F7"/>
<path d="M18.2827 8.26509L17.3683 7.35242C17.2569 7.24131 17.1685 7.10923 17.1082 6.9638C17.048 6.81837 17.0172 6.66247 17.0175 6.50507V5.43582C17.0168 4.78529 16.7582 4.16157 16.2983 3.7015C15.8383 3.24142 15.2147 2.98255 14.5642 2.98166H13.4949C13.1777 2.98081 12.8736 2.85507 12.6484 2.63167L11.7349 1.71732C11.2744 1.25797 10.6505 1 10 1C9.34954 1 8.72563 1.25797 8.26509 1.71732L7.35242 2.63167C7.12696 2.85528 6.82261 2.98128 6.50507 2.9825H5.43498C4.78445 2.98339 4.16083 3.24226 3.70091 3.70234C3.24099 4.16241 2.98233 4.78612 2.98166 5.43666V6.50507C2.98208 6.66241 2.95137 6.81828 2.8913 6.9637C2.83123 7.10913 2.743 7.24124 2.63167 7.35242L1.71732 8.26509C1.25797 8.72563 1 9.34954 1 10C1 10.6505 1.25797 11.2744 1.71732 11.7349L2.63167 12.6476C2.74315 12.7587 2.83154 12.8908 2.89175 13.0362C2.95196 13.1816 2.9828 13.3375 2.9825 13.4949V14.5642C2.98317 15.2147 3.24183 15.8384 3.70174 16.2985C4.16166 16.7586 4.78529 17.0175 5.43582 17.0183H6.50507C6.8224 17.0194 7.12653 17.1455 7.35159 17.3692L8.26509 18.2827C8.72552 18.7422 9.34947 19.0003 10 19.0003C10.6505 19.0003 11.2745 18.7422 11.7349 18.2827L12.6476 17.3692C12.873 17.1456 13.1774 17.0196 13.4949 17.0183H14.565C15.2156 17.0175 15.8392 16.7586 16.2991 16.2985C16.759 15.8384 17.0177 15.2147 17.0183 14.5642V13.4949C17.018 13.3375 17.0489 13.1816 17.1091 13.0362C17.1693 12.8908 17.2577 12.7587 17.3692 12.6476L18.2827 11.7349C18.742 11.2744 19 10.6505 19 10C19 9.34954 18.742 8.72563 18.2827 8.26509ZM12.9557 8.76748L9.60646 12.1167C9.54827 12.1752 9.47912 12.2215 9.40296 12.2532C9.32681 12.2848 9.24515 12.3011 9.16269 12.3011C9.08023 12.3011 8.99857 12.2848 8.92242 12.2532C8.84626 12.2215 8.77711 12.1752 8.71892 12.1167L7.04429 10.4421C6.93337 10.3231 6.87298 10.1656 6.87585 10.0029C6.87872 9.84022 6.94462 9.685 7.05968 9.56994C7.17474 9.45488 7.32996 9.38898 7.49266 9.3861C7.65535 9.38323 7.8128 9.44362 7.93184 9.55455L9.16269 10.7862L12.0682 7.8816C12.1872 7.77068 12.3447 7.71029 12.5073 7.71316C12.67 7.71603 12.8253 7.78194 12.9403 7.89699C13.0554 8.01205 13.1213 8.16728 13.1242 8.32997C13.127 8.49266 13.0666 8.65011 12.9557 8.76915V8.76748Z" fill="#0075FF"/>
</svg>
